<?xml version="1.0" encoding="UTF-8" standalone="no"?>
<svg
   xmlns:dc="http://purl.org/dc/elements/1.1/"
   xmlns:cc="http://creativecommons.org/ns#"
   xmlns:rdf="http://www.w3.org/1999/02/22-rdf-syntax-ns#"
   xmlns:svg="http://www.w3.org/2000/svg"
   xmlns="http://www.w3.org/2000/svg"
   viewBox="0 0 330.49332 142.02667"
   height="142.02667"
   width="330.49332"
   xml:space="preserve"
   id="svg2"
   version="1.1"><metadata
     id="metadata8"><rdf:RDF><cc:Work
         rdf:about=""><dc:format>image/svg+xml</dc:format><dc:type
           rdf:resource="http://purl.org/dc/dcmitype/StillImage" /></cc:Work></rdf:RDF></metadata><defs
     id="defs6"><clipPath
       id="clipPath22"
       clipPathUnits="userSpaceOnUse"><path
         id="path20"
         d="m 200.227,335.266 c -14.192,6.773 -23.008,20.488 -23.008,35.785 V 791.18 H 710.898 V 370.266 c 0,-15.106 -9.062,-29.168 -23.093,-35.825 L 444.094,218.852 Z" /></clipPath><radialGradient
       id="radialGradient42"
       spreadMethod="pad"
       gradientTransform="matrix(0.00220618,0,0,-0.0021324,274.084,617.146)"
       gradientUnits="userSpaceOnUse"
       r="1"
       cy="0"
       cx="0"
       fy="0"
       fx="0"><stop
         id="stop34"
         offset="0"
         style="stop-opacity:1;stop-color:#f2edbc" /><stop
         id="stop36"
         offset="0.0175881"
         style="stop-opacity:1;stop-color:#f2edbc" /><stop
         id="stop38"
         offset="0.969325"
         style="stop-opacity:1;stop-color:#a89b11" /><stop
         id="stop40"
         offset="1"
         style="stop-opacity:1;stop-color:#a89b11" /></radialGradient><radialGradient
       id="radialGradient54"
       spreadMethod="pad"
       gradientTransform="matrix(8.001e-4,0,0,-7.734e-4,274.226,617.42)"
       gradientUnits="userSpaceOnUse"
       r="1"
       cy="0"
       cx="0"
       fy="0"
       fx="0"><stop
         id="stop46"
         offset="0"
         style="stop-opacity:1;stop-color:#f2edbc" /><stop
         id="stop48"
         offset="0.0175881"
         style="stop-opacity:1;stop-color:#f2edbc" /><stop
         id="stop50"
         offset="0.969325"
         style="stop-opacity:1;stop-color:#a89b11" /><stop
         id="stop52"
         offset="1"
         style="stop-opacity:1;stop-color:#a89b11" /></radialGradient><radialGradient
       id="radialGradient66"
       spreadMethod="pad"
       gradientTransform="matrix(8.001e-4,0,0,-7.734e-4,535.391,604.596)"
       gradientUnits="userSpaceOnUse"
       r="1"
       cy="0"
       cx="0"
       fy="0"
       fx="0"><stop
         id="stop58"
         offset="0"
         style="stop-opacity:1;stop-color:#f2edbc" /><stop
         id="stop60"
         offset="0.0175881"
         style="stop-opacity:1;stop-color:#f2edbc" /><stop
         id="stop62"
         offset="0.969325"
         style="stop-opacity:1;stop-color:#a89b11" /><stop
         id="stop64"
         offset="1"
         style="stop-opacity:1;stop-color:#a89b11" /></radialGradient><radialGradient
       id="radialGradient78"
       spreadMethod="pad"
       gradientTransform="matrix(8.001e-4,0,0,-7.734e-4,273.25,616.177)"
       gradientUnits="userSpaceOnUse"
       r="1"
       cy="0"
       cx="0"
       fy="0"
       fx="0"><stop
         id="stop70"
         offset="0"
         style="stop-opacity:1;stop-color:#f2edbc" /><stop
         id="stop72"
         offset="0.0175881"
         style="stop-opacity:1;stop-color:#f2edbc" /><stop
         id="stop74"
         offset="0.969325"
         style="stop-opacity:1;stop-color:#a89b11" /><stop
         id="stop76"
         offset="1"
         style="stop-opacity:1;stop-color:#a89b11" /></radialGradient><radialGradient
       id="radialGradient90"
       spreadMethod="pad"
       gradientTransform="matrix(167.049,0,0,-161.462,445.781,531.148)"
       gradientUnits="userSpaceOnUse"
       r="1"
       cy="0"
       cx="0"
       fy="0"
       fx="0"><stop
         id="stop82"
         offset="0"
         style="stop-opacity:1;stop-color:#f2edbc" /><stop
         id="stop84"
         offset="0.0175881"
         style="stop-opacity:1;stop-color:#f2edbc" /><stop
         id="stop86"
         offset="0.969325"
         style="stop-opacity:1;stop-color:#a89b11" /><stop
         id="stop88"
         offset="1"
         style="stop-opacity:1;stop-color:#a89b11" /></radialGradient><radialGradient
       id="radialGradient102"
       spreadMethod="pad"
       gradientTransform="matrix(8.001e-4,0,0,-7.734e-4,536.619,605.07)"
       gradientUnits="userSpaceOnUse"
       r="1"
       cy="0"
       cx="0"
       fy="0"
       fx="0"><stop
         id="stop94"
         offset="0"
         style="stop-opacity:1;stop-color:#f2edbc" /><stop
         id="stop96"
         offset="0.0175881"
         style="stop-opacity:1;stop-color:#f2edbc" /><stop
         id="stop98"
         offset="0.969325"
         style="stop-opacity:1;stop-color:#a89b11" /><stop
         id="stop100"
         offset="1"
         style="stop-opacity:1;stop-color:#a89b11" /></radialGradient><radialGradient
       id="radialGradient114"
       spreadMethod="pad"
       gradientTransform="matrix(8.001e-4,0,0,-7.734e-4,524.133,607.273)"
       gradientUnits="userSpaceOnUse"
       r="1"
       cy="0"
       cx="0"
       fy="0"
       fx="0"><stop
         id="stop106"
         offset="0"
         style="stop-opacity:1;stop-color:#f2edbc" /><stop
         id="stop108"
         offset="0.0175881"
         style="stop-opacity:1;stop-color:#f2edbc" /><stop
         id="stop110"
         offset="0.969325"
         style="stop-opacity:1;stop-color:#a89b11" /><stop
         id="stop112"
         offset="1"
         style="stop-opacity:1;stop-color:#a89b11" /></radialGradient><radialGradient
       id="radialGradient126"
       spreadMethod="pad"
       gradientTransform="matrix(8.001e-4,0,0,-7.734e-4,551.621,538.348)"
       gradientUnits="userSpaceOnUse"
       r="1"
       cy="0"
       cx="0"
       fy="0"
       fx="0"><stop
         id="stop118"
         offset="0"
         style="stop-opacity:1;stop-color:#f2edbc" /><stop
         id="stop120"
         offset="0.0175881"
         style="stop-opacity:1;stop-color:#f2edbc" /><stop
         id="stop122"
         offset="0.969325"
         style="stop-opacity:1;stop-color:#a89b11" /><stop
         id="stop124"
         offset="1"
         style="stop-opacity:1;stop-color:#a89b11" /></radialGradient><radialGradient
       id="radialGradient138"
       spreadMethod="pad"
       gradientTransform="matrix(8.001e-4,0,0,-7.734e-4,578.445,622.184)"
       gradientUnits="userSpaceOnUse"
       r="1"
       cy="0"
       cx="0"
       fy="0"
       fx="0"><stop
         id="stop130"
         offset="0"
         style="stop-opacity:1;stop-color:#f2edbc" /><stop
         id="stop132"
         offset="0.0175881"
         style="stop-opacity:1;stop-color:#f2edbc" /><stop
         id="stop134"
         offset="0.969325"
         style="stop-opacity:1;stop-color:#a89b11" /><stop
         id="stop136"
         offset="1"
         style="stop-opacity:1;stop-color:#a89b11" /></radialGradient><radialGradient
       id="radialGradient150"
       spreadMethod="pad"
       gradientTransform="matrix(0.180706,0,0,-0.174663,457.231,423.131)"
       gradientUnits="userSpaceOnUse"
       r="1"
       cy="0"
       cx="0"
       fy="0"
       fx="0"><stop
         id="stop142"
         offset="0"
         style="stop-opacity:1;stop-color:#f2edbc" /><stop
         id="stop144"
         offset="0.0175881"
         style="stop-opacity:1;stop-color:#f2edbc" /><stop
         id="stop146"
         offset="0.969325"
         style="stop-opacity:1;stop-color:#a89b11" /><stop
         id="stop148"
         offset="1"
         style="stop-opacity:1;stop-color:#a89b11" /></radialGradient><radialGradient
       id="radialGradient162"
       spreadMethod="pad"
       gradientTransform="matrix(8.001e-4,0,0,-7.734e-4,280.43,591.585)"
       gradientUnits="userSpaceOnUse"
       r="1"
       cy="0"
       cx="0"
       fy="0"
       fx="0"><stop
         id="stop154"
         offset="0"
         style="stop-opacity:1;stop-color:#f2edbc" /><stop
         id="stop156"
         offset="0.0175881"
         style="stop-opacity:1;stop-color:#f2edbc" /><stop
         id="stop158"
         offset="0.969325"
         style="stop-opacity:1;stop-color:#a89b11" /><stop
         id="stop160"
         offset="1"
         style="stop-opacity:1;stop-color:#a89b11" /></radialGradient><radialGradient
       id="radialGradient174"
       spreadMethod="pad"
       gradientTransform="matrix(8.001e-4,0,0,-7.734e-4,265.371,629.189)"
       gradientUnits="userSpaceOnUse"
       r="1"
       cy="0"
       cx="0"
       fy="0"
       fx="0"><stop
         id="stop166"
         offset="0"
         style="stop-opacity:1;stop-color:#f2edbc" /><stop
         id="stop168"
         offset="0.0175881"
         style="stop-opacity:1;stop-color:#f2edbc" /><stop
         id="stop170"
         offset="0.969325"
         style="stop-opacity:1;stop-color:#a89b11" /><stop
         id="stop172"
         offset="1"
         style="stop-opacity:1;stop-color:#a89b11" /></radialGradient><radialGradient
       id="radialGradient186"
       spreadMethod="pad"
       gradientTransform="matrix(8.001e-4,0,0,-7.734e-4,276.213,591.957)"
       gradientUnits="userSpaceOnUse"
       r="1"
       cy="0"
       cx="0"
       fy="0"
       fx="0"><stop
         id="stop178"
         offset="0"
         style="stop-opacity:1;stop-color:#f2edbc" /><stop
         id="stop180"
         offset="0.0175881"
         style="stop-opacity:1;stop-color:#f2edbc" /><stop
         id="stop182"
         offset="0.969325"
         style="stop-opacity:1;stop-color:#a89b11" /><stop
         id="stop184"
         offset="1"
         style="stop-opacity:1;stop-color:#a89b11" /></radialGradient></defs><g
     transform="matrix(1.3333333,0,0,-1.3333333,0,142.02667)"
     id="g10"><g
       transform="scale(0.1)"
       id="g12"><path
         id="path14"
         style="fill:#ffffff;fill-opacity:1;fill-rule:nonzero;stroke:none"
         d="M 150.945,371.051 V 963.52 h 586.223 l 0.012,-593.25 c 0,-24.915 -14.668,-47.657 -37.805,-58.629 L 444.063,190.547 188.594,312.496 c -23.059,11.004 -37.649,33.703 -37.649,58.555" /><g
         id="g16"><g
           clip-path="url(#clipPath22)"
           id="g18"><path
             id="path24"
             style="fill:#db3921;fill-opacity:1;fill-rule:nonzero;stroke:none"
             d="M 335.801,801.219 V 616.891 H 150.945 V 426.809 H 335.801 V 190.547 H 444.063 552.324 V 426.809 H 737.18 V 616.891 H 552.324 V 801.219 H 335.801" /></g></g><path
         id="path26"
         style="fill:#e6f7fd;fill-opacity:1;fill-rule:nonzero;stroke:none"
         d="M 636.711,255.141 444.063,163.77 251.406,255.141 c -18.828,8.933 -40.879,8.906 -59.676,-0.071 l -38.695,-18.472 c -1.277,-0.61 -2.09,-1.871 -2.09,-3.25 V 126.363 c 0,-10.754 11.684,-17.773 21.66,-13.011 l 19.125,9.128 c 18.797,8.977 40.848,9.004 59.676,0.075 L 427.52,39.0195 c 10.429,-4.9414 22.648,-4.9414 33.078,0 l 176.113,83.5355 c 18.824,8.929 40.879,8.902 59.676,-0.075 l 19.121,-9.128 c 9.98,-4.762 21.672,2.257 21.672,13.011 v 106.985 c 0,1.379 -0.825,2.64 -2.102,3.25 l -38.691,18.472 c -18.797,8.977 -40.852,9.004 -59.676,0.071" /><path
         id="path28"
         style="fill:#231f20;fill-opacity:1;fill-rule:nonzero;stroke:none"
         d="m 666.477,261.82 c -10.2,0 -20.383,-2.226 -29.766,-6.679 L 444.063,163.766 251.406,255.141 c -9.386,4.453 -19.57,6.679 -29.758,6.679 -10.253,0 -20.496,-2.25 -29.918,-6.75 l -38.695,-18.472 c -1.277,-0.61 -2.09,-1.871 -2.09,-3.254 V 126.363 c 0,-8.406 7.141,-14.527 15.024,-14.527 2.195,0 4.461,0.477 6.636,1.516 l 19.125,9.128 c 9.422,4.5 19.665,6.75 29.918,6.75 10.188,0 20.372,-2.222 29.758,-6.675 L 427.52,39.0195 c 5.214,-2.4687 10.878,-3.7109 16.543,-3.7109 5.656,0 11.32,1.2422 16.535,3.7109 l 176.113,83.5355 c 9.383,4.453 19.578,6.675 29.766,6.675 10.242,0 20.488,-2.246 29.91,-6.75 l 19.121,-9.128 c 2.18,-1.039 4.441,-1.516 6.648,-1.516 7.883,0 15.024,6.121 15.024,14.527 v 106.981 c 0,1.383 -0.825,2.644 -2.102,3.254 l -38.691,18.472 c -9.422,4.496 -19.668,6.75 -29.91,6.75 z m 0,-5.406 c 9.461,0 18.953,-2.141 27.441,-6.195 l 37.664,-17.977 V 126.363 c 0,-5.633 -4.894,-9.121 -9.426,-9.121 -1.433,0 -2.832,0.321 -4.168,0.957 l -19.121,9.129 c -10.019,4.785 -21.222,7.313 -32.39,7.313 -11.118,0 -22.258,-2.5 -32.231,-7.235 L 458.137,43.8789 c -4.36,-2.0703 -9.231,-3.1601 -14.074,-3.1601 -4.852,0 -9.715,1.0898 -14.075,3.1601 L 253.879,127.406 c -9.984,4.735 -21.125,7.235 -32.231,7.235 -11.179,0 -22.378,-2.528 -32.402,-7.313 l -19.117,-9.129 c -1.328,-0.636 -2.734,-0.957 -4.16,-0.957 -4.531,0 -9.426,3.488 -9.426,9.121 v 105.879 l 37.668,17.977 c 8.484,4.054 17.969,6.195 27.437,6.195 9.407,0 18.848,-2.117 27.297,-6.125 l 192.649,-91.375 2.469,-1.168 2.46,1.168 192.649,91.375 c 8.445,4.008 17.891,6.125 27.305,6.125" /><path
         id="path30"
         style="fill:#231f20;fill-opacity:1;fill-rule:nonzero;stroke:none"
         d="m 666.477,247.309 c -7.993,0 -15.989,-1.797 -23.157,-5.196 L 444.063,147.602 244.797,242.113 c -7.168,3.399 -15.168,5.196 -23.149,5.196 -8.027,0 -16.074,-1.817 -23.269,-5.25 L 165.957,226.582 V 126.363 l 19.121,9.129 c 11.309,5.399 23.953,8.254 36.57,8.254 12.54,0 25.122,-2.824 36.379,-8.164 L 434.141,52.0508 c 3.066,-1.4492 6.496,-2.2305 9.922,-2.2305 3.417,0 6.843,0.7813 9.921,2.2305 l 176.114,83.5312 c 11.25,5.34 23.828,8.164 36.379,8.164 12.605,0 25.253,-2.855 36.558,-8.254 l 19.121,-9.129 v 100.219 l -32.41,15.473 c -7.195,3.437 -15.242,5.254 -23.269,5.254 z m 0,-2.559 c 7.617,0 15.261,-1.727 22.086,-4.988 l 30.949,-14.77 v -94.508 l -15.301,7.305 c -11.672,5.57 -24.719,8.516 -37.734,8.516 -12.954,0 -25.93,-2.914 -37.551,-8.426 L 452.813,54.3516 c -2.708,-1.293 -5.735,-1.961 -8.75,-1.961 -3.016,0 -6.043,0.668 -8.758,1.961 L 259.188,137.879 c -11.61,5.512 -24.598,8.426 -37.54,8.426 -13.015,0 -26.074,-2.946 -37.742,-8.516 l -15.301,-7.305 v 94.508 l 30.946,14.77 c 6.836,3.261 14.472,4.988 22.097,4.988 7.582,0 15.176,-1.707 21.985,-4.934 l 199.258,-94.511 1.172,-0.551 1.164,0.551 199.265,94.511 c 6.797,3.227 14.403,4.934 21.985,4.934" /><path
         id="path32"
         style="fill:#231f20;fill-opacity:1;fill-rule:nonzero;stroke:none"
         d="M 737.18,801.219 H 150.945 V 963.52 H 737.18 V 801.219" /><path
         id="path44"
         style="fill:url(#radialGradient42);fill-opacity:1;fill-rule:evenodd;stroke:none"
         d="m 274.094,617.145 -0.012,0.003 0.012,-0.003" /><path
         id="path56"
         style="fill:url(#radialGradient54);fill-opacity:1;fill-rule:evenodd;stroke:none"
         d="m 274.23,617.422 v 0" /><path
         id="path68"
         style="fill:url(#radialGradient66);fill-opacity:1;fill-rule:evenodd;stroke:none"
         d="m 535.391,604.598 v 0" /><path
         id="path80"
         style="fill:url(#radialGradient78);fill-opacity:1;fill-rule:evenodd;stroke:none"
         d="m 273.254,616.176 v 0" /><path
         id="path92"
         style="fill:url(#radialGradient90);fill-opacity:1;fill-rule:evenodd;stroke:none"
         d="m 446.355,584.992 0.129,0.735 4.219,4.132 1.445,-3.062 c 3.821,-8.074 11.543,-12.176 22.969,-12.176 3.289,0 6.863,0.348 10.606,1.035 10.996,1.551 23.797,5.012 36.179,8.364 16.684,4.503 33.926,9.16 46.836,9.16 8.84,0 28.188,-4.379 28.188,-17.383 0,-8.238 -3.02,-12.598 -8.606,-17.781 l -0.324,-0.25 c -10.074,-6.555 -35.816,-6.633 -36.082,-6.633 -6.062,0 -22.207,0 -29.238,5.609 -3.594,2.875 -4.5,3.387 -4.696,3.477 -3.539,1.414 -6.796,1.996 -11.195,1.996 -9.097,0 -19.004,-2.617 -28.57,-5.149 -9.192,-2.421 -17.856,-4.722 -25.57,-4.722 -0.528,0 -1.524,0.156 -2.391,1.144 -3.234,3.664 -5.066,24.551 -3.899,31.504 z m 21.887,26.672 c 4.113,4.649 10.196,7.645 15.508,7.645 2.219,0 4.27,-0.496 6.086,-1.477 3.816,-2.484 6.922,-5.637 9.922,-8.691 3.609,-3.68 7.351,-7.485 12.105,-10.012 l 1.242,-0.664 v -1.363 c 0,-1.414 0,-2.872 -12.351,-6.539 -2.688,-0.801 -11.848,-3.399 -17.277,-3.399 -12.762,0 -19.004,4.789 -19.075,14.629 -0.425,3.094 0.942,6.594 3.84,9.871 z m -164.765,-197.887 0.293,0.203 0.742,0.625 0.301,0.293 0.636,0.665 1.453,1.875 0.864,1.398 2.214,-0.922 -2.011,1.289 0.566,1.106 2.293,-0.719 -2.105,1.125 0.465,1.121 2.367,-0.516 -2.239,0.817 1.297,4.832 0.188,1.472 c 0.078,0.872 0.84,3.239 1.699,4.196 l 1.063,1.176 1.371,1.324 0.332,0.273 1.289,0.93 0.664,0.359 0.215,0.102 0.308,0.117 0.403,0.148 0.378,0.102 0.278,0.047 0.574,0.082 c 2.285,0.449 4.52,-0.488 6.973,-1.649 2.851,-1.324 6.394,-2.968 11.972,-2.968 2.754,0 5.789,0.414 9.063,1.222 -0.742,1.481 -1.453,3.661 0.508,5.282 l 0.363,0.293 2.539,0.82 c 2.93,0.937 5.953,1.902 8.855,2.949 2.344,1.953 5.207,2.652 7.747,3.277 0.964,0.219 1.882,0.442 2.742,0.719 -0.735,0.715 -1.231,1.598 -1.231,2.649 v 0.972 l 0.723,0.684 c 0.957,0.918 2.473,1.25 4.387,1.644 l 0.672,0.161 -0.821,1.785 c -0.09,2.222 2.102,3.511 9.668,7.613 2.235,1.215 5.559,3.016 7.481,4.285 -2.161,2.043 -4.121,5.145 -4.512,6.863 -0.52,2.282 0.652,3.696 1.926,4.27 l 1.113,0.359 c 3.348,1.039 7.52,2.344 9.559,5.106 l 0.461,0.613 0.742,0.238 c 0.965,0.305 3.367,1.039 6.59,2.016 9.589,2.891 25.625,7.746 33.3,10.445 l 3.223,1.129 0.012,-4.73 -1.758,-0.321 0.039,-0.101 1.719,0.019 0.175,-3.394 0.079,-0.82 0.132,-1.188 0.149,-0.891 0.039,-0.222 c 0.461,-2.418 1.223,-4.102 2.461,-5.434 l 1.113,-1.078 c 2.149,-1.785 4.824,-2.953 9.414,-4.047 1.16,-0.168 2.625,-0.277 4.278,-0.277 2.109,0 4.265,0.168 6.535,0.332 4.343,0.332 9.175,0.555 13.316,0.019 4.113,-0.086 7.231,-2.742 7.774,-6.652 0.636,-4.422 -2.098,-9.832 -8.536,-11.582 -5.504,-1.48 -10.964,-1.48 -16.238,-1.48 l -0.242,0.019 c -9.231,0.945 -11.77,3.559 -15.168,7.719 l -0.781,0.902 c -0.801,0.789 -0.918,0.899 -3.223,2.098 -1.379,0.715 -2.629,1.137 -3.965,1.582 -1.836,0.605 -3.73,1.25 -5.793,2.648 l -1.785,1.618 -1.445,1.839 -0.332,0.45 c -1.614,2.265 -2.696,3.652 -4.539,3.652 -1.977,0 -3.508,-0.578 -4.731,-1.746 l -1.363,-1.324 -1.621,0.996 c -3.645,2.242 -9.809,0.472 -13.34,-3.535 -0.98,-1.106 -1.684,-2.262 -2.07,-3.442 l 0.781,0.141 1.094,0.09 h 0.34 l 0.781,-0.028 1.172,-0.168 1.015,-0.246 0.078,-0.027 1.016,-0.367 0.188,-0.082 0.875,-0.453 0.902,-0.594 0.332,-0.262 0.808,-0.707 0.11,-0.109 0.703,-0.774 0.594,-0.57 v -0.223 l 0.176,-0.258 0.148,-0.238 0.613,-1.101 0.137,-0.258 c 0.344,-0.754 0.644,-1.731 0.281,-3.387 -0.32,-1.387 -1.57,-4.055 -4.07,-4.055 l -1.836,0.578 c -1.348,0.7 -2.688,1.059 -4.004,1.059 -4.219,0 -7.703,-3.672 -9.172,-7.082 l -0.64,-2.184 c 4.648,2.028 9.636,1.508 13.894,-1.546 3.652,-1.891 3.652,-5.536 3.652,-8.204 v -1.691 l -1.66,-0.516 c -6.386,-2.003 -9.551,-3.843 -11.816,-12.48 6.023,3.309 12.07,3.309 17.5,3.309 h 0.984 l 0.715,-0.672 c 3.164,-3.051 7.168,-4 9.844,-2.168 2.629,1.855 5.359,4.89 7.551,7.347 2.664,2.973 4.136,4.563 5.679,5.18 l 0.278,0.109 c 0.535,0.243 1.257,0.555 2.168,0.555 0.781,0 2.234,-0.262 3.281,-1.98 1.238,-2.051 0.547,-5.086 0.32,-5.961 -0.769,-2.703 -2.781,-4.598 -4.961,-6.18 0.645,-0.211 1.516,-0.379 2.625,-0.379 3.535,0 5.727,0.149 7.871,0.996 l 0.95,0.406 1.503,0.844 2.356,0.742 0.777,-0.097 1.692,-1.16 c 0.515,-0.801 0.617,-1.786 0.273,-2.961 l -0.93,-2.446 c 4.582,-0.351 7.473,0.973 9.153,4.149 l 1.551,2.933 2.335,-2.41 c 0.926,-0.941 1.661,-1.972 2.383,-2.945 l 1.641,-2.117 c 0.644,3.039 2.187,6.828 5.867,9.09 l 3.684,2.261 v -4.222 c 0,-1.168 1.269,-4.68 2.453,-6.704 0.574,1.516 1.355,3.239 2.129,4.379 0.008,0.036 1.726,2.5 3.551,2.555 2.062,0 2.96,-1.672 4.218,-3.98 0.403,-0.754 1.196,-2.219 1.887,-3.157 1.758,3.614 4.609,8.411 6.035,9.758 l 0.945,0.895 1.282,-0.285 c 0.918,-0.215 1.894,-0.461 2.929,-0.719 3.211,-0.801 6.797,-1.684 9.981,-1.922 -3.184,4.305 -4.199,7.305 -4.199,12.859 l 0.097,1.258 0.266,1.051 c 1.004,2.918 3.434,4.555 5.586,6.008 l 0.738,0.504 c 1.203,0.8 2.402,1.629 3.156,2.55 2.52,3.11 3.028,4.239 3.059,7.028 -0.773,2.484 -3.508,4.398 -6.43,6.437 -1.519,1.067 -3.113,2.18 -4.48,3.43 -6.465,6.504 -1.485,16.328 -1.438,16.437 l 1.575,2.098 1.511,1.199 1.516,-1.179 c 5.996,-4.672 11.183,-8.481 16.758,-12.383 4.187,-3.274 9.922,-5.039 16.242,-5.039 1.746,0 3.516,0.136 5.269,0.402 2.004,0.277 4.258,0.418 6.567,0.418 11.238,0 23.262,-3.34 23.262,-12.75 0,-5.715 -6.497,-13.687 -12.883,-13.687 l -1.739,0.199 -0.429,0.094 -0.364,0.242 c -2.285,1.496 -3.464,4.027 -4.519,6.246 -1.238,2.656 -2.102,4.285 -3.672,4.664 l -0.43,0.144 c -1.14,0.528 -3.839,-0.836 -6.472,-3.211 l -1.157,-1.039 -1.421,0.579 c -8.664,3.527 -15.293,1.343 -20.266,-6.805 l 0.266,0.019 c 1.394,0.313 2.859,0.457 4.351,0.457 5.219,0 10,-1.82 13.125,-4.984 l 0.676,-0.684 v -0.918 c 0,-1.636 -1.055,-2.371 -1.563,-2.73 -0.546,-0.379 -1.668,-1.168 -3.808,-4.684 l -0.547,-0.902 -1.055,-0.199 c -4.414,-0.828 -9.902,-7.988 -10.808,-15.492 5.281,2.742 11.597,5.187 19.297,5.187 h 0.996 l 0.703,-0.672 c 1.961,-1.886 1.961,-5.113 1.961,-6.66 v -1.449 l -1.36,-0.637 c -4.578,-2.152 -8.894,-3.441 -13.101,-3.883 3.418,-2.464 8.242,-3.89 13.34,-3.89 4.324,0 8.14,1.093 9.961,2.851 l 0.82,0.801 1.172,-0.144 c 4.851,-0.575 8.562,0.804 10.398,3.714 1.414,2.254 1.438,5.168 0.028,7.801 -0.594,1.141 -0.575,2.465 0.058,3.641 0.625,1.168 1.789,1.988 3.02,2.144 l 1.632,0.164 c 2.352,0 4.442,-1 6.051,-2.894 2.239,-2.617 3.43,-6.973 3.176,-11.215 1.992,0.305 4.297,2.016 6.25,4.699 l 0.164,0.184 1.223,1.949 c 0.808,1.555 1.308,2.891 1.496,3.957 l 0.32,1.949 h 2.039 c 6.156,0 10.422,0.848 16.582,5.317 -1.179,0.496 -2.215,1.125 -3.023,1.859 l -0.41,0.348 c -0.735,0.625 -2.676,2.301 -1.262,4.722 l 0.144,0.227 c 0.93,1.215 2.903,2.301 6.028,3.957 1.086,0.57 2.258,1.195 3.191,1.766 -0.828,0.793 -1.765,1.785 -1.765,3.226 v 0.543 l 0.246,0.481 c 0.808,1.582 2.527,2.613 4.199,3.605 l 1.453,0.902 c -1.719,0.422 -3.23,1.305 -3.23,3.145 v 0.883 l 0.593,0.652 c 0.442,0.481 1.16,1.078 2.649,2.266 1.836,1.48 4.676,3.769 6.961,6.062 h -0.008 c -3.164,0 -5.461,0.789 -7.016,2.399 l -1.148,1.168 0.75,1.453 c 1.289,2.476 2.937,3.734 4.297,4.511 -0.91,0.309 -1.836,0.735 -2.61,1.477 l -0.281,0.266 -0.176,0.343 c -1.047,2.051 -0.05,4.231 1.004,6.539 0.742,1.622 1.574,3.411 1.633,5.071 l -0.098,-0.047 -0.898,-0.305 c -1.77,-0.535 -3.074,-0.062 -3.762,1.067 -0.926,1.519 -0.086,2.992 1.074,5.023 0.383,0.672 1.196,2.109 1.594,3.188 -2.012,-0.743 -3.926,-1.653 -5.93,-2.598 -4.695,-2.207 -9.539,-4.5 -15.671,-4.5 -0.938,0 -1.907,0.055 -2.871,0.168 l -0.95,0.109 -0.847,1.012 -0.86,1.527 c -1.113,2.25 -2.801,5.657 -8.586,6.125 l -1.441,-0.519 c -4.856,-3.324 -12.024,-6.856 -17.59,-6.856 -1.601,0 -3.047,0.293 -4.285,0.852 l -0.676,0.344 -0.715,0.468 -0.718,0.563 c -3.528,3.09 -5.188,8.488 -6.36,13.379 -0.144,0.566 -0.332,1.39 -0.539,2.347 -0.508,2.329 -1.719,7.766 -2.32,8.786 -1.672,2.668 -4.946,4.867 -8.379,7.207 -5.285,3.578 -11.262,7.636 -14.262,14.836 l -0.105,0.273 -0.364,0.984 -1.375,3.875 20.555,-2.882 3.442,-0.071 14.246,1.207 8.957,2.457 7.949,4.078 4.707,3.981 4.187,5.633 0.301,0.562 0.317,0.598 0.242,0.504 0.332,0.719 1.023,2.585 0.227,0.676 0.215,0.703 0.39,1.434 0.176,0.746 0.906,6.516 0.102,3.593 -0.012,0.602 c -0.058,1.445 0.449,2.504 1.641,3.336 v 0.047 l 1.75,0.98 2.195,1.282 1.594,1.031 1.387,1.023 0.679,0.547 0.871,0.785 0.575,0.555 0.761,0.824 0.168,0.192 0.418,0.523 2.113,-1.121 -1.957,1.348 0.372,0.527 2.21,-0.965 -2.023,1.246 0.371,0.582 2.227,-0.89 -2.09,1.113 0.82,1.754 0.051,0.152 0.262,0.777 0.09,0.286 0.144,0.613 0.098,0.433 0.144,0.915 0.117,1.332 v 0.246 0.922 l -0.039,0.41 -0.066,0.883 -0.027,0.277 -0.188,1.148 -0.098,0.633 c -0.136,0.535 -0.46,2.184 -0.402,3.465 v 0.07 l 0.031,0.961 0.008,0.317 0.051,0.921 0.117,1.18 0.027,0.184 0.188,1.125 0.051,0.234 0.293,1.172 0.086,0.305 -0.684,-0.606 c -2.695,-2.398 -5.742,-5.133 -9.246,-5.133 -4.707,-0.003 -8.059,4.426 -10.742,14.282 -1.321,-2.168 -3.371,-3.985 -5.637,-3.985 l -0.437,0.039 -0.571,0.09 -0.32,0.102 c -3.711,1.398 -6.641,5.558 -9.473,9.57 -0.859,1.211 -1.992,2.836 -3.086,4.141 l 0.301,-2.133 0.031,-0.516 0.02,-0.422 -0.02,-0.961 -0.046,-0.453 -0.09,-0.484 -0.086,-0.391 -0.176,-0.535 -0.188,-0.422 -0.273,-0.445 -0.254,-0.363 -0.469,-0.492 -0.398,-0.329 -0.527,-0.304 -0.469,-0.223 -0.57,-0.172 -0.489,-0.105 -0.515,-0.047 -1.399,0.133 -0.613,0.172 -0.508,0.167 -4.746,2.5 -0.652,0.434 1.062,2.113 -1.394,-1.886 -3.625,2.422 0.886,2.195 -1.172,-2.028 -0.253,0.137 c 0.199,-1.547 0.324,-3.707 -1.754,-5.711 l -0.547,-0.531 -0.774,-0.117 c -1.457,-0.223 -2.882,-0.332 -4.265,-0.332 -4.992,0 -8.672,1.387 -11.926,2.621 l 0.066,-0.649 c 0.032,-1.121 -0.398,-2.136 -1.09,-2.753 l -0.226,-0.176 c -1.172,-0.867 -2.656,-1.266 -4.231,-1.207 1.204,-1.883 2.168,-4.508 1.008,-8.059 l -0.117,-0.363 -0.684,-1.567 -0.195,-0.441 -0.293,-0.465 -0.312,-0.465 -0.313,-0.382 -0.183,-0.204 -0.239,-0.238 -1.746,1.617 1.516,-1.808 -0.617,-0.5 -3.047,-1.668 -1.699,-0.563 -0.469,-0.121 -0.293,-0.066 -0.598,-0.133 -0.137,-0.016 -0.64,-0.101 -0.754,-0.082 -1.309,-0.051 -2.871,0.312 -0.605,0.157 -0.93,0.297 -0.965,0.437 -0.547,0.289 -0.254,0.156 -0.46,0.313 -0.29,0.219 -0.39,0.32 -0.86,0.828 -0.382,0.434 -0.203,0.254 -0.278,0.406 -0.293,0.441 -0.398,0.715 c -0.496,0.899 -0.528,1.953 -0.059,2.887 1.004,2.051 3.926,2.59 7,3.16 l 0.141,0.027 c -1.379,1.84 -2.766,4.676 -0.766,9.512 0.863,3.293 5.11,5.566 10.434,8.418 6.648,3.562 14.082,7.551 15.183,13.387 -1.14,-0.239 -2.539,-0.657 -3.918,-1.059 -2.839,-0.836 -6.074,-1.793 -8.914,-1.793 -2.48,0 -4.433,0.727 -5.808,2.168 -1.035,1.09 -1.692,2.52 -1.953,4.324 -8.481,-5.812 -16.536,-8.289 -23.828,-7.343 l -0.422,0.093 c -3.633,1.149 -6.653,4.098 -10.164,7.516 -4.122,4.004 -8.723,8.488 -15,10.445 v -8.031 h -2.395 c -4.355,0 -8.555,0 -11.543,-0.586 4.949,-0.547 9.024,-2.406 11.328,-8.781 1.992,-6.137 -4.25,-9.774 -11.465,-13.992 -4.992,-2.914 -10.656,-6.219 -14.836,-10.828 l -1.445,-1.586 -1.766,1.242 c -1.828,1.285 -3.835,3.48 -5.617,5.426 -0.886,0.972 -2.058,2.261 -2.675,2.781 h -4.708 l 3.481,3.847 c 2.703,2.993 4.187,5.997 4.297,8.688 0.125,3.324 -1.301,6.285 -1.914,7.402 l -1.196,2.016 c -2.39,-0.981 -5.359,-1.543 -8.308,-1.543 -4.656,0 -7.918,1.375 -8.945,3.766 -0.293,0.683 -0.469,1.597 -0.207,2.664 l -1.778,-0.399 -0.75,-0.117 c -7.5,0 -15.996,0 -21.765,-4.484 l -1.907,-1.485 -1.496,1.867 c -4.781,5.954 -12.281,10.508 -19.121,11.614 l -0.75,0.121 -0.535,0.508 -0.688,0.64 c -1.804,-4.019 -5.054,-5.824 -10.156,-5.519 l 0.219,-0.782 c 0.301,-1.027 0.562,-1.914 0.562,-2.73 v -3.457 l -3.308,1.312 c -0.02,0.008 -2.547,0.973 -6.172,0.973 -2.156,0 -4.285,-0.344 -6.309,-1.019 l -0.379,-0.125 h -0.402 c -1.094,0 -2.18,0.082 -3.191,0.207 l 0.418,-1.539 -0.039,-0.438 c -1.106,-5.441 -5.871,-7.828 -9.356,-9.582 l -0.547,-0.269 c 1.133,-0.836 2.215,-1.739 3.184,-3.68 1.277,-2.172 -0.664,-4.735 -6.68,-10.188 l 0.164,-0.05 c 1.035,-0.348 2.043,-0.692 2.832,-1.028 3.43,-1.574 2.805,-3.765 2.532,-4.394 -1.18,-2.27 -2.786,-4.059 -4.344,-5.789 -1.606,-1.782 -3.137,-3.496 -3.977,-5.375 1.035,0.023 2.149,-0.243 3.242,-0.77 l 2.571,-1.219 -1.692,-2.226 -0.793,-1.125 c -2.703,-3.887 -4.949,-8.61 -7.285,-15.309 l 1.977,-0.258 0.086,-2.035 c 0,-4.031 -1.289,-6.89 -2.735,-9.695 l -0.207,-0.387 -0.32,-0.285 -2.227,-0.84 c -3.769,0 -7.628,6.738 -9.589,10.75 -1.536,3.156 -5.118,11.348 -5.118,19.18 0,19.098 2.754,22.515 4.571,24.769 l 0.656,1.532 c 0,2.136 -0.813,2.578 -3.383,3.644 -1.746,0.731 -3.914,1.641 -5.359,3.699 -2.727,4.52 -8.391,7.461 -14.207,7.461 -1.407,0 -2.715,-0.179 -3.918,-0.527 1.953,-0.918 3.816,-2.457 5.578,-5.766 1.363,-2.89 -0.07,-4.562 -0.754,-5.363 l -0.43,-0.719 v -2.32 h -2.39 l -1.836,-0.262 c -1.535,-0.359 -3.43,-0.359 -4.739,0.813 -2.902,2.09 -7.57,4.289 -12.175,4.289 -2.285,0 -4.348,-0.555 -6.145,-1.652 l -0.508,-2.047 0.879,2.156 1.797,-0.781 0.574,-0.289 0.649,-0.348 0.437,-0.266 0.723,-0.437 1.609,-1.203 0.571,-0.489 0.457,-0.425 0.554,-0.563 0.434,-0.469 0.469,-0.578 0.398,-0.519 0.442,-0.641 0.371,-0.586 0.379,-0.687 0.3,-0.606 0.254,-0.574 0.305,-0.746 0.266,-0.824 0.339,-1.344 -0.136,-2.301 -0.11,-0.289 -0.183,-0.363 -0.243,-0.465 -0.292,-0.406 -0.254,-0.344 -0.266,-0.262 -0.344,-0.34 -0.73,-0.515 -0.352,-0.18 -0.476,-0.195 -0.356,-0.106 -0.437,-0.101 -0.813,-0.067 -1.16,0.102 -0.41,0.082 -0.313,0.086 -0.754,0.265 -0.269,0.11 -1.867,1.027 1.152,2.043 -1.355,-1.906 -0.586,0.414 -0.325,0.246 -0.964,0.785 1.367,1.93 -1.633,-1.703 -0.254,0.234 1.453,1.863 -1.648,-1.691 -0.281,0.266 1.523,1.812 -1.77,-1.586 -0.168,0.164 -0.425,-2.023 -0.09,-0.891 c -0.305,-4.019 0.84,-8.754 4.863,-10.476 l 0.723,-0.043 0.676,0.043 c 2.91,0 3.543,-2.536 3.816,-3.625 l 0.574,-1.407 0.395,-0.187 0.418,-0.18 0.539,-0.191 0.457,-0.078 1.23,-0.024 0.672,0.047 3.313,0.442 0.82,0.054 c 1.23,0 2.344,-0.379 3.34,-1.117 l 0.215,-0.164 0.007,-0.008 0.071,-0.066 0.476,-0.461 0.532,-0.696 0.144,-0.265 0.234,-0.59 0.11,-0.437 0.039,-0.727 -0.031,-0.316 -0.125,-0.606 -0.078,-0.25 -0.227,-0.516 -0.156,-0.3 -0.379,-0.578 -0.188,-0.231 -0.359,-0.414 -1.242,-1.227 -0.598,-0.39 -1.16,-0.453 -1.016,-0.219 -0.343,-0.047 -0.915,-0.059 -0.558,0.004 -0.586,0.039 -0.828,0.09 0.262,2.305 -0.54,-2.27 0.012,2.344 -0.344,-2.293 -0.308,0.047 c 0.113,-1.105 0.437,-2.316 1.121,-3.058 1.797,-1.954 4.211,-3.055 7.141,-3.258 l 0.984,-0.047 c 1.816,0 3.328,-1 4.043,-2.668 0.898,-2.086 0.422,-4.867 -1.082,-6.313 l -0.356,-0.285 c -2.105,-1.355 -4.05,-2.422 -5.933,-3.445 -3.637,-1.992 -6.543,-3.574 -8.852,-6.418 4.016,-0.047 5.449,-2.348 5.449,-4.32 0,-3.157 -1.382,-5.067 -2.925,-6.598 1.726,-0.09 3.035,-0.773 3.883,-2.031 2.433,-2.688 -0.692,-5.856 -3.211,-8.418 -1.036,-1.051 -2.364,-2.399 -3.262,-3.633 1.055,0.164 2.109,0.258 3.125,0.258 4.797,0 7.922,-2.364 8.789,-6.66 l 0.059,-0.457 c 0,-2.286 -0.782,-4.59 -2.176,-6.7 l 2.539,0.231 c 2.554,0 3.828,-1.094 4.441,-2.11 1.629,-2.14 -0.664,-4.308 -2.695,-6.222 -0.789,-0.742 -1.746,-1.645 -2.578,-2.582 2.082,0.433 4.328,0.406 6.672,-0.313 l 0.984,-0.304 0.438,-0.895 c 0.902,-1.797 0.773,-3.746 -0.372,-5.496 -1.421,-2.227 -4.461,-3.961 -7.175,-5.066 1.964,-0.77 4.675,-1.184 7.871,-1.184 5.156,0 10.801,1.09 14.383,2.777 l 2.707,1.27 0.683,-2.828 c 1.641,-6.766 8.485,-8.606 12.578,-9.711 2.239,-0.598 4.325,-1.16 4.325,-3.293 v -0.992 l -0.743,-0.68 c -3.55,-3.266 -6.66,-9.926 -5.828,-12.512 l 0.086,-0.433 c 0.781,-6.797 -1.101,-13.2 -5.125,-17.551 -3.738,-4.039 -9.055,-6.172 -15.332,-6.172 -7.766,0 -17.09,1.172 -20.351,10.238 -1.778,5.262 -4.875,5.731 -9.239,2.68 l -1.164,-0.809 -1.289,0.606 c -1.172,0.551 -2.469,0.828 -3.848,0.828 -4.285,0 -9.031,-2.734 -11.746,-6.43 4.532,-0.582 10.469,-2.871 12.286,-7.113 0.898,-2.113 1.125,-5.445 -2.918,-9.352 l -0.707,-0.683 h -0.997 c -5.679,0 -9.546,-3.336 -11.14,-9.492 3.308,0.699 6.269,1.058 8.828,1.058 9.148,0 10.723,-4.433 10.984,-6.332 0.696,-5.058 -4.578,-10.547 -12.703,-13.723 3.145,-2.179 5.86,-3.183 8.516,-3.183 2.937,0 5.93,1.16 9.726,2.613 0.938,0.367 1.914,0.738 2.93,1.121 2.024,0.961 3.856,0.625 5.012,0.231 l 0.691,-0.231 c 2.813,-1.176 3.738,-0.258 5.43,3.957 0.703,1.758 1.308,3.274 2.527,4.196 0.754,0.679 1.887,1.086 3.125,1.086 1.145,0 2.16,-0.36 2.805,-0.665 1.113,-0.503 1.887,-1.691 2.101,-2.308 l 0.079,-0.266 0.23,-1.004 0.149,-1.195 0.007,-1.102 -0.093,-1.042 -0.039,-0.157 -0.149,-0.742 -0.234,-0.812 -0.086,-0.254 -0.102,-0.278 -0.066,-0.332 -0.149,-0.218 -0.066,-0.129 0.586,-2.078 -0.266,2.316 0.285,0.035 0.75,-2.207 -0.437,2.301 0.867,-2.18 -0.601,2.254 0.996,0.387 1.343,-1.934 -1.101,2.063 1.094,0.679" /><path
         id="path104"
         style="fill:url(#radialGradient102);fill-opacity:1;fill-rule:evenodd;stroke:none"
         d="m 536.621,605.07 v 0" /><path
         id="path116"
         style="fill:url(#radialGradient114);fill-opacity:1;fill-rule:evenodd;stroke:none"
         d="m 524.133,607.273 v 0" /><path
         id="path128"
         style="fill:url(#radialGradient126);fill-opacity:1;fill-rule:evenodd;stroke:none"
         d="m 551.621,538.348 v 0" /><path
         id="path140"
         style="fill:url(#radialGradient138);fill-opacity:1;fill-rule:evenodd;stroke:none"
         d="m 578.445,622.184 v 0" /><path
         id="path152"
         style="fill:url(#radialGradient150);fill-opacity:1;fill-rule:evenodd;stroke:none"
         d="m 457.031,423.27 v -0.278 h 0.039 l 0.371,0.223 -0.41,0.055" /><path
         id="path164"
         style="fill:url(#radialGradient162);fill-opacity:1;fill-rule:evenodd;stroke:none"
         d="m 280.43,591.586 v 0" /><path
         id="path176"
         style="fill:url(#radialGradient174);fill-opacity:1;fill-rule:evenodd;stroke:none"
         d="m 265.371,629.191 v 0" /><path
         id="path188"
         style="fill:url(#radialGradient186);fill-opacity:1;fill-rule:evenodd;stroke:none"
         d="m 276.211,591.957 v 0" /><path
         id="path190"
         style="fill:#231f20;fill-opacity:1;fill-rule:evenodd;stroke:none"
         d="m 629.063,454.324 c -2.161,-1.168 -4.778,-2.152 -8.633,-2.301 -4.629,-0.203 -9.59,1.473 -11.731,0.313 1.262,-4.875 14.16,-3.652 21.887,-3.652 -6.477,-6.219 -14.168,-6.219 -23.125,-5.024 0,0 0.184,-1.277 2.434,-2.277 4.871,-1.899 11.226,-2.93 15.496,-3.949 -3.782,-1.204 -7.723,-3.817 -20.625,-1.204 1.257,-3.82 11.652,-7.476 16.843,-8.847 -3.941,-2.43 -8.543,-3.637 -11.648,-3.637 -6.277,0 -24.832,8.223 -30.586,-4.016 -0.488,-1.042 -0.371,-1.816 -0.145,-2.375 l 1.114,-2.234 c 0.64,-1.308 -0.324,-3.426 -0.481,-3.781 -1.914,-4.176 -8.758,-3.856 -12.312,-1.481 -0.617,0.422 -1.457,1.047 -2.199,2.758 -0.789,1.801 -1.204,3.754 0.168,5.52 l 2,0.312 c 8.503,-1.066 4.636,8.813 -2.684,6.504 -2.219,-1.058 -3.613,-3.211 -6.484,-3.707 -0.383,-0.074 -1.489,-0.074 -2.278,0.863 -2.527,3.286 -2.453,10.821 0.899,11.563 1.054,0.176 1.672,-0.543 1.828,-0.742 2.762,-3.387 9.82,0.293 7.91,4.625 l -1.34,2.199 c -2.219,2.226 -7.988,0.836 -5.762,6.34 1.258,2.59 3.954,7.613 7.715,7.613 3.235,0 3.645,-3.723 5.215,-6.246 0.774,-1.215 3.899,-6.234 7.688,-6.234 10.386,0 18.086,14.91 14.316,24.945 -5.168,13.687 -22.004,8.683 -34.934,11.066 -33.086,4.977 -42.226,24.453 -62.429,48.957 l -1.887,1.496 c -1.875,0.801 -3.113,0.618 -5.391,-0.546 -15.382,-7.45 -27.031,-13.688 -43.691,-21.145 -2.695,-1.191 -5.195,-2.414 -9.16,-3.801 2.707,3.801 7.695,10.219 10.398,13.848 -10.386,-4.848 -18.086,-12.461 -32.246,-18.719 -1.238,0 -2.691,0 -2.691,1.242 1.453,3.629 3.941,5.016 6.465,12.477 -1.262,1.187 -1.875,-0.027 -3.774,-1.219 -14.148,-10.07 -22.019,-18.711 -34.93,-16.305 0,-2.406 5.196,-7.425 12.911,-10.039 -3.75,-3.625 -16.692,-2.41 -23.118,1.387 -1.257,-6.234 10.207,-10.016 12.914,-11.266 -6.488,-5.011 -19.367,0 -25.812,2.446 -1.27,0 0,-1.196 0,-1.196 3.75,-7.488 19.324,-8.683 25.812,-8.683 -10.39,-5.016 -20.625,-7.617 -32.277,-1.363 -2.695,-3.653 10.215,-11.102 12.91,-12.473 0,-2.445 -14.172,-1.215 -23.3,6.219 -1.25,-3.633 10.39,-11.094 11.66,-12.461 -5.078,-4.922 -15.774,-0.473 -19.414,1.035 -0.989,0.406 -1.692,0.801 -2.063,0.867 l -0.406,-0.535 c 1.277,-4.996 7.715,-7.598 12.93,-10.027 -10.422,-5.024 -18.11,1.214 -22.043,5.031 -2.493,0 -11.653,-8.848 -11.653,-10.055 -1.25,-2.426 0,-5.027 -1.25,-8.664 -1.082,-2.242 -3.101,-7.219 -4.558,-7.613 l -1.368,0.496 c -1.242,1.426 0.411,7.273 -1.796,8.324 -11.622,5.031 -10.379,-6.246 -15.403,-10.047 -5.191,-2.41 -12.898,6.231 -12.898,8.84 0,1.051 0.945,4.086 3.719,2.301 l 1.449,-0.957 1.519,0.039 c 2.278,0.598 2.278,2.48 2.278,3.625 0,3.656 -1.258,6.234 -6.453,4.863 -1.118,-0.523 -1.204,-2.308 -3.235,-2.629 l -1.933,0.192 c -3.77,3.808 -3.77,12.48 -1.258,13.695 3.914,1.219 5.176,-3.648 8.941,-2.41 2.68,1.195 2.68,8.656 0,9.871 -2.332,1.269 -5.879,-2.945 -8.367,-0.68 l -0.234,1.856 c 1.511,4.75 5.019,10.066 7.343,10.066 3.41,0 3.868,-6.476 8.106,-9.898 0.664,-0.532 4.551,-2.778 5.73,-3.332 8.324,-3.899 17.973,-2.575 23.614,-0.457 23.312,10.054 12.902,26.16 20.617,29.968 16.816,7.43 9.133,14.907 15.554,18.711 1.262,-1.242 1.262,-7.453 5.071,-8.851 1.386,7.609 2.656,12.48 10.359,10.039 2.492,-3.801 5.195,-7.426 8.957,-10.039 1.438,0 1.438,8.851 1.438,12.48 6.422,-4.871 16.66,-4.871 15.398,-2.441 -1.23,1.222 -6.445,7.461 -6.445,10.07 6.445,-3.828 16.836,-1.394 15.422,1.219 -1.289,1.187 -2.512,2.41 -2.512,3.629 1.223,2.582 6.445,2.582 8.934,2.582 0,5.023 -5.008,11.262 0,17.504 3.957,-2.617 5.226,-5.024 10.39,-5.024 0,3.649 -1.25,8.645 1.262,12.45 11.648,0 20.625,0 28.496,1.246 16.66,3.8 29.57,10.007 47.644,13.668 5.208,1.195 8.958,2.582 14.141,3.804 7.149,0 14.953,-6.129 18.637,-11.789 1.012,-1.586 4.246,-7.644 5.457,-9.195 4.512,-5.777 9.805,-11.25 15.879,-15.203 5.207,-3.805 10.383,-8.672 12.898,-14.891 2.617,-4.129 3.508,-9.387 5.664,-14.281 1.106,-2.508 3.828,-6.707 6.907,-8.32 13.281,-6.743 25.207,9.789 31.328,3.89 l 1.035,-1.562 0.898,-1.535 c 1.133,-0.731 2,-0.731 2,-0.731 8.969,0 15.41,1.234 23.117,5.043 1.426,0 -10.207,-13.695 -23.117,-15.094 2.524,-2.383 20.625,1.399 24.543,3.836 -2.656,-7.469 -12.859,-12.48 -23.281,-11.258 l -0.762,0.133 c 0,0 0.254,-0.972 2.571,-1.808 4.878,-1.047 14.109,-1.969 17.554,-1.969 0,-2.594 -19.363,-2.594 -19.363,-6.227 15.43,2.438 16.848,-2.613 23.281,0 1.504,-1.554 -1.035,-3.937 -4.179,-5.621 z m -26.739,-33.851 c 0.156,-1.852 0.489,-5.887 -4.011,-7.977 0,6.211 0,7.434 -5.208,11.25 -1.113,1.098 5.157,0.203 8.333,-1.937 z m -51.66,-14.219 c 3.77,0 7.688,0 10.203,2.406 1.438,-1.195 2.696,-2.406 3.969,-3.625 -2.531,-2.582 -12.922,-2.582 -14.172,1.219 z m -9.133,39.84 c 1.418,2.59 10.383,8.828 15.559,5.027 -1.231,-1.23 -2.656,-6.246 -2.656,-6.246 -5.032,2.586 -7.704,2.586 -12.903,1.219 z m -20.625,17.484 c 2.688,-1.195 5.813,-5.133 6.457,-6.246 0.899,-1.555 1.192,-4.719 -1.258,-6.211 -5.199,-2.437 -15.402,-12.473 -5.199,-23.738 -14.121,2.601 -10.203,12.48 -6.433,21.301 0.632,1.464 -0.418,1.879 -1.282,1.207 -8.914,-8.664 -6.406,-17.481 -10.378,-24.938 -5,6.227 -2.52,16.274 1.464,21.141 0,0 -0.382,0.613 -1.464,0 -6.418,-3.629 -10.215,-14.914 -12.911,-21.141 -4.621,4.652 -0.714,16.66 -0.089,17.512 0,0 0.097,0.781 -1.153,0 -6.453,-5.031 -8.941,-12.481 -11.617,-19.93 -5.063,3.649 -3.781,9.875 -3.781,14.899 -3.821,-2.371 -0.227,-14.164 -9.492,-17.254 l -1.543,0.129 c -1.543,1.101 -0.215,2.261 0.644,3.437 2.039,2.75 2.527,5.594 0.957,7.867 l -3.594,3.246 c -4.726,3.993 -9.453,5.004 -14.023,5.004 -4.941,-0.672 -11.668,-4.875 -15.559,-11.109 -1.14,-1.547 -3.75,-2.211 -6.504,-1.371 -5.171,1.371 -10.183,10.051 -5.171,13.844 2.703,1.238 3.933,-2.579 7.871,-1.364 2.207,1.188 2.476,7.965 -1.789,8.852 -1.27,0.246 -2.325,0.199 -3.743,-0.317 -2.371,-0.875 -3.613,-3.347 -5.281,-1.91 l -1.015,1.672 c -0.821,3.77 0.351,11.629 5.363,11.883 1.121,0.012 1.726,-0.973 1.953,-1.344 1.016,-1.746 2.039,-2.562 3.094,-2.562 5.508,0 5.41,3.679 4.465,7.027 -0.168,0.563 -0.618,1.996 -1.915,2.031 -2.675,0.278 -6.503,-1.215 -7.558,0.977 -2.707,3.644 2.488,9.879 6.426,9.879 5.015,0 3.804,-6.235 8.972,-7.457 2.52,-1.227 7.051,-1.52 10.391,-3.785 1.211,-0.805 2.082,-1.176 2.519,-2.426 2.5,-11.262 19.336,-10.047 28.313,-8.676 18.074,2.43 28.465,14.887 15.555,23.531 -7.676,5.051 -19.336,1.399 -28.477,2.621 -14.16,2.43 -16.672,8.664 -12.891,18.711 1.133,2.602 7.481,4.102 9.141,5.016 1.672,0.918 8.945,6.242 8.945,3.633 -2.285,-3.317 -3.515,-8.817 -5.769,-13.551 l -0.473,-1.949 c 0.625,-0.996 1.633,-1.188 2.492,-0.602 7.696,7.453 7.696,9.863 17.911,16.102 3.933,-8.649 14.336,-8.649 16.816,0 6.492,-6.239 14.746,-14.461 14.18,-16.102 -1.282,-5.019 -3.77,-12.48 -3.77,-18.711 0.625,-4.808 6.399,-6.906 10.203,-8.828 z m -74.695,-39.832 c 3.75,3.637 5.019,6.238 6.434,9.871 0.976,1.625 3.46,-0.265 5.031,-1.207 3.945,-2.426 -7.715,-9.875 -11.465,-8.664 z m -40.148,47.281 c 2.699,3.828 9.14,6.211 11.652,2.578 -0.82,-1.25 -1.199,-3.441 -2.246,-4.73 l -1.504,-0.281 c -2.676,1.222 -5.203,2.433 -7.902,2.433 z m -136.208,-51.16 c 1.93,-0.496 3.668,-3.957 3.778,-5.465 l -0.653,-1.125 c -2.05,-2.004 -10.214,-1.929 -12.558,-0.781 3.609,1.168 6.219,3.598 8.672,7.012 z m -4.945,38.356 c -1.347,0.168 -4.539,1.371 -8.445,0.332 2.598,4.84 7.375,5.004 11.25,5.023 l 0.39,-0.312 c -0.167,-0.957 -1.066,-2.004 -2.031,-3.809 z m 48.547,49.015 -0.586,1.61 c -0.516,0.476 -0.976,0.511 -2.117,-0.414 -11.633,-7.454 -19.348,-4.848 -20.781,-4.848 12.898,7.461 10.379,8.648 16.863,18.695 -2.52,3.629 -10.391,-5.023 -15.43,-3.797 2.305,1.106 3.535,3.356 5.789,7.454 l 1.321,2.914 c 2.636,6.086 7.043,7.105 7.043,7.105 -2.688,2.426 -16.829,-7.437 -16.829,-7.437 3.848,12.242 10.149,14.808 11.551,20.781 l 0.051,1.105 -0.273,0.387 -1.512,-0.551 c -8.859,-9.304 -15.149,-10.637 -21.469,-10.637 1.418,6.11 21.399,9.915 23.203,20.774 l -0.301,0.703 c -1.367,0.133 -3.996,-4.098 -8.574,-5.219 -3.933,-1.199 -9.148,-1.199 -10.39,-1.199 5.195,6.242 7.714,7.438 12.91,12.481 -5.196,0 -11.668,-2.614 -16.848,-2.614 l -0.332,0.938 0.852,0.836 c 7.734,5.808 16.328,4.629 16.328,12.078 0,2.133 -0.977,4.258 -3.02,5.672 l -2.019,0.566 c -4.168,0.035 -11.68,0.422 -10.364,4.867 7.688,-2.437 14.122,1.367 11.45,8.821 -2.258,4.527 -6.703,3.859 -11.34,2.789 -1.543,-0.489 -2.18,-0.004 -2.442,0.207 -3.261,2.664 -0.847,8.133 1.512,9.258 l 1.731,0.636 c 3.046,0.977 5.402,-3.195 7.578,0 l 0.566,1.906 c 0.36,7.239 -7.82,4.059 -7.82,7.547 1.258,5.028 7.715,7.614 11.648,7.614 3.504,0 -1.855,-6.625 4.824,-7.512 1.083,-0.145 2.879,0.672 4.122,1.926 4.472,4.523 -2.52,5.461 -2.493,6.804 0.09,4.579 9.551,3.817 12.305,1.817 1.391,-0.762 3.059,-3.297 1.176,-5.039 -2.121,-1.961 -4.067,-4.043 -5.293,-7.629 -0.805,-2.145 -3.984,-29.875 0.269,-41.586 0.637,-1.609 1.086,-1.996 1.399,-2.297 2.473,-2.363 5.832,-1.66 8.066,-3.977 3.914,-3.628 14.309,-21.132 12.879,-22.343 -2.488,-3.801 -6.441,-6.242 -8.965,-8.825 0,-2.414 3.977,-2.414 6.477,-3.648 1.238,0 -7.688,-8.812 -12.902,-11.238 0,0 0,0 0,-1.223 3.957,-3.801 8.949,-1.215 12.902,-3.801 -2.5,-6.238 -3.953,-6.238 -7.688,-12.476 1.211,-2.41 14.114,1.215 16.661,0 1.386,-9.559 -19.188,-11.16 -21.688,0.019 z M 269.395,631.91 c 3.918,1.203 10.363,-1.215 11.621,-2.426 0.214,-0.086 -0.684,-1.039 -1.453,-2.203 -1.067,-1.625 -2.168,-3.508 -2.485,-2.843 -3.765,7.472 -10.223,6.257 -7.683,7.472 z m 25.253,5.957 c -1.101,1.863 -2.375,3.039 -4.675,4.09 5.191,1.195 10.379,0 12.898,-5.047 -1.98,0 -3.945,-1.496 -6.016,-0.945 -1.101,0.289 -1.757,1.14 -2.207,1.902 z m 63.75,-48.379 c 3.957,-2.437 5.215,-6.246 6.473,-8.679 v -5.012 c 0,-1.219 -2.516,-1.219 -3.953,-1.219 -15.383,-6.238 -10.215,-22.5 -29.551,-32.39 h -1.277 c 12.93,11.253 11.48,34.828 28.308,47.3 z m -1.23,2.606 c -11.633,-7.477 -11.633,-18.711 -24.57,-16.297 l -0.227,0.828 c 14.348,11.98 13.359,19.18 22.141,22.902 0,-2.425 1.386,-5.039 2.656,-7.433 z m 0,21.105 c -1.27,-3.625 -1.27,-5.023 -3.945,-9.867 -10.203,-2.609 -7.688,-13.844 -20.625,-16.281 -1.348,-0.223 -2.118,-0.086 -2.508,0 2.508,14.914 16.68,23.715 27.078,26.148 z m -19.387,-0.793 c 4.016,4.59 12.043,7.563 15.532,9.074 l 1.816,0.536 c 2.039,-0.203 2.137,-1.465 3.269,-2.578 l 0.34,-2.25 c -0.293,-1.375 -0.816,-1.676 -1.07,-1.809 -3.945,-2.043 -10.195,-1.129 -18.605,-3.375 -1.25,-0.465 -1.727,-0.121 -1.282,0.402 z m 2.532,13.274 c 3.972,2.586 7.695,3.804 12.91,5.015 v -5.015 c -3.782,0 -8.938,-1.242 -14.16,-2.438 -1.766,-0.375 0.097,1.848 1.25,2.438 z m 16.855,13.668 c -1.27,-1.219 -2.656,-3.633 -3.945,-4.848 -3.782,0 -7.688,1.215 -11.653,3.629 10.403,7.457 16.828,2.609 15.598,1.219 z m 12.898,1.39 c -1.257,-1.39 -2.703,2.414 -9.148,0 -1.238,0 -2.52,0 -5.02,2.414 -2.058,2.211 -2.675,1.243 -5.195,5.043 7.695,0 14.168,0 19.363,-7.457 z m 12.914,-3.828 h -7.714 c -2.676,5.047 -6.457,10.067 -7.903,16.289 10.403,-2.574 15.617,-11.242 15.617,-16.289 z m 12.872,6.242 c -1.223,-3.804 -2.668,-6.242 -3.926,-10.039 -0.117,-0.929 -1.262,1.387 -5.188,2.602 -3.758,7.437 -5.05,12.48 -6.465,21.129 7.879,-5.02 11.653,-8.649 15.579,-13.692 z m 18.113,7.473 3.144,0.207 3.313,-0.207 c 0,-1.23 -0.637,-1.715 -1.445,-2.43 -6.465,-5.043 -12.914,-11.285 -16.664,-17.5 h -6.461 c 1.277,7.434 5.203,18.7 18.113,19.93 z m 4.48,-9.371 c 1.953,0.68 9.653,2.734 11.067,2.758 4.258,0.062 8.84,-1.754 12.746,-0.86 1.121,0.297 1.258,0 1.258,0 -2.5,-3.804 -6.465,-2.414 -12.864,-3.804 -10.23,-1.219 -12.937,-3.633 -19.363,-11.082 -2.527,0 -2.527,1.218 -3.777,1.218 2.761,7.219 5.593,9.903 10.933,11.77 z m 26.328,-3.125 c -1.179,-3.399 -3.445,-8.012 -6.968,-8.59 l -2.102,-0.285 c -5.808,-0.848 -10.73,-0.137 -16.726,-4.816 -1.262,0 -1.262,1.242 -2.524,0 -1.25,-1.196 -4.558,1.875 -3.941,2.433 12.918,12.477 19.351,10.039 31.004,12.477 0,0 0,-1.219 1.257,-1.219 z m 0,-16.082 -1.257,-1.395 c -5.176,-2.433 -8.973,1.395 -14.153,-1.214 -1.343,-0.961 -1.258,1.214 -2.515,2.609 -1.418,0 -4.328,1.195 -3.938,1.195 7.742,3.629 14.141,5.024 21.863,-1.195 z M 430.652,588.27 c -2.547,6.218 -6.504,11.257 -11.675,15.062 7.871,1.195 7.871,2.434 7.871,2.434 3.804,0 8.972,-2.434 11.492,-7.457 3.918,-13.692 1.418,-21.293 6.433,-41.207 -7.722,1.195 -10.23,22.519 -14.121,31.168 z m -15.449,7.453 c -1.238,0 1.25,5 1.25,5 1.262,1.242 2.524,0 3.969,-1.196 12.879,-11.257 6.426,-32.382 19.336,-43.664 1.258,-2.422 -7.895,0 -10.395,3.821 -7.683,11.089 -3.933,19.937 -14.16,36.039 z m -7.691,-9.895 c 1.25,0 1.25,0 2.508,1.223 1.269,1.219 2.492,5.043 2.492,3.804 5.203,-5.027 9.168,-15.058 9.168,-24.949 2.468,-11.242 7.683,-15.043 6.425,-15.043 -3.957,1.215 -7.683,3.801 -10.39,6.239 -2.512,5 -2.512,13.671 -10.203,28.726 z m -9.16,-6.207 c -1.223,0 5.222,2.434 6.461,3.621 3.949,-6.226 6.476,-14.902 6.476,-22.336 2.676,-7.465 0,-16.277 -1.269,-22.523 -8.965,7.43 -5.207,19.914 -7.707,29.957 -1.258,3.828 -2.672,7.457 -3.961,11.281 z m -33.481,36.192 c 0,1.199 -1.258,4.839 2.492,6.234 1.446,0 2.703,1.195 3.938,2.391 1.289,0 2.527,-2.391 3.965,-3.786 -1.438,-3.64 -5.2,-6.254 -3.965,-9.886 0,0 1.289,-1.192 2.527,-1.192 2.664,1.192 5.188,2.43 6.445,6.239 h 1.415 c 0,0 1.292,0 1.292,-1.415 0,-1.199 -1.292,-3.632 -1.292,-4.824 -1.415,-2.609 -5.196,-3.808 -6.422,-5.047 -1.438,-1.195 -3.965,-1.195 -3.965,-2.562 1.289,-2.438 2.527,-3.656 3.965,-4.863 1.226,-1.379 2.5,0 3.75,0 0,-1.379 -1.25,-2.614 -1.25,-5.008 -1.274,0 -3.938,1.195 -5.176,1.195 -1.289,1.199 -2.524,2.434 -2.524,3.813 0,1.207 0,3.621 -1.257,4.863 h -3.938 c -1.258,-1.242 -1.258,-1.242 -1.258,-2.438 0,-1.218 0,-2.425 1.258,-2.425 2.492,0 2.492,-2.614 3.938,-3.813 1.257,-2.434 5.019,-2.434 2.492,-5.019 -1.235,0 -1.235,-1.219 -2.492,-2.442 -1.446,0 -1.446,1.223 -1.446,2.442 -2.492,3.824 -5.008,7.453 -7.683,12.453 1.238,5.043 3.933,10.043 5.191,15.09 z m 23.281,1.199 c -3.933,1.207 -15.562,12.472 -16.851,12.472 0,0 -1.008,-4.148 -6.008,-4.925 -0.52,-0.079 -1.848,-0.364 -2.844,0.468 -2.84,2.086 -3.562,7.903 -0.554,11.387 0.46,0.695 2.941,1.195 4.023,1.164 2.043,-0.051 3.762,-1.187 5.383,-4.465 5.191,0 11.679,-1.203 15.437,-3.629 2.696,0 3.926,-2.613 3.926,-5.046 -1.23,-2.391 -1.23,-6.219 -2.512,-7.426 z m 23.137,-1.199 c -3.777,1.199 -15.437,-3.809 -20.625,0 1.262,3.625 5.188,9.867 10.391,9.867 3.758,1.191 10.234,-3.633 11.457,-7.461 0,0 1.453,0 2.691,1.219 2.512,0 5.219,0 7.707,-2.426 1.238,-1.199 1.238,-2.614 0,-5.008 -1.23,-1.238 -6.457,-6.238 -8.945,-1.238 -1.453,1.238 0,3.632 -2.676,5.047 z m -23.137,-15.09 c 1.282,-2.414 2.512,-3.621 0,-5 0,0 -1.414,-1.235 -1.414,0 l -3.758,3.804 c -2.707,2.438 -5.214,0 -7.714,0 0,1.196 0,1.196 0,2.438 6.422,1.367 8.953,6.211 11.472,11.234 h 1.414 c 1.282,-1.195 -3.933,-7.433 0,-12.476 z m -12.886,-27.34 c 2.5,3.633 5.007,16.105 6.422,13.668 5.05,-10.035 -6.422,-22.52 -9.098,-21.145 -2.524,0 -5.227,14.903 2.676,22.364 0,1.218 1.226,0 1.226,0 -1.226,-5.028 -2.664,-9.887 -2.664,-14.887 z m 20.586,19.906 c -1.223,0 -1.223,0 -2.668,-1.195 0,-3.824 -10.204,-1.239 -11.496,0 v 5.008 c 1.292,1.207 2.531,-3.813 5.05,-3.813 2.696,-1.195 2.696,0 5.188,2.434 1.258,0 0,1.379 0,1.379 -2.492,3.621 -3.774,9.863 -1.262,14.902 1.262,0 2.52,0 2.52,0 2.668,-2.43 0,-7.477 2.668,-8.672 1.277,-1.367 2.5,-2.609 3.789,-2.609 3.933,1.242 1.414,5.043 2.672,8.851 1.261,1.192 3.75,3.625 7.707,3.625 0,-1.195 0,-2.433 1.269,-3.625 0,-1.398 3.914,-2.609 1.223,-3.808 -2.492,-3.801 -3.75,-8.664 -5,-13.672 -2.699,-3.824 -12.883,-7.477 -20.774,-12.473 -1.269,1.188 0,3.621 -1.269,7.43 2.683,0 5.195,0 7.715,1.219 1.445,0 5.168,-1.219 6.457,1.218 0,2.606 -1.289,5 -3.789,3.801 z m -73.633,-68.57 c 14.363,10.043 18.094,19.91 28.484,31.144 0,-5 0,-13.675 -5.168,-21.101 -5.222,-7.617 -18.125,-8.852 -23.316,-10.043 z m 37.461,-14.891 c -2.512,-2.609 -3.782,-2.609 -6.457,-7.629 0,0 -3.782,10.035 -1.25,15.059 1.25,1.226 3.925,3.656 5.195,6.238 1.23,-3.801 1.23,-10.039 2.512,-13.668 z m -2.512,19.91 c -1.27,-6.242 -15.598,-21.304 -30.996,-18.691 37.441,22.34 21.836,41.031 30.996,54.859 2.512,1.239 3.75,4.867 7.703,4.867 0,-4.867 3.938,-7.429 2.492,-9.867 -3.75,-7.465 -8.965,-22.523 -10.195,-31.168 z m 12.898,-31.168 c -7.711,7.43 -9.148,24.926 -9.148,34.817 1.437,6.218 3.953,20.054 7.891,26.297 0,0 0,-1.387 1.257,-1.387 3.762,0 3.762,1.387 7.7,3.805 0,-23.719 -14.153,-19.914 -7.7,-63.532 z m 12.914,5.016 c -9.152,1.223 -11.679,13.672 -9.152,28.559 1.438,11.289 7.86,18.718 6.445,32.386 1.415,0 3.946,3.809 3.946,6.242 8.965,-18.695 -8.953,-42.253 6.445,-57.316 -8.976,-2.41 -11.648,8.824 -11.648,6.238 -1.25,-5.019 1.257,-11.261 3.964,-16.109 z m 16.661,19.91 c -6.457,5.024 -7.715,7.457 -10.207,13.695 -1.282,11.239 3.75,22.493 -1.282,33.582 0,1.395 -2.683,3.805 0,3.805 2.512,1.219 5.032,2.438 6.477,3.805 5.012,-5 5.012,-21.281 5.012,-26.305 -1.289,-11.078 -3.789,-16.121 0,-28.582 z m 47.808,70.992 c 0,-1.199 0,-1.199 -1.238,-1.199 -1.438,0 -3.953,1.199 -5.195,6.238 -1.258,5 -6.473,8.649 -11.653,10.047 1.289,2.43 0,4.824 0,7.438 3.938,1.207 7.688,1.207 10.395,-1.199 3.758,-2.614 1.258,-8.848 6.453,-18.711 0,-1.379 1.238,-1.379 1.238,-2.614 z m 1.281,-9.871 1.231,1.211 c 6.457,-13.66 22.019,-15.055 36.211,-12.445 25.793,3.633 60.558,17.472 82.566,17.472 7.7,0 25.805,-3.804 25.805,-15.058 0,-7.457 -2.656,-11.266 -7.871,-16.113 -7.734,-5.02 -27.063,-6.243 -34.758,-6.243 -5.676,0 -21.34,0 -27.703,5.086 -0.883,0.696 -4.238,3.411 -5.285,3.825 -3.672,1.461 -7.156,2.179 -12.141,2.179 -18.125,0 -38.719,-9.867 -54.14,-9.867 -2.684,0 -5.196,22.352 -3.915,29.953 z m 61.973,12.485 c 0,-1.379 -19.355,-7.614 -27.226,-7.614 -14.161,0 -16.668,6.235 -16.668,12.477 -1.243,7.609 12.91,18.687 21.851,13.848 7.735,-5.047 12.91,-13.848 22.043,-18.711 z m -50.332,22.336 c 7.695,7.433 21.836,11.257 21.836,18.691 1.199,9.519 -9.121,10.777 -10.227,11.266 3.801,2.429 12.942,-1.2 15.43,-6.243 1.25,-1.195 1.25,8.672 -1.238,13.692 0,0 1.008,0.027 2.715,-0.989 10.156,-7.335 9.992,-16.835 6.23,-23.945 -0.383,-0.965 1.641,-2.676 2.696,-1.215 4.863,9.774 17.238,8.723 26.308,12.16 l 1.152,0.243 0.832,-1.141 c -2.328,-1.117 -3.71,-3.422 -4.894,-4.734 l -0.188,-0.832 c 0.332,-0.676 1.399,-0.676 2.571,-0.676 16.679,0 25.808,7.437 27.07,6.242 0,-1.219 -2.695,-7.457 -27.07,-13.691 -5.203,-7.614 3.769,-13.868 2.511,-15.067 -6.457,-1.195 -10.363,2.614 -10.363,8.848 0,1.051 0,1.176 -0.859,1.195 l -0.965,-0.707 c -6.445,-8.793 5.977,-20.633 14.703,-23.008 0,0 0,0 0,-1.218 0,0 -2.027,-0.364 -3.75,0 -26.219,4.863 -20.976,24.824 -42.937,23.89 -0.633,-0.019 -2.364,-0.07 -3.543,-0.508 -6.477,-2.023 -15.696,-9.062 -18.02,-17.164 -1.262,-7.425 3.75,-16.257 10.188,-18.699 18.101,-5.019 32.254,3.66 47.832,9.895 7.714,-2.434 15.425,-1.235 19.363,2.586 0,0 -5.195,1.218 -6.426,3.656 l 2.129,0.14 c 8.34,1.403 11.973,4 10.754,13.708 6.453,0 12.879,-7.637 14.141,-10.047 3.953,0 -2.493,11.246 -3.918,13.672 7.871,-2.426 14.304,-3.625 18.105,-12.473 3.899,0 -2.512,16.277 -1.277,15.082 12.879,-6.234 11.668,-17.52 12.879,-16.281 3.957,5 1.257,10.047 2.531,13.672 7.683,-3.543 14.031,-8.43 10.672,-15.583 l -0.117,-1.222 1.086,-0.668 c 2.695,0 6.453,7.609 6.453,8.801 3.933,-5 6.457,-11.239 3.933,-16.278 -0.484,-0.925 -1.004,-1.14 -1.172,-1.847 l 0.293,-0.84 c 1.145,-0.793 2.414,-0.11 3.403,0.293 6.445,3.629 5.195,11.238 9.16,13.672 3.562,-13.094 1.426,-20.504 -11.184,-24.442 -2.258,-0.695 -3.176,-1.703 -3.176,-1.703 1.438,-6.238 0,-12.476 -2.515,-17.519 -3.938,-10.024 -11.621,-13.672 -20.578,-17.473 -12.903,-5.024 -38.719,-3.629 -49.114,3.801 -1.785,1.398 -2.488,2.433 -3.777,3.648 16.691,-4.844 60.574,-7.449 68.274,16.262 6.453,16.277 -8.938,27.383 -21.875,28.762 -27.036,2.425 -50.333,-8.832 -82.583,-18.719 -15.378,-3.805 -42.625,-2.586 -42.625,18.719 -1.269,8.664 1.415,16.097 9.141,22.336 z m 81.16,-200.731 c 0,2.43 3.938,10.047 7.871,10.047 0,-2.57 1.262,-5.008 2.512,-7.617 1.262,-1.207 -7.703,-1.207 -10.383,-2.43 z m -129.019,10.047 c -6.449,0 -7.699,-1.371 -11.457,-2.57 0,2.429 6.933,8.16 10.847,7.589 l 0.61,-0.66 c 0.008,-1.941 0.117,-2.105 1.453,-4.359 z m -2.492,21.137 c 0.109,-1.106 -0.625,-0.922 -1.622,-0.442 l -1.867,0.739 c -3.379,0.917 -5.711,0.824 -8.179,-0.297 1.289,3.816 7.711,6.246 11.668,5.031 1.281,-0.238 -1.258,0 0,-5.031 z m -147.11,-14.317 -0.969,-0.273 c -3.074,0.898 -4.644,0.691 -9.238,-1.684 1.242,5.031 8.945,7.61 10.207,6.246 z m 7.813,170.817 -0.508,-0.719 c -3.645,-0.442 -7.254,8.773 -6.035,10.141 1.445,0 1.445,-3.809 7.871,-5.047 0,-1.016 -1.028,-3.051 -1.328,-4.375 z M 646.172,464.809 c -2.703,0 -7.871,-1.231 -10.391,1.363 2.52,4.855 6.407,3.644 6.407,6.234 -1.219,1.199 -3.887,1.199 -5.168,2.449 -1.239,2.383 3.949,7.434 2.687,12.434 -1.406,1.234 -2.488,0.441 -3.926,0 -3.965,-1.191 5.188,7.477 1.239,10.039 -8.954,-2.562 -15.411,-8.805 -25.797,-7.609 -1.196,1.328 -2.395,8.07 -11.328,8.785 -0.508,0.043 -1.555,0.062 -3.02,-0.938 -5.613,-3.824 -15.676,-8.726 -20.437,-5.234 -3.372,2.356 -5.071,7.945 -6.196,12.617 -0.601,2.516 -2.117,10.168 -3.133,11.805 -4.785,7.609 -18.625,10.605 -22.898,22.851 23.008,-4.828 67.82,-4.843 67.019,36.821 l 0.848,1.531 c 3.645,2.234 16.801,7.871 13.676,22.523 -0.109,0.489 -0.402,2.012 -0.356,3.047 0.032,3.012 0.305,6.012 2.129,8.903 0.786,1.101 1.797,1.968 1.797,1.968 -6.386,4.981 -16.636,-24.238 -24.297,6.575 -0.093,0.73 -1.355,2.726 -2.761,2.269 0,-2.59 -3.028,-6.894 -5.188,-6.23 -6.465,2.426 -11.68,17.488 -16.851,16.101 1.343,-5.922 2.566,-10.562 -0.707,-11.031 l -1.122,0.106 c -4.914,1.417 -8.554,6.125 -13.562,7.296 -1.273,-2.613 1.211,-5.046 -1.273,-7.437 -9.129,-1.395 -14.161,2.391 -19.352,3.633 0,-1.129 1.031,-2.207 1.238,-4.317 l -0.351,-1.035 c -2.325,-1.719 -5.555,-0.012 -7,0.281 l -0.469,-0.429 c -0.141,-2.106 5.262,-4.434 3.367,-10.274 -0.527,-1.699 -1.094,-2.492 -1.433,-2.855 -2.883,-3.192 -12.59,-5.547 -15.969,1.125 -1.426,2.59 7.734,2.59 8.965,3.828 -1.231,2.394 -5.196,3.809 -2.52,10.043 1.289,6.219 27.051,11.066 25.82,24.93 -5.195,1.218 -22.043,-10.067 -20.781,4.847 -1.262,0 -1.719,-0.336 -1.933,-0.504 -6.399,-4.683 -15.071,-9.316 -23.887,-8.168 -7.688,2.434 -14.141,16.282 -28.301,18.715 v -8.668 c -8.977,0 -16.836,0 -18.086,-5.004 7.688,0 12.91,0 15.606,-7.457 2.48,-7.625 -15.606,-11.254 -25.832,-22.519 -3.282,2.308 -7.872,8.652 -9.129,8.652 2.968,3.277 4.746,6.801 4.882,10.125 0.137,3.258 -0.976,6.41 -2.187,8.59 -0.918,1.668 -1.438,2.609 -2.695,3.809 -6.465,-3.809 -20.606,-2.418 -14.153,3.804 -1.258,0 -2.515,1.231 -6.453,0 -7.707,0 -16.847,0 -23.269,-5.004 -5.012,6.235 -12.903,11.239 -20.625,12.481 -1.25,1.191 -2.524,2.383 -3.75,2.383 -1.438,-6.215 -5.2,-7.434 -11.653,-6.215 0,-2.414 1.258,-5.02 1.258,-6.219 0,0 -6.473,2.574 -14.168,0 -3.933,0 -7.683,1.199 -9.133,1.199 0,-1.199 3.965,-3.629 3.965,-4.847 -1.25,-6.239 -8.953,-7.629 -11.648,-10.067 2.695,-2.41 3.918,-2.41 5.176,-5 0.937,-1.398 -7.696,-8.668 -8.973,-9.863 2.508,-1.395 8.348,-2.324 7.715,-3.828 -2.66,-5.02 -9.145,-8.645 -9.145,-14.887 1.43,0 2.707,1.195 5.227,0 -3.555,-4.695 -6.121,-10.43 -8.477,-17.262 -0.547,-1.281 0.235,-2.183 0.84,-2.488 l 1.16,-0.34 c 0,-3.621 -1.238,-6.226 -2.5,-8.664 -2.691,-2.41 -12.906,14.91 -12.906,27.387 0,26.301 5.223,21.277 5.223,26.301 0,6.234 -6.473,4.847 -9.153,8.644 -5.203,8.676 -19.344,11.285 -25.816,5.047 3.953,-1.219 6.472,-1.219 9.148,-6.242 1.239,-2.602 -1.433,-2.602 -1.433,-5.02 -2.5,0 -3.762,-1.211 -5.024,0 -5.191,3.805 -16.812,8.653 -24.527,0 6.133,-1.16 12.281,-4.672 13.933,-11.449 l -0.019,-1.605 c -2.805,-6.25 -11.426,4.406 -11.426,4.406 -3.574,-4.805 -3.738,-16.34 3.992,-19.645 l 1.914,-0.25 c 2.512,0.473 1.313,-2.785 3.286,-4.422 l 2.378,-1.066 c 2.043,-0.476 4.59,0.137 6.614,0.359 0.996,0.106 1.738,-0.168 2.375,-0.679 1.14,-0.914 1.082,-1.871 -0.199,-3.254 l -1.7,-1.27 c -2.293,-0.75 -4.715,0.274 -7.007,0.274 0,0 -0.598,-4.688 1.738,-7.207 2.39,-2.59 5.789,-4.078 9.91,-4.078 2.519,0 2.519,-3.793 1.262,-5.012 -7.715,-5.024 -14.16,-6.246 -18.078,-14.891 3.918,1.196 7.683,1.196 7.683,-1.222 0,-3.821 -2.515,-5.02 -5.027,-7.606 0,0 -1.414,0 -1.414,-1.215 2.676,-1.222 6.441,1.215 7.886,-1.222 2.493,-2.407 -9.128,-8.641 -7.886,-13.684 5.183,1.234 11.621,2.426 12.898,-3.812 0,-3.625 -2.519,-7.426 -6.457,-9.864 5.18,0 10.395,2.438 11.652,0 1.243,-1.367 -7.714,-6.234 -7.714,-11.234 3.933,1.187 6.457,2.41 10.39,1.187 2.52,-5.015 -9.148,-8.648 -10.39,-8.648 3.933,-6.258 20.605,-5.016 28.308,-1.387 2.68,-11.082 16.848,-11.082 16.848,-12.48 -3.953,-3.621 -7.688,-11.082 -6.477,-14.864 1.282,-11.277 -5.175,-21.148 -18.074,-21.148 -7.695,0 -15.41,1.215 -18.086,8.676 -2.519,7.433 -7.715,7.433 -12.898,3.789 -7.727,3.644 -17.934,-2.594 -20.61,-10.035 5.2,1.195 20.61,-3.801 11.621,-12.477 -6.421,0 -12.878,-3.797 -14.128,-14.906 28.3,7.476 24.531,-10.047 5.183,-15.055 11.477,-9.859 16.692,-6.234 27.055,-2.426 1.824,0.895 2.539,0.379 3.777,0 7.942,-3.312 8.028,6.661 10.403,8.457 1.082,0.965 2.539,0.567 3.398,0.165 l 0.879,-0.985 c 1.582,-5.465 -2.902,-7.691 -0.356,-8.847 8.391,-1.309 14.563,9.527 15.325,18.175 l 1.132,2.887 c 1.414,1.582 3.465,3.863 5.379,3.863 5.215,1.242 10.395,-8.804 31.008,-2.578 0,1.207 -2.695,3.82 -1.262,5.024 3.782,1.214 7.727,2.429 11.477,3.793 3.953,3.648 10.383,2.433 14.348,6.234 -1.438,0 -3.965,1.223 -3.965,2.43 1.289,1.23 8.972,1.23 7.715,3.816 0,0 -1.25,0 -2.524,1.215 -2.664,1.215 18.137,9.887 18.137,12.445 -1.445,0 -7.891,7.488 -5.195,8.684 3.75,1.187 8.918,2.586 11.621,6.238 3.758,1.195 29.597,8.828 39.961,12.477 0,-8.668 1.004,-13.121 4.609,-16.27 2.629,-2.285 5.605,-3.641 10.793,-4.891 7.703,-1.199 15.562,1.25 24.539,0 7.703,0 7.703,-11.222 -1.238,-13.66 -5.199,-1.39 -10.403,-1.39 -15.598,-1.39 -9.297,0.957 -10.859,3.617 -14.16,7.617 -1.231,1.195 -1.223,1.324 -4.109,2.832 -3.555,1.84 -6.36,1.93 -9.512,4.086 -3.156,2.14 -4.477,7.984 -9.492,7.984 -3.188,0 -5.168,-1.215 -6.426,-2.437 -7.91,4.847 -20.781,-3.782 -19.367,-12.465 3.488,2.242 9.328,2.41 12.285,-3.551 0.223,-0.461 0.437,-0.918 0.176,-2.043 -0.246,-1.121 -1.297,-2.836 -2.227,-2.023 -11.648,6.254 -20.625,-9.871 -16.66,-13.68 3.723,2.586 8.945,3.809 14.133,0 2.527,-1.215 2.527,-3.648 2.527,-6.227 -7.715,-2.418 -11.648,-5.031 -14.16,-17.511 -0.188,-2.098 1.223,-1.207 1.223,-1.207 6.461,5.023 12.937,5.023 19.363,5.023 3.965,-3.816 9.133,-5.023 12.937,-2.418 5.395,3.797 10.411,11.352 12.746,12.278 0.95,0.367 1.915,1.023 2.747,-0.348 0.828,-1.371 0.066,-4.207 0.066,-4.207 -0.813,-2.82 -3.672,-4.699 -6.453,-6.512 0,-1.211 2.488,-2.941 6.441,-2.941 5.012,0 7.949,0.293 11.645,2.629 l 1.265,0.312 c 0,0 0.539,-0.07 0.207,-1.211 -0.39,-1.926 -2.636,-5.023 -1.64,-5.023 6.445,-1.215 11.64,0 14.304,5.023 2.54,-2.605 3.801,-6.238 7.739,-7.629 0,3.801 1.238,8.84 5.203,11.278 0,-2.438 3.738,-12.485 6.426,-9.887 0,0.883 1.347,4.469 2.558,6.328 l 1.614,1.473 c 1.394,0.093 3.882,-9.063 7.293,-7.801 1.464,3.633 5.183,9.887 6.445,11.086 5.215,-1.199 12.91,-3.637 18.105,-2.43 -5.195,6.227 -6.457,8.664 -6.457,14.91 0,5.012 6.496,6.422 9.336,9.946 2.856,3.519 3.574,5.113 3.574,8.746 -1.257,5.023 -7.711,7.617 -11.648,11.261 -5.012,5.039 -1.309,13.024 -0.945,13.704 l 0.945,1.351 c 6.453,-5.012 11.648,-8.82 16.855,-12.465 6.446,-5.039 15.411,-6.234 23.282,-5.039 8.957,1.227 27.07,0 27.07,-10.035 0,-4.996 -6.445,-12.457 -11.672,-11.238 -3.953,2.59 -3.953,10.043 -8.965,11.238 -2.691,1.223 -6.433,-1.195 -9.129,-3.625 -8.945,3.625 -18.078,2.43 -24.531,-10.047 0,-2.433 2.676,-1.195 3.945,-1.195 5.188,1.195 11.641,0 15.411,-3.817 0,-1.214 -1.258,0 -5.032,-6.238 -6.453,-1.23 -12.879,-11.273 -12.879,-19.914 0.176,-1.183 0,-1.223 1.231,-1.223 6.457,3.633 12.91,6.239 20.598,6.239 1.257,-1.215 1.257,-3.813 1.257,-5.016 -5.175,-2.433 -10.207,-3.836 -15.398,-3.836 -1.25,-0.148 -1.035,-1.597 0,-2.406 7.703,-7.453 23.113,-7.453 28.328,-2.414 11.602,-1.387 16.836,7.433 12.859,14.867 -0.543,1.066 0.344,2.32 1.274,2.43 6.433,1.398 9.121,-7.438 7.871,-13.672 6.746,-2.227 13.301,7.305 14.156,12.465 7.719,0 12.91,1.207 21.887,8.824 -2.023,0 -4.973,0.789 -6.691,2.351 -1.024,0.922 -1.778,1.305 -1.227,2.227 1.277,1.672 8.418,4.543 10.574,6.531 0,1.364 -2.656,2.602 -2.656,3.797 1.23,2.434 7.715,3.801 7.715,7.461 0,0 -5.059,0 -5.059,1.215 1.25,1.371 10.227,7.609 12.93,12.473" /><path
         id="path192"
         style="fill:#00adef;fill-opacity:1;fill-rule:nonzero;stroke:none"
         d="m 457.676,432.41 c -1.571,0.942 -4.055,2.832 -5.031,1.207 -1.415,-3.633 -2.684,-6.234 -6.434,-9.871 3.75,-1.211 15.41,6.238 11.465,8.664" /><path
         id="path194"
         style="fill:#00adef;fill-opacity:1;fill-rule:nonzero;stroke:none"
         d="m 294.648,637.867 c 0.45,-0.762 1.106,-1.613 2.207,-1.902 2.071,-0.551 4.036,0.945 6.016,0.945 -2.519,5.047 -7.707,6.242 -12.898,5.047 2.3,-1.051 3.574,-2.227 4.675,-4.09" /><path
         id="path196"
         style="fill:#00adef;fill-opacity:1;fill-rule:nonzero;stroke:none"
         d="m 557.09,451.121 c -5.176,3.801 -14.141,-2.437 -15.559,-5.027 5.199,1.367 7.871,1.367 12.903,-1.219 0,0 1.425,5.016 2.656,6.246" /><path
         id="path198"
         style="fill:#00adef;fill-opacity:1;fill-rule:nonzero;stroke:none"
         d="m 277.078,624.438 c 0.317,-0.665 1.418,1.218 2.485,2.843 0.769,1.164 1.667,2.117 1.453,2.203 -1.258,1.211 -7.703,3.629 -11.621,2.426 -2.54,-1.215 3.918,0 7.683,-7.472" /><path
         id="path200"
         style="fill:#00adef;fill-opacity:1;fill-rule:nonzero;stroke:none"
         d="m 375.266,588.27 c -7.903,-7.461 -5.2,-22.364 -2.676,-22.364 2.676,-1.375 14.148,11.11 9.098,21.145 -1.415,2.437 -3.922,-10.035 -6.422,-13.668 h -1.438 c 0,5 1.438,9.859 2.664,14.887 0,0 -1.226,1.218 -1.226,0" /><path
         id="path202"
         style="fill:#00adef;fill-opacity:1;fill-rule:nonzero;stroke:none"
         d="m 411.902,433.773 c -3.914,0.571 -10.847,-5.16 -10.847,-7.589 3.758,1.199 5.008,2.57 11.457,2.57 h 1.453 c -1.336,2.254 -1.445,2.418 -1.453,4.359 l -0.61,0.66" /><path
         id="path204"
         style="fill:#00adef;fill-opacity:1;fill-rule:nonzero;stroke:none"
         d="m 267.715,463.578 c -3.875,-0.019 -8.652,-0.183 -11.25,-5.023 3.906,1.039 7.098,-0.164 8.445,-0.332 l 1.164,1.234 c 0.965,1.805 1.864,2.852 2.031,3.809 l -0.39,0.312" /><path
         id="path206"
         style="fill:#00adef;fill-opacity:1;fill-rule:nonzero;stroke:none"
         d="m 269.855,419.867 -0.761,-0.359 c -2.453,-3.414 -5.063,-5.844 -8.672,-7.012 2.344,-1.148 10.508,-1.223 12.558,0.781 l 0.653,1.125 c -0.11,1.508 -1.848,4.969 -3.778,5.465" /><path
         id="path208"
         style="fill:#00adef;fill-opacity:1;fill-rule:nonzero;stroke:none"
         d="m 415.469,468.875 c 1.047,1.289 1.426,3.48 2.246,4.73 -2.512,3.633 -8.953,1.25 -11.652,-2.578 2.699,0 5.226,-1.211 7.902,-2.433 l 1.504,0.281" /><path
         id="path210"
         style="fill:#00adef;fill-opacity:1;fill-rule:nonzero;stroke:none"
         d="m 252.703,433.617 c 4.594,2.375 6.164,2.582 9.238,1.684 l 0.969,0.273 v 4.289 c -1.262,1.364 -8.965,-1.215 -10.207,-6.246" /><path
         id="path212"
         style="fill:#00adef;fill-opacity:1;fill-rule:nonzero;stroke:none"
         d="m 410.02,454.922 c -3.957,1.215 -10.379,-1.215 -11.668,-5.031 2.468,1.121 4.8,1.214 8.179,0.297 l 1.867,-0.739 c 0.997,-0.48 1.731,-0.664 1.622,0.442 -1.258,5.031 1.281,4.793 0,5.031" /><path
         id="path214"
         style="fill:#00adef;fill-opacity:1;fill-rule:nonzero;stroke:none"
         d="m 264.18,615.813 c -1.219,-1.368 2.39,-10.583 6.035,-10.141 l 0.508,0.719 c 0.3,1.324 1.328,3.359 1.328,4.375 -6.426,1.238 -6.426,5.047 -7.871,5.047" /><path
         id="path216"
         style="fill:#00adef;fill-opacity:1;fill-rule:nonzero;stroke:none"
         d="m 550.664,406.254 c 1.25,-3.801 11.641,-3.801 14.172,-1.219 -1.273,1.219 -2.531,2.43 -3.969,3.625 -2.515,-2.406 -6.433,-2.406 -10.203,-2.406" /><path
         id="path218"
         style="fill:#00adef;fill-opacity:1;fill-rule:nonzero;stroke:none"
         d="m 549.402,428.754 c -3.933,0 -7.871,-7.617 -7.871,-10.047 2.68,1.223 11.645,1.223 10.383,2.43 -1.25,2.609 -2.512,5.047 -2.512,7.617" /><path
         id="path220"
         style="fill:#00adef;fill-opacity:1;fill-rule:nonzero;stroke:none"
         d="m 601.438,421.809 c -3.176,2.14 -9.446,3.035 -8.333,1.937 5.208,-3.816 5.208,-5.039 5.208,-11.25 4.5,2.09 4.167,6.125 4.011,7.977 l -0.886,1.336" /><path
         id="path222"
         style="fill:#e6f7fd;fill-opacity:1;fill-rule:nonzero;stroke:none"
         d="m 532.922,922.211 c -23.067,-1.316 -33.957,13.691 -53.996,14.062 -8.196,0.153 -20.11,-2.113 -34.863,-13.906 -14.766,11.793 -26.68,14.059 -34.875,13.906 -20.04,-0.371 -30.918,-15.378 -53.993,-14.062 -3.164,0.18 -6.062,0.641 -8.672,1.238 v -78.312 c 2.61,-0.598 5.508,-1.063 8.672,-1.239 23.075,-1.316 33.953,13.692 53.993,14.063 8.156,0.148 20,-2.102 34.667,-13.754 v -0.309 l 0.208,0.153 0.195,-0.153 v 0.309 c 14.668,11.652 26.512,13.902 34.668,13.754 20.039,-0.371 30.929,-15.379 53.996,-14.063 3.164,0.176 6.062,0.641 8.672,1.239 v 78.312 c -2.61,-0.597 -5.508,-1.058 -8.672,-1.238" /><path
         id="path224"
         style="fill:#a89f19;fill-opacity:1;fill-rule:nonzero;stroke:none"
         d="m 329.922,837.504 h 122.91 v -8.824 h -122.91 v 8.824" /><path
         id="path226"
         style="fill:#a89f19;fill-opacity:1;fill-rule:nonzero;stroke:none"
         d="M 339.055,924.211 V 828.68 h -9.133 v 95.531 h 9.133" /><path
         id="path228"
         style="fill:#a89f19;fill-opacity:1;fill-rule:nonzero;stroke:none"
         d="m 558.191,837.504 h -122.91 v -8.824 h 122.91 v 8.824" /><path
         id="path230"
         style="fill:#a89f19;fill-opacity:1;fill-rule:nonzero;stroke:none"
         d="M 549.063,924.211 V 828.68 h 9.128 v 95.531 h -9.128" /><path
         id="path232"
         style="fill:#a89f19;fill-opacity:1;fill-rule:nonzero;stroke:none"
         d="m 314.656,858.844 15.766,8.797 v -17.59 z" /><path
         id="path234"
         style="fill:#a89f19;fill-opacity:1;fill-rule:nonzero;stroke:none"
         d="m 314.656,894.043 15.766,8.793 v -17.582 z" /><path
         id="path236"
         style="fill:#a89f19;fill-opacity:1;fill-rule:nonzero;stroke:none"
         d="m 573.457,858.844 -15.754,8.797 v -17.59 z" /><path
         id="path238"
         style="fill:#a89f19;fill-opacity:1;fill-rule:nonzero;stroke:none"
         d="m 573.457,894.043 -15.754,8.793 v -17.582 z" /><path
         id="path240"
         style="fill:#db3921;fill-opacity:1;fill-rule:nonzero;stroke:none"
         d="m 541.594,931.762 -1.926,-0.442 c -2.402,-0.55 -4.844,-0.898 -7.234,-1.039 -10.293,-0.578 -17.856,2.828 -25.93,6.481 -8.059,3.633 -16.375,7.394 -27.41,7.597 l -0.91,0.008 c -11.297,0 -22.774,-3.969 -34.121,-11.801 -11.36,7.832 -22.833,11.801 -34.129,11.801 l -0.903,-0.008 c -11.043,-0.203 -19.363,-3.964 -27.422,-7.597 -8.074,-3.649 -15.652,-7.055 -25.918,-6.481 -2.398,0.141 -4.839,0.489 -7.246,1.039 l -1.922,0.442 v -3.949 l 1.016,-0.231 c 2.629,-0.602 5.293,-0.98 7.922,-1.133 11.258,-0.644 19.312,2.981 27.832,6.832 7.676,3.465 15.613,7.051 25.809,7.239 l 0.832,0.007 c 10.82,0 21.902,-3.996 32.949,-11.879 l 1.18,-0.839 1.171,0.839 c 11.043,7.883 22.129,11.879 32.95,11.879 l 0.832,-0.007 c 10.195,-0.188 18.132,-3.774 25.808,-7.239 7.864,-3.551 15.281,-6.902 25.254,-6.902 l 2.59,0.07 c 2.625,0.153 5.293,0.535 7.918,1.133 l 1.008,0.231 v 3.949" /><path
         id="path242"
         style="fill:#231f20;fill-opacity:1;fill-rule:nonzero;stroke:none"
         d="M 737.168,963.52 H 150.945 V 371.051 c 0,-24.852 14.59,-47.551 37.649,-58.555 L 444.063,190.547 699.375,311.641 c 23.137,10.972 37.805,33.714 37.805,58.629 z M 724.121,950.902 V 370.27 c 0,-19.95 -11.973,-38.516 -30.5,-47.301 L 444.082,204.605 194.363,323.809 c -18.726,8.945 -30.371,27.043 -30.371,47.242 v 579.851 h 560.129" /><path
         id="path244"
         style="fill:#231f20;fill-opacity:1;fill-rule:evenodd;stroke:none"
         d="m 435.203,90.0156 c -4.805,0.125 -12.691,0.7383 -17.762,0.1992 l -1.218,1.1993 c 1.621,1.8164 3.132,3.6484 3.23,5.9218 -0.273,5.6481 0.235,10.9181 -0.058,16.4841 -0.137,1.684 -2.032,3.153 -3.594,5.246 l 0.996,0.512 c 5.723,0.18 12.695,-0.738 17.734,-0.305 1.739,0.125 3.407,0.395 4.492,-0.878 -0.007,-2.29 1.504,-4.481 0.711,-6.481 -2.625,-0.672 -2.578,1.719 -3.711,2.879 -3.281,1.98 -7.351,1.953 -10.742,1.656 -0.703,0.27 -0.996,-0.5 -0.554,-1.429 -0.11,-2.239 -0.137,-4.637 -0.262,-6.997 3.133,-0.269 6.961,-0.906 8.726,1.61 0.957,0.398 0.957,0.398 1.653,0.14 0.918,-1.964 -0.125,-2.339 0.39,-3.304 0.188,-1.578 0.301,-3.274 -0.91,-4.352 -1.48,0.543 -1.797,3.828 -4.519,3.188 -1.641,-0.157 -3.028,0.355 -5.02,-0.446 -0.398,-3.019 -0.969,-6.7379 0.039,-10.2692 2.324,-2.375 8.828,-2.4765 11.555,0.4454 1.258,1.1757 1.617,4.082 3.289,4.3593 l 0.918,-1.9843 c -1.094,-2.7579 -1.992,-7.1094 -5.383,-7.3946" /><path
         id="path246"
         style="fill:#231f20;fill-opacity:1;fill-rule:evenodd;stroke:none"
         d="m 455.957,90.2188 c -1.738,-0.125 -4.109,-0.0274 -5.637,0.5273 -0.418,0.9375 0.539,1.3477 1.606,1.7461 2.644,4.6641 1.336,16.2028 1.297,24.1878 -1.512,0.55 -5.227,-0.407 -6.485,-1.61 -1.218,-1.105 -1.062,-2.715 -3.039,-3.64 -2.207,0.808 -0.406,3.351 -0.828,4.281 0.567,1.469 0.117,2.398 0.391,3.078 0.539,1.352 18.293,0.465 24.883,0.363 2.5,-0.027 1.398,-2.828 1.828,-3.757 0.144,-1.715 1.004,-3.582 -0.957,-4.528 -2.2,0.813 -1.633,2.27 -2.778,3.465 -0.855,1.863 -4.011,2.246 -5.8,2.117 -1.395,0.516 -1.227,-1.074 -1.227,-1.074 -0.703,-6.176 -0.898,-14.855 0.059,-20.8359 0.164,-1.6055 2.363,-2.4063 2.546,-4.0118 -1.281,-1.2031 -3.488,-0.3945 -5.859,-0.3085" /><path
         id="path248"
         style="fill:#231f20;fill-opacity:1;fill-rule:evenodd;stroke:none"
         d="m 399.531,136.105 c -2.265,0.247 -4.707,-2.566 -4.968,-4.726 -2.598,-3.981 -4.165,-6.883 -6.77,-10.863 -2.703,-4.985 -4.609,-11.106 -10.313,-12.664 -3.242,-0.684 -4.421,-1.571 -6.55,-0.317 -7.5,0.828 -18.723,7.352 -19.192,13.727 -0.449,5.336 3.489,10.191 6.192,15.179 2.89,4.961 7.683,9.727 6.347,16.34 -0.937,1.121 -1.972,1.235 -0.808,2.153 0.117,1.019 2.207,0.789 3.14,-0.348 2.141,-1.281 6.387,-2.766 8.313,-4.152 0.945,-1.129 4.258,-1.496 2.949,-3.422 -2.363,-0.762 -5.637,-1.578 -7.07,-3.477 -5.098,-6.777 -8.211,-13.918 -11.16,-20.945 -1.411,-3.078 1.355,-6.469 3.328,-8.895 2.004,-1.234 6.219,-2.734 9.386,-3.086 7.762,0.176 12.567,13.457 15.504,19.45 1.411,2.921 2.981,7.004 1.36,11.445 -0.926,1.125 0.117,1.008 0.117,1.008 4.238,-1.492 7.266,-2.84 11.492,-4.344 -0.137,-1.168 -0.262,-2.18 -1.297,-2.063" /><path
         id="path250"
         style="fill:#231f20;fill-opacity:1;fill-rule:evenodd;stroke:none"
         d="m 357.148,156.664 c -5.918,-3.613 -10.046,-10.508 -12.902,-16.512 -2.762,-3.953 -5.469,-8.937 -7.012,-13.019 -1.316,-0.887 -1.433,-1.906 -2.632,-2.801 -1.016,0.113 -3.137,0.348 -4.219,1.492 0,0 -0.91,1.133 -0.793,2.156 -0.801,2.29 -0.867,10.672 -1.055,18.176 -0.715,4.188 -1.172,9.532 -1.582,14.86 -0.918,1.277 -0.558,4.312 -1.711,3.422 -3.933,-4.848 -5.359,-7.922 -8.347,-13.922 -1.524,-4.09 -4.266,-9.071 -3.567,-12.223 0.949,-1.129 1.836,-2.41 0.688,-3.309 -1.184,-0.906 -3.164,0.348 -4.25,1.496 -1.973,1.403 -5.125,2.774 -7.239,3.008 0.246,2.032 1.274,1.914 2.473,2.801 4.465,0.684 6.379,7.813 8.992,10.758 2.863,5.992 4.145,7.926 7.004,12.879 1.172,0.914 2.481,2.969 1.555,4.086 -3.188,1.394 -5.52,-0.407 -7.738,-1.196 -1.208,0.133 -2.262,0.25 -1.09,1.157 0.117,1 1.453,1.898 3.672,2.675 2.222,0.93 5.769,2.579 8.96,1.2 3,-1.344 6.184,-2.875 5.942,-4.914 3.348,-8.879 3.289,-18.274 3.25,-27.821 0.769,-2.285 -0.371,-3.172 0.41,-5.32 3.938,4.84 5.598,9.961 8.32,14.934 0.496,4.211 3.36,9.179 0.411,12.578 0.125,1.031 1.179,0.914 1.179,0.914 5.285,-1.625 9.387,-4.121 13.469,-6.781 -0.117,-1 -1.145,-0.891 -2.188,-0.774" /><path
         id="path252"
         style="fill:#231f20;fill-opacity:1;fill-rule:evenodd;stroke:none"
         d="m 290.313,166.238 c -2.071,0.231 -7.333,1.848 -9.368,4.11 2.766,3.953 7.485,6.675 11.086,10.386 0.957,-1.129 -1.593,-13.472 -1.718,-14.496 z m 7.05,-24.121 c -3.175,1.363 -8.32,4.133 -12.402,5.625 -1.211,0.137 -2.117,1.25 -0.977,2.153 1.36,1.035 2.266,-0.25 2.266,-0.25 4.719,2.71 4.031,7.046 4.531,11.257 -3.965,2.5 -9.121,5.118 -12.273,6.641 -3.828,-3.844 -6.543,-8.828 -5.969,-13.152 -1.309,-1.903 -3.152,0.351 -4.348,0.48 -1.992,1.246 -3.972,2.5 -6.082,3.91 -1.054,0.114 -2.097,0.231 -3.039,1.36 1.301,1.922 3.157,-0.352 5.649,1.445 9.551,7.461 16.969,15.008 24.566,22.687 1.164,0.895 -3.18,1.375 -5.281,1.606 -2.258,0.254 -3.524,-1.656 -4.473,-0.531 l 0.117,1.011 c 4.739,2.715 10.489,5.153 15.645,2.524 5.156,-2.61 5.469,-9.113 4.844,-14.328 -0.352,-3.043 -2.324,-19.719 -2.949,-24.938 -0.254,-2.179 0.554,-4.324 1.359,-6.617 0,0 -0.129,-1 -1.184,-0.883" /><path
         id="path254"
         style="fill:#231f20;fill-opacity:1;fill-rule:evenodd;stroke:none"
         d="m 273.945,193.301 c -2.121,1.429 -3.047,2.554 -5.261,1.773 -2.512,-1.929 -5.344,-7.933 -6.782,-11.011 -2.988,-5.977 -5.839,-11.981 -8.672,-16.95 -0.117,-1.031 1.848,-3.437 0.579,-5.367 -1.192,0.133 -2.246,0.25 -2.246,0.25 -2.942,2.391 -6.075,3.91 -9.266,5.281 -0.918,1.145 -1.992,1.262 -0.805,2.168 2.363,0.754 6.828,2.469 8.496,6.535 2.727,4.989 6.789,10.86 9.602,16.848 -1.055,0.117 -1.055,0.117 -1.055,0.117 -9.316,-4.246 -17.656,-10.668 -26.191,-17.226 -1.172,-0.887 -2.071,0.23 -2.071,0.23 -0.46,5.352 -0.078,8.524 1.036,17.961 -0.911,1.125 0.324,11.57 -0.782,12.735 -3.625,-3.879 -6.601,-9.875 -8.3,-14.961 -2.481,-2.961 -5.34,-7.93 -2.52,-12.36 0,0 -0.137,-1.148 -1.191,-1.035 -4.082,2.652 -8.328,4.137 -12.411,6.656 0.133,1.16 0,0 0.133,1.16 5.5,0.407 9.668,7.297 13.442,11.133 2.73,5 6.668,9.867 9.492,15.856 0.113,1.011 -3.02,2.531 -4.106,2.652 -1.98,1.242 -4.48,-0.68 -6.687,-1.461 -0.93,1.129 -0.789,2.289 0.254,2.168 2.453,2.809 7.058,4.516 11.277,2.875 4.223,-1.512 8.215,-5.027 8.899,-8.324 0.058,-8.535 -0.918,-16.793 -0.86,-25.316 l -0.129,-1.032 c 9.551,6.285 18.071,13.883 26.075,16.235 5.519,0.414 7.5,-0.832 8.41,-2.118 2.136,-1.261 3.066,-2.386 2.949,-3.398 -0.117,-1.012 -1.172,-0.895 -1.309,-2.074" /><path
         id="path256"
         style="fill:#231f20;fill-opacity:1;fill-rule:evenodd;stroke:none"
         d="m 678.508,185.387 c -5.871,-2.864 -15.774,-7.086 -21.496,-10.91 -1.004,-0.129 -2.305,0.675 -2.305,0.675 0.742,3.196 1.34,6.36 -0.066,9.145 -4.133,6.633 -7.082,13.297 -11.172,19.816 -1.289,1.934 -4.574,2.52 -7.856,4.055 -0.144,1.105 0.852,1.238 0.852,1.238 6.777,3.821 15.769,7.098 21.555,10.785 1.992,1.254 3.843,2.61 5.996,1.77 1.531,-2.777 4.832,-4.453 5.23,-7.367 -2.73,-2.457 -4.273,0.441 -6.414,1.152 -5.281,0.313 -10.176,-2.289 -14.043,-4.758 -1.016,-0.133 -0.867,-1.238 0.281,-2.074 1.379,-2.777 2.961,-5.676 4.387,-8.598 3.965,1.653 9.016,3.282 9.434,7.418 0.886,1.086 0.886,1.086 1.882,1.215 2.434,-1.789 1.426,-2.894 2.7,-3.726 1.289,-1.797 2.566,-3.75 1.843,-5.817 -2.16,-0.277 -4.714,3.485 -7.578,1 -1.875,-1.23 -3.894,-1.492 -5.761,-3.695 1.562,-3.883 3.371,-8.719 6.961,-12.34 4.398,-1.41 12.296,2.57 13.617,7.801 0.718,2.195 -0.813,5.93 1.023,7.312 1.152,0.149 2.434,-1.804 2.434,-1.804 0.547,-4.008 2.383,-9.821 -1.504,-12.293" /><path
         id="path258"
         style="fill:#231f20;fill-opacity:1;fill-rule:evenodd;stroke:none"
         d="m 636.855,165.633 c -1.984,-1.235 -4.863,-2.598 -7.031,-2.875 -1.133,0.847 -0.261,1.941 0.75,3.058 0.051,7.192 -9.156,20.079 -14.519,29.508 -2.16,-0.277 -5.926,-3.707 -6.621,-5.914 -0.735,-2.051 0.527,-3.867 -1.204,-6.199 -3.14,-0.402 -2.703,3.742 -3.828,4.57 -0.281,2.082 -1.433,2.918 -1.558,3.883 -0.278,1.93 21.375,11.891 29.273,15.875 2.988,1.512 3.547,-2.516 4.692,-3.336 1.289,-1.949 3.543,-3.633 1.843,-5.976 -3.144,-0.407 -3.437,1.683 -5.586,2.39 -2.246,1.684 -6.257,0.188 -8.293,-1.066 -1.992,-0.254 -0.73,-2.059 -0.73,-2.059 3.242,-7.742 8.777,-18.152 13.879,-24.687 1.266,-1.789 4.414,-1.387 5.683,-3.196 -0.714,-2.211 -3.871,-2.613 -6.75,-3.976" /><path
         id="path260"
         style="fill:#231f20;fill-opacity:1;fill-rule:evenodd;stroke:none"
         d="m 610.066,153.754 c -11.257,5.723 -21.636,12.422 -32.925,18.141 4.39,-8.579 6.629,-17.438 14.89,-23.411 0.282,-2.074 3.137,-0.726 2.41,-2.8 -0.867,-1.082 -4.011,-1.489 -4.89,-2.582 -3.164,-0.407 -4.727,-3.715 -6.16,-0.793 1.914,8.265 -4.328,15.625 -7.422,23.25 -1.399,2.925 -2.824,5.824 -4.239,7.605 -4.027,-0.516 -5.46,-5.742 -6.046,-8.93 -0.871,-1.093 -3.321,0.7 -4.317,0.575 -1.269,1.816 -3.535,3.492 -6.531,2.105 -3.039,-1.355 -5.891,-2.703 -8.938,-4.094 1.575,-3.879 3.262,-7.742 5.832,-11.496 0.125,-0.961 1.012,0.129 1.012,0.129 4.004,1.5 6.992,3.012 7.629,6.055 l 0.969,0.125 c 2.254,-1.684 3.699,-3.613 5.105,-6.383 -2.168,-0.277 -3.293,0.563 -4.297,0.434 -3,-1.368 -6.035,-1.758 -8.847,-4.239 1.504,-3.742 4.316,-8.441 6.887,-12.187 1.304,-1.969 4.285,-0.449 7.441,-0.043 5.879,2.719 8.074,9.062 7.254,15.004 1.152,0.148 2.012,1.383 2.16,0.277 2.391,-2.66 2.801,-5.687 4.195,-8.461 0.293,-2.09 1.582,-2.906 -0.574,-3.183 -7.754,-4.094 -13.777,-6.825 -21.523,-10.922 -2.129,-0.278 -2.969,-1.367 -4.856,-2.582 -1.148,0.824 -1.023,-0.129 -1.148,0.824 -1.145,-0.145 -0.141,0.969 -0.293,2.074 1.062,7.172 -2.766,11.742 -7.129,21.328 -1.274,1.797 -5.676,10.387 -8.789,9.989 -1.008,-0.133 -0.879,-1.09 -0.742,-2.071 l 0.281,-2.07 c -1.16,0.984 -3.164,0.726 -5.149,-0.664 0.129,-0.965 0.129,-0.965 0.129,-0.965 0.559,-4.016 2.071,-7.762 4.785,-11.504 3.829,-5.543 6.075,-13.418 12.911,-17.601 1.132,-0.856 0.129,-0.985 -0.743,-2.079 -3.015,-1.511 -7.136,-2.043 -9.882,-4.367 -2.411,1.664 -0.555,4.008 -0.821,5.949 -0.554,4.02 -2.129,6.907 -4.66,10.52 -1.68,4.855 -3.101,7.773 -5.933,12.469 -0.723,-2.067 -1.45,-4.266 -1.055,-7.168 -0.024,-7.196 -0.219,-14.246 0.887,-22.274 0,0 -1.004,-0.129 -0.879,-1.093 -1.004,-0.129 -2.117,0.707 -2.246,1.679 -6.868,4.184 -16.7,14.192 -24.493,18.254 0,0 0.418,-3.055 1.399,-2.93 4.109,-7.632 6.199,-14.382 11.172,-20.789 1.414,-1.945 3.543,-2.656 5.679,-3.351 -0.996,-0.129 0.137,-0.977 -0.855,-1.102 -1.867,-1.367 -2.863,-1.496 -4.863,-2.73 -2.012,-0.262 -4.77,-3.563 -6.008,-1.754 2.453,5.367 -1.629,11.887 -3.203,15.766 -2.981,5.664 -5.672,10.39 -8.489,16.23 l -1.128,-0.148 c -1.868,-1.364 -1.465,-4.27 -2.063,-7.454 -0.879,-1.093 -0.879,-1.093 -2.031,-1.242 -0.266,1.938 -0.684,4.977 0.207,7.071 -0.422,3.046 1.18,6.339 4.195,7.722 2.871,1.348 7.883,2.973 10.434,0.344 6.98,-5.293 11.941,-10.719 18.804,-14.891 l 0.852,1.082 c -0.969,7.067 -0.918,14.11 -0.723,20.18 -0.422,3.043 0.301,6.246 4.051,8.699 0.996,1.102 4.016,1.489 6.289,0.809 0.871,1.086 2.602,3.414 3.598,3.543 7.898,3.957 14.617,7.93 22.652,10.933 l 0.996,0.129 c 1.262,-1.812 1.543,-3.882 3.711,-3.605 0.727,2.203 0.461,4.14 2.168,6.469 2.758,3.308 8.762,5.07 13.32,2.691 7.583,-2.117 21.641,-12.422 27.102,-13.824 -2.988,5.804 -5.676,10.519 -8.391,15.246 -2.39,1.656 -4.949,5.41 -8.23,5.976 -0.996,-0.125 -1.133,0.84 -1.133,0.84 4.016,1.496 7.86,4.114 11.77,5.59 2.273,-0.68 -0.586,-3.176 -0.325,-5.105 2.11,-7.883 6.172,-14.399 9.129,-21.051 2.578,-2.781 4.161,-6.656 5.547,-9.434 1.125,-0.98 -3.758,-3.574 -4.883,-2.734" /><path
         id="path262"
         style="fill:#231f20;fill-opacity:1;fill-rule:nonzero;stroke:none"
         d="m 379.16,887.043 c 0,-4.242 -4.023,-6.656 -8.086,-6.656 -3.386,0 -6.316,1.738 -7.851,3.504 l 0.031,0.675 2,2.09 0.73,0.035 c 1.594,-1.351 3.157,-2.187 5.188,-2.187 1.965,0 3.523,1.027 3.523,2.637 0,3.988 -11.043,2.765 -11.043,10.129 0,3.925 3.426,6.304 7.254,6.304 2.895,0 5.254,-1.187 7.121,-2.988 v -0.68 l -1.828,-2.152 -0.703,-0.098 c -1.629,1.223 -2.793,1.801 -4.449,1.801 -1.867,0 -2.973,-0.965 -2.973,-2.281 0,-3.957 11.086,-2.317 11.086,-10.133" /><path
         id="path264"
         style="fill:#231f20;fill-opacity:1;fill-rule:nonzero;stroke:none"
         d="m 405.105,884.313 v -0.676 c -2.058,-1.996 -4.878,-3.25 -8.113,-3.25 -6.648,0 -11.98,5.113 -11.98,11.578 0,6.496 5.332,11.609 11.98,11.609 3.235,0 6.055,-1.254 8.113,-3.246 v -0.676 l -2.195,-2.285 -0.691,-0.031 c -1.399,1.191 -3.125,1.93 -5.254,1.93 -4.067,0 -7.258,-3.121 -7.258,-7.301 0,-4.149 3.191,-7.27 7.258,-7.27 2.129,0 3.855,0.743 5.254,1.93 l 0.691,-0.031 2.195,-2.281" /><path
         id="path266"
         style="fill:#231f20;fill-opacity:1;fill-rule:nonzero;stroke:none"
         d="m 412.617,903.316 h 3.567 l 0.496,-0.48 v -21.551 l -0.496,-0.48 h -3.567 l -0.5,0.48 v 21.551 l 0.5,0.48" /><path
         id="path268"
         style="fill:#231f20;fill-opacity:1;fill-rule:nonzero;stroke:none"
         d="m 438.242,884.215 v -2.93 l -0.5,-0.48 h -12.273 l -0.496,0.48 v 21.551 l 0.496,0.48 h 12.246 l 0.5,-0.48 v -2.93 l -0.5,-0.48 h -8.184 v -5.078 h 7.688 l 0.496,-0.485 v -2.929 l -0.496,-0.481 h -7.688 v -5.758 h 8.211 l 0.5,-0.48" /><path
         id="path270"
         style="fill:#231f20;fill-opacity:1;fill-rule:nonzero;stroke:none"
         d="m 464.855,902.836 v -21.551 l -0.5,-0.48 h -4.089 l -0.598,0.324 -8.953,15.273 v -15.117 l -0.5,-0.48 h -3.555 l -0.5,0.48 v 21.551 l 0.5,0.48 h 4.094 l 0.594,-0.32 8.957,-15.277 v 15.117 l 0.496,0.48 h 3.554 l 0.5,-0.48" /><path
         id="path272"
         style="fill:#231f20;fill-opacity:1;fill-rule:nonzero;stroke:none"
         d="m 486.98,902.836 v -2.93 l -0.496,-0.48 h -5.019 v -18.141 l -0.496,-0.48 h -3.567 l -0.5,0.48 v 18.141 h -5.054 l -0.5,0.48 v 2.93 l 0.5,0.48 h 14.636 l 0.496,-0.48" /><path
         id="path274"
         style="fill:#231f20;fill-opacity:1;fill-rule:nonzero;stroke:none"
         d="m 493.953,903.316 h 3.567 l 0.5,-0.48 v -21.551 l -0.5,-0.48 h -3.567 l -0.496,0.48 v 21.551 l 0.496,0.48" /><path
         id="path276"
         style="fill:#231f20;fill-opacity:1;fill-rule:nonzero;stroke:none"
         d="m 517.688,888.813 -3.071,8.781 -3.054,-8.781 z m 6.882,-8.008 h -3.691 l -0.566,0.386 -1.368,3.891 h -8.64 l -1.367,-3.891 -0.571,-0.386 h -3.687 l -0.403,0.547 8.086,21.582 0.567,0.382 h 3.32 l 0.637,-0.382 8.086,-21.582 -0.403,-0.547" /><path
         id="path278"
         style="fill:#ffffff;fill-opacity:1;fill-rule:nonzero;stroke:none"
         d="m 444.031,693.395 -7.011,17.285 -17.594,-7.434 7.683,17.008 -17.879,6.781 17.879,6.77 -7.683,17.008 17.594,-7.426 7.011,17.281 7.016,-17.281 17.586,7.426 -7.676,-17.008 17.883,-6.77 -17.883,-6.781 7.676,-17.008 -17.586,7.434 -7.016,-17.285" /><path
         id="path280"
         style="fill:#ffffff;fill-opacity:1;fill-rule:nonzero;stroke:none"
         d="m 443.555,296.109 -7.012,17.286 -17.59,-7.438 7.688,17.012 -17.879,6.781 17.879,6.77 -7.688,17.007 17.59,-7.425 7.012,17.281 7.011,-17.281 17.598,7.425 -7.676,-17.007 17.871,-6.77 -17.871,-6.781 7.676,-17.012 -17.598,7.438 -7.011,-17.286" /><path
         id="path282"
         style="fill:#ffffff;fill-opacity:1;fill-rule:nonzero;stroke:none"
         d="m 664.648,488.379 -7.011,17.281 -17.586,-7.433 7.683,17.011 -17.879,6.778 17.879,6.773 -7.683,17.008 17.586,-7.43 7.011,17.285 7.012,-17.285 17.598,7.43 -7.676,-17.008 17.871,-6.773 -17.871,-6.778 7.676,-17.011 -17.598,7.433 -7.012,-17.281" /><path
         id="path284"
         style="fill:#ffffff;fill-opacity:1;fill-rule:nonzero;stroke:none"
         d="m 224.719,488.379 -7.016,17.281 -17.598,-7.433 7.688,17.011 -17.883,6.778 17.883,6.773 -7.688,17.008 17.598,-7.43 7.016,17.285 7,-17.285 17.597,7.43 -7.675,-17.008 17.871,-6.773 -17.871,-6.778 7.675,-17.011 -17.597,7.433 -7,-17.281" /><path
         id="path286"
         style="fill:#231f20;fill-opacity:1;fill-rule:nonzero;stroke:none"
         d="m 1224.38,590.367 c -0.51,-107.652 -54.1,-161.797 -152.39,-161.797 -97.224,0 -153.97,43.66 -153.97,143.934 0,44.637 0,69.805 0,101.84 0,56.707 -6.29,102.929 -8.372,127.066 11.536,-1.59 30.457,-2.621 41.473,-2.621 11.067,0 22.609,1.031 33.125,2.621 -5.23,-49.918 -6.805,-116.566 -6.805,-185.855 0,-99.754 18.352,-156.461 110.829,-156.461 99.89,0 102.49,99.219 102.49,181.133 0,74.05 -0.55,126.531 -3.69,161.183 7.88,-1.59 16.31,-2.621 24.19,-2.621 7.32,0 14.16,1.031 21.01,2.621 -3.7,-39.879 -7.35,-127.582 -7.89,-211.043" /><path
         id="path288"
         style="fill:#231f20;fill-opacity:1;fill-rule:nonzero;stroke:none"
         d="m 1566.74,623.203 c -1.08,-56.094 -0.54,-141.562 0,-191.629 -3.66,1.071 -8.89,1.606 -12.55,1.606 -3.65,0 -8.87,-0.535 -12,-1.606 -76.22,89.922 -162.47,182.699 -247.66,272.891 -1.06,-29.375 -1.58,-67.09 -1.58,-114.289 0,-64.528 2.08,-134.793 4.2,-154.856 -7.35,1.629 -14.67,2.7 -21.44,2.7 -7.3,0 -14.61,-1.071 -21.99,-2.7 3.68,20.063 11.04,154.856 11.04,242.926 0,56.664 -1.08,98.055 -2.08,122.168 3.61,-0.516 9.89,-1.031 13.57,-1.031 4.13,0 9.9,0.515 14.05,1.031 80.48,-88.086 176.18,-192.434 247.2,-266.371 0,88.605 0,210.797 -4.19,263.215 6.81,-1.567 14.1,-2.602 20.88,-2.602 6.81,0 13.05,1.035 19.91,2.602 -3.15,-50.852 -6.86,-128.957 -7.36,-174.055" /><path
         id="path290"
         style="fill:#231f20;fill-opacity:1;fill-rule:nonzero;stroke:none"
         d="m 1699.58,426.617 c -45.75,0 -93.01,22.071 -115.61,38.426 8.91,7.285 12.6,9.426 22.6,22.605 7.35,10 12.09,26.293 12.09,26.293 9.43,-27.843 37.81,-55.23 88.82,-55.23 50.97,0 86.73,38.402 86.73,74.164 0,88.398 -193.44,47.91 -193.44,169.43 0,65.789 57.77,102.086 134.55,102.086 41.02,0 75.22,-12.926 99.4,-28.914 -11.08,-8.969 -12.65,-9.485 -19.51,-19.508 -5.22,-7.879 -11.54,-24.746 -11.54,-24.746 -10.02,24.746 -31.57,47.39 -72.54,47.39 -41.51,0 -70.98,-25.781 -70.98,-57.871 0,-87.879 200.85,-52.633 200.31,-166.828 -0.52,-89.965 -64.72,-127.297 -160.88,-127.297" /><path
         id="path292"
         style="fill:#231f20;fill-opacity:1;fill-rule:nonzero;stroke:none"
         d="m 2228.67,434.844 c -7.34,0.996 -14.71,2.621 -21.57,2.621 -7.31,0 -14.69,-1.625 -22.03,-2.621 -25.24,91.875 -54.13,184.289 -86.16,279.32 h -1.08 c -19.44,-59.902 -66.17,-193.242 -91.93,-279.32 -7.36,0.996 -14.21,2.621 -22.07,2.621 -6.85,0 -14.72,-1.625 -21.55,-2.621 -14.73,56.648 -36.26,139.613 -63.61,228.906 -8.39,28.344 -39.36,113.906 -47.79,133.34 11.57,-1.57 28.9,-2.602 39.95,-2.602 11.03,0 22.05,1.032 33.08,2.602 23.14,-98.152 46.74,-184.824 76.73,-288.27 h 1.04 c 23.67,73.016 78.31,236.821 91.42,288.27 6.84,-1.57 13.67,-2.602 20.99,-2.602 6.85,0 13.69,1.032 20.54,2.602 12.07,-51.965 70.43,-226.309 88.24,-288.27 h 1.06 c 20.49,67.758 73.05,244.7 82.49,288.27 6.34,-1.57 13.17,-2.602 19.45,-2.602 6.82,0 13.15,1.032 20.5,2.602 -16.82,-45.137 -93.01,-276.66 -117.7,-362.246" /><path
         id="path294"
         style="fill:#231f20;fill-opacity:1;fill-rule:nonzero;stroke:none"
         d="m 1272.08,334 c -3.12,1.938 -6.58,3.605 -10.29,4.984 -3.23,1.18 -6.36,2.59 -9.33,4.192 -2.68,1.457 -4.92,3.25 -6.66,5.297 -1.53,1.832 -2.3,4.468 -2.3,7.851 0,1.965 0.33,3.817 0.99,5.465 0.68,1.668 1.57,3.031 2.79,4.191 1.21,1.176 2.6,2.071 4.27,2.731 3.12,1.246 7.67,1.285 10.33,0.039 1.36,-0.68 2.59,-1.543 3.63,-2.551 0.99,-0.984 1.79,-2.082 2.38,-3.219 0.65,-1.335 1.19,-2.558 1.58,-3.695 l 0.73,-2.078 h 6.27 l 0.49,2.484 c 0.49,2.454 1,4.465 1.49,6.079 0.45,1.492 1.02,2.914 1.72,4.253 l 1.14,2.215 -1.93,1.594 c -2.85,2.34 -5.98,4.109 -9.36,5.25 -6.78,2.293 -17.02,2.313 -24.35,-0.355 -3.79,-1.36 -7.1,-3.305 -9.84,-5.782 -2.77,-2.488 -4.92,-5.507 -6.4,-8.988 -1.43,-3.41 -2.16,-7.227 -2.16,-11.348 0,-5.824 1.18,-10.586 3.52,-14.16 2.24,-3.433 5.08,-6.308 8.43,-8.531 3.18,-2.102 6.66,-3.883 10.33,-5.285 3.35,-1.281 6.51,-2.703 9.4,-4.215 2.68,-1.418 4.85,-3.137 6.64,-5.234 1.52,-1.813 2.3,-4.399 2.3,-7.7 0,-2.254 -0.38,-4.425 -1.1,-6.441 -0.72,-1.938 -1.74,-3.645 -3.06,-5.07 -1.29,-1.399 -2.9,-2.539 -4.77,-3.375 -3.76,-1.676 -8.99,-1.629 -12.84,-0.192 -1.9,0.711 -3.59,1.641 -5.02,2.782 -1.42,1.121 -2.65,2.406 -3.65,3.804 -1.04,1.469 -1.86,2.895 -2.45,4.266 l -0.8,1.879 h -6.4 l -0.27,-2.789 c -0.24,-2.481 -0.52,-4.485 -0.79,-6.039 -0.28,-1.477 -0.76,-3.133 -1.48,-4.977 l -0.78,-2.059 1.7,-1.418 c 2.45,-2.042 5.42,-3.816 9.05,-5.429 3.74,-1.649 8.38,-2.442 14.2,-2.442 5.34,0 10.19,0.793 14.43,2.375 4.32,1.621 8.03,3.961 11.03,6.942 2.99,2.992 5.32,6.539 6.89,10.566 1.55,3.977 2.34,8.231 2.34,12.66 0,5.493 -1.21,10.016 -3.58,13.43 -2.24,3.238 -5.08,5.945 -8.46,8.043" /><path
         id="path296"
         style="fill:#231f20;fill-opacity:1;fill-rule:nonzero;stroke:none"
         d="m 1417.84,378.988 -2.43,0.508 -1.02,-2.262 c -1.7,-3.777 -3.54,-7.671 -5.49,-11.648 -1.98,-3.996 -4.01,-7.965 -6.15,-11.914 -2.13,-3.961 -4.28,-7.844 -6.4,-11.629 -1.15,-2.031 -2.29,-3.98 -3.39,-5.836 -3.53,6.375 -6.9,12.555 -10.11,18.527 -3.98,7.399 -7.9,14.957 -11.76,22.614 l -1,1.984 -5.64,-0.766 c -2.1,-0.23 -4.37,-0.222 -6.37,-0.011 l -9.97,1.39 3.39,-5.586 c 0.86,-1.418 2.1,-3.492 3.72,-6.25 l 23.79,-41.011 c 1.43,-2.446 2.55,-4.391 3.38,-5.836 0,-6.856 -0.05,-13.422 -0.12,-19.707 -0.08,-6.407 -0.39,-11.926 -0.88,-16.422 l -0.42,-3.77 3.77,0.348 c 3.77,0.344 8.29,0.344 12.07,0 l 3.7,-0.348 -0.34,3.7 c -0.16,1.824 -0.31,4.238 -0.44,7.23 -0.13,3.027 -0.23,6.324 -0.32,9.902 -0.09,3.567 -0.15,7.196 -0.19,10.899 -0.04,3.422 -0.07,6.664 -0.07,9.719 1.29,2.542 2.8,5.359 4.51,8.453 1.88,3.379 4.06,7.183 6.55,11.41 2.48,4.234 5.34,8.933 8.59,14.121 3.26,5.223 6.94,11.043 11.07,17.492 l 3.98,6.203 -7.21,-1.504 c -4.7,-0.988 -4.08,-1.008 -8.8,0" /><path
         id="path298"
         style="fill:#231f20;fill-opacity:1;fill-rule:nonzero;stroke:none"
         d="m 1568.67,311.82 c -2.17,-5.074 -4.98,-9.09 -8.33,-11.937 -3.34,-2.856 -7.18,-4.82 -11.42,-5.848 -7.65,-1.879 -15.51,-1.84 -22.78,-1.312 -1.76,0.125 -3.3,0.289 -4.61,0.492 -0.43,8.269 -0.64,16.859 -0.64,25.543 v 22.836 c 0,4.746 0.07,9.422 0.18,14.031 0.11,3.684 0.26,7.25 0.44,10.68 1.95,0.222 4.07,0.422 6.34,0.605 7.65,0.602 17.23,0.621 24.54,-1.18 4.02,-0.996 7.36,-2.722 10.23,-5.273 2.82,-2.527 5.1,-6.066 6.77,-10.523 1.71,-4.594 2.58,-10.614 2.58,-17.899 0,-8.281 -1.11,-15.078 -3.3,-20.215 z m 11.38,54.477 v 0.008 c -3.75,4.093 -8.6,7.289 -14.42,9.5 -8.1,3.058 -19.32,3.613 -30.45,2.914 -6.32,-0.449 -12.8,-0.383 -19.11,-0.145 -3.23,0.145 -6.46,0.297 -9.71,0.473 l -3.4,0.18 0.86,-20.571 c 0.2,-5.57 0.31,-11.273 0.31,-17.062 v -22.836 c 0,-5.797 -0.11,-11.5 -0.31,-17.121 -0.22,-5.664 -0.46,-11.223 -0.71,-16.707 l -0.16,-3.442 3.44,0.211 c 2.85,0.184 5.67,0.278 8.44,0.278 h 8.65 c 2.89,0 5.73,-0.047 8.54,-0.133 8.03,-0.239 16.48,-0.231 25.5,2.301 5.9,1.648 11.39,4.496 16.33,8.464 4.92,3.989 9.02,9.27 12.18,15.704 3.15,6.449 4.75,14.433 4.75,23.722 0,7.074 -0.84,13.547 -2.5,19.25 -1.72,5.867 -4.49,10.918 -8.23,15.012" /><path
         id="path300"
         style="fill:#231f20;fill-opacity:1;fill-rule:nonzero;stroke:none"
         d="m 1743.99,378.383 c -0.97,0 -2.18,0.191 -3.61,0.566 l -4.1,1.074 0.23,-4.238 c 0.43,-7.754 0.72,-15.996 0.84,-24.758 0.13,-8.785 0.19,-17.812 0.19,-27.089 v -10.336 c -2.6,2.769 -5.43,5.828 -8.48,9.164 l -16.76,18.433 c -5.89,6.5 -11.81,13.106 -17.79,19.766 l -17.74,19.805 h -6.72 l 0.18,-3.258 c 0.17,-2.973 0.28,-7.477 0.33,-13.52 0.04,-6.105 0.06,-13.39 0.06,-21.875 0,-2.894 -0.04,-6.199 -0.13,-9.871 l -0.31,-11.391 c -0.14,-3.871 -0.32,-7.734 -0.52,-11.609 l -0.58,-10.816 c -0.17,-3.282 -0.37,-6.09 -0.58,-8.457 -0.2,-2.243 -0.38,-3.778 -0.54,-4.61 l -0.78,-4.172 4.21,0.528 c 2.59,0.336 5.9,0.355 8.49,0 l 4.01,-0.528 -0.54,4.008 c -0.09,0.668 -0.16,1.926 -0.23,3.766 l -0.52,15.551 c -0.08,3.093 -0.15,6.132 -0.2,9.125 l -0.12,8.629 c -0.04,2.71 -0.06,5 -0.06,6.851 0,7.133 0.04,12.77 0.12,16.91 l 0.05,2.297 c 9.46,-10.34 18.91,-20.73 28.36,-31.172 11.1,-12.258 21.7,-24.394 31.52,-36.07 l 0.92,-1.102 h 6.34 v 7.457 c 0,2.137 -0.03,4.661 -0.07,7.543 l -0.25,19.184 c -0.05,3.25 -0.06,6.383 -0.06,9.387 v 7.953 c 0,2.531 0.09,5.902 0.24,10.086 0.18,4.234 0.38,8.558 0.58,12.98 0.23,4.418 0.44,8.559 0.66,12.461 0.2,3.852 0.4,6.738 0.56,8.653 l 0.38,4.375 -4.24,-1.114 c -1.86,-0.488 -2.89,-0.566 -3.34,-0.566" /><path
         id="path302"
         style="fill:#231f20;fill-opacity:1;fill-rule:nonzero;stroke:none"
         d="m 1885.48,291.555 1.31,4.886 -4.94,-1.062 c -1.95,-0.414 -4.25,-0.727 -6.89,-0.941 -2.75,-0.208 -5.69,-0.383 -8.79,-0.516 -3.09,-0.137 -6.25,-0.199 -9.46,-0.199 h -6.06 c -0.03,1.254 -0.06,2.711 -0.08,4.379 -0.04,3.257 -0.06,7.41 -0.06,12.433 v 13.141 c 0,1.179 0.01,2.168 0.04,2.992 0.95,-0.012 2.02,-0.031 3.19,-0.039 l 8.4,-0.137 c 2.91,-0.047 5.84,-0.16 8.75,-0.332 2.89,-0.172 5.44,-0.383 7.62,-0.64 l 4.19,-0.508 -0.79,4.148 c -0.21,1.133 -0.33,2.27 -0.33,3.403 0,1.218 0.12,2.406 0.33,3.535 l 0.77,4.027 -4.09,-0.375 c -1.85,-0.172 -3.82,-0.324 -5.9,-0.449 l -6.86,-0.403 c -2.47,-0.125 -5.2,-0.238 -8.18,-0.335 -2.15,-0.055 -4.5,-0.094 -7.03,-0.114 -0.01,1.254 -0.03,2.711 -0.05,4.371 -0.04,3.258 -0.06,6.614 -0.06,10.047 0,3.211 0.06,6.086 0.18,8.598 0.09,1.668 0.17,3.383 0.23,5.156 2.9,-0.019 5.47,-0.086 7.71,-0.191 2.98,-0.125 5.72,-0.278 8.25,-0.461 l 7.18,-0.516 c 2.29,-0.183 4.82,-0.375 7.6,-0.547 l 3.99,-0.25 -0.78,3.942 c -0.21,1.129 -0.32,2.254 -0.32,3.382 0,1.129 0.11,2.243 0.32,3.375 l 0.77,3.864 -15.37,-0.645 c -7.49,-0.25 -15.25,-0.25 -22.8,0 -3.82,0.145 -7.67,0.297 -11.52,0.473 l -3.38,0.152 0.15,-3.375 c 0.26,-5.664 0.49,-11.312 0.72,-16.965 0.2,-5.629 0.31,-11.332 0.31,-17.14 v -22.828 c 0,-5.789 -0.11,-11.493 -0.31,-17.051 -0.23,-5.617 -0.46,-11.242 -0.72,-16.918 l -0.15,-3.375 3.38,0.152 c 3.91,0.184 7.76,0.278 11.59,0.278 h 23.41 c 3.78,0 7.59,-0.094 11.39,-0.278 l 4.3,-0.199 -1.18,4.129 c -0.12,0.43 -0.26,1.238 -0.26,2.617 l 0.05,1.879 0.23,1.43" /><path
         id="path304"
         style="fill:#231f20;fill-opacity:1;fill-rule:nonzero;stroke:none"
         d="m 2028.49,378.988 c -4.69,-0.988 -4.08,-1.008 -8.8,0 l -2.42,0.508 -1.03,-2.262 c -1.71,-3.777 -3.54,-7.671 -5.5,-11.648 -1.96,-3.996 -4,-7.965 -6.13,-11.914 -2.15,-3.961 -4.3,-7.844 -6.42,-11.629 -1.15,-2.031 -2.28,-3.98 -3.39,-5.828 -3.51,6.367 -6.89,12.547 -10.1,18.519 -3.99,7.399 -7.89,14.957 -11.76,22.614 l -1,1.984 -5.63,-0.766 c -2.11,-0.23 -4.39,-0.222 -6.39,-0.011 l -9.97,1.39 3.4,-5.586 c 0.86,-1.414 2.1,-3.492 3.72,-6.261 l 23.79,-41 c 1.43,-2.446 2.55,-4.391 3.38,-5.848 0,-6.844 -0.04,-13.41 -0.13,-19.695 -0.08,-6.36 -0.37,-11.879 -0.88,-16.422 l -0.42,-3.77 3.77,0.348 c 3.78,0.352 8.3,0.352 12.07,0 l 3.7,-0.348 -0.34,3.7 c -0.16,1.824 -0.3,4.25 -0.44,7.218 -0.12,3.039 -0.23,6.336 -0.31,9.903 -0.09,3.578 -0.16,7.207 -0.2,10.918 -0.03,3.425 -0.05,6.656 -0.05,9.711 1.28,2.542 2.79,5.359 4.5,8.453 1.87,3.379 4.06,7.183 6.55,11.41 2.47,4.234 5.33,8.933 8.58,14.121 3.27,5.223 6.96,11.043 11.09,17.492 l 3.96,6.203 -7.2,-1.504" /></g></g></svg>