<?xml version="1.0" encoding="UTF-8" standalone="no"?>
<svg
   xmlns:dc="http://purl.org/dc/elements/1.1/"
   xmlns:cc="http://creativecommons.org/ns#"
   xmlns:rdf="http://www.w3.org/1999/02/22-rdf-syntax-ns#"
   xmlns:svg="http://www.w3.org/2000/svg"
   xmlns="http://www.w3.org/2000/svg"
   viewBox="0 0 217.8 255.12"
   height="255.12"
   width="217.8"
   xml:space="preserve"
   id="svg2"
   version="1.1"><metadata
     id="metadata8"><rdf:RDF><cc:Work
         rdf:about=""><dc:format>image/svg+xml</dc:format><dc:type
           rdf:resource="http://purl.org/dc/dcmitype/StillImage" /></cc:Work></rdf:RDF></metadata><defs
     id="defs6"><clipPath
       id="clipPath34"
       clipPathUnits="userSpaceOnUse"><path
         id="path32"
         d="m 578.207,1096.39 c -14.187,6.77 -22.996,20.49 -22.996,35.78 v 420.14 h 533.679 v -420.92 c 0,-15.11 -9.07,-29.17 -23.1,-35.83 L 822.086,979.977 Z" /></clipPath><radialGradient
       id="radialGradient54"
       spreadMethod="pad"
       gradientTransform="matrix(0.00220619,0,0,-0.00213242,652.073,1378.27)"
       gradientUnits="userSpaceOnUse"
       r="1"
       cy="0"
       cx="0"
       fy="0"
       fx="0"><stop
         id="stop46"
         offset="0"
         style="stop-opacity:1;stop-color:#f2edbc" /><stop
         id="stop48"
         offset="0.0175881"
         style="stop-opacity:1;stop-color:#f2edbc" /><stop
         id="stop50"
         offset="0.969325"
         style="stop-opacity:1;stop-color:#a89b11" /><stop
         id="stop52"
         offset="1"
         style="stop-opacity:1;stop-color:#a89b11" /></radialGradient><radialGradient
       id="radialGradient66"
       spreadMethod="pad"
       gradientTransform="matrix(8.001e-4,0,0,-7.734e-4,652.214,1378.55)"
       gradientUnits="userSpaceOnUse"
       r="1"
       cy="0"
       cx="0"
       fy="0"
       fx="0"><stop
         id="stop58"
         offset="0"
         style="stop-opacity:1;stop-color:#f2edbc" /><stop
         id="stop60"
         offset="0.0175881"
         style="stop-opacity:1;stop-color:#f2edbc" /><stop
         id="stop62"
         offset="0.969325"
         style="stop-opacity:1;stop-color:#a89b11" /><stop
         id="stop64"
         offset="1"
         style="stop-opacity:1;stop-color:#a89b11" /></radialGradient><radialGradient
       id="radialGradient78"
       spreadMethod="pad"
       gradientTransform="matrix(8.001e-4,0,0,-7.734e-4,913.381,1365.72)"
       gradientUnits="userSpaceOnUse"
       r="1"
       cy="0"
       cx="0"
       fy="0"
       fx="0"><stop
         id="stop70"
         offset="0"
         style="stop-opacity:1;stop-color:#f2edbc" /><stop
         id="stop72"
         offset="0.0175881"
         style="stop-opacity:1;stop-color:#f2edbc" /><stop
         id="stop74"
         offset="0.969325"
         style="stop-opacity:1;stop-color:#a89b11" /><stop
         id="stop76"
         offset="1"
         style="stop-opacity:1;stop-color:#a89b11" /></radialGradient><radialGradient
       id="radialGradient90"
       spreadMethod="pad"
       gradientTransform="matrix(8.001e-4,0,0,-7.734e-4,651.238,1377.3)"
       gradientUnits="userSpaceOnUse"
       r="1"
       cy="0"
       cx="0"
       fy="0"
       fx="0"><stop
         id="stop82"
         offset="0"
         style="stop-opacity:1;stop-color:#f2edbc" /><stop
         id="stop84"
         offset="0.0175881"
         style="stop-opacity:1;stop-color:#f2edbc" /><stop
         id="stop86"
         offset="0.969325"
         style="stop-opacity:1;stop-color:#a89b11" /><stop
         id="stop88"
         offset="1"
         style="stop-opacity:1;stop-color:#a89b11" /></radialGradient><radialGradient
       id="radialGradient102"
       spreadMethod="pad"
       gradientTransform="matrix(167.05,0,0,-161.464,823.77,1292.27)"
       gradientUnits="userSpaceOnUse"
       r="1"
       cy="0"
       cx="0"
       fy="0"
       fx="0"><stop
         id="stop94"
         offset="0"
         style="stop-opacity:1;stop-color:#f2edbc" /><stop
         id="stop96"
         offset="0.0175881"
         style="stop-opacity:1;stop-color:#f2edbc" /><stop
         id="stop98"
         offset="0.969325"
         style="stop-opacity:1;stop-color:#a89b11" /><stop
         id="stop100"
         offset="1"
         style="stop-opacity:1;stop-color:#a89b11" /></radialGradient><radialGradient
       id="radialGradient114"
       spreadMethod="pad"
       gradientTransform="matrix(8.001e-4,0,0,-7.734e-4,914.609,1366.2)"
       gradientUnits="userSpaceOnUse"
       r="1"
       cy="0"
       cx="0"
       fy="0"
       fx="0"><stop
         id="stop106"
         offset="0"
         style="stop-opacity:1;stop-color:#f2edbc" /><stop
         id="stop108"
         offset="0.0175881"
         style="stop-opacity:1;stop-color:#f2edbc" /><stop
         id="stop110"
         offset="0.969325"
         style="stop-opacity:1;stop-color:#a89b11" /><stop
         id="stop112"
         offset="1"
         style="stop-opacity:1;stop-color:#a89b11" /></radialGradient><radialGradient
       id="radialGradient126"
       spreadMethod="pad"
       gradientTransform="matrix(8.001e-4,0,0,-7.734e-4,902.122,1368.4)"
       gradientUnits="userSpaceOnUse"
       r="1"
       cy="0"
       cx="0"
       fy="0"
       fx="0"><stop
         id="stop118"
         offset="0"
         style="stop-opacity:1;stop-color:#f2edbc" /><stop
         id="stop120"
         offset="0.0175881"
         style="stop-opacity:1;stop-color:#f2edbc" /><stop
         id="stop122"
         offset="0.969325"
         style="stop-opacity:1;stop-color:#a89b11" /><stop
         id="stop124"
         offset="1"
         style="stop-opacity:1;stop-color:#a89b11" /></radialGradient><radialGradient
       id="radialGradient138"
       spreadMethod="pad"
       gradientTransform="matrix(8.001e-4,0,0,-7.734e-4,929.612,1299.47)"
       gradientUnits="userSpaceOnUse"
       r="1"
       cy="0"
       cx="0"
       fy="0"
       fx="0"><stop
         id="stop130"
         offset="0"
         style="stop-opacity:1;stop-color:#f2edbc" /><stop
         id="stop132"
         offset="0.0175881"
         style="stop-opacity:1;stop-color:#f2edbc" /><stop
         id="stop134"
         offset="0.969325"
         style="stop-opacity:1;stop-color:#a89b11" /><stop
         id="stop136"
         offset="1"
         style="stop-opacity:1;stop-color:#a89b11" /></radialGradient><radialGradient
       id="radialGradient150"
       spreadMethod="pad"
       gradientTransform="matrix(8.001e-4,0,0,-7.734e-4,956.436,1383.31)"
       gradientUnits="userSpaceOnUse"
       r="1"
       cy="0"
       cx="0"
       fy="0"
       fx="0"><stop
         id="stop142"
         offset="0"
         style="stop-opacity:1;stop-color:#f2edbc" /><stop
         id="stop144"
         offset="0.0175881"
         style="stop-opacity:1;stop-color:#f2edbc" /><stop
         id="stop146"
         offset="0.969325"
         style="stop-opacity:1;stop-color:#a89b11" /><stop
         id="stop148"
         offset="1"
         style="stop-opacity:1;stop-color:#a89b11" /></radialGradient><radialGradient
       id="radialGradient162"
       spreadMethod="pad"
       gradientTransform="matrix(0.180708,0,0,-0.174665,835.222,1184.26)"
       gradientUnits="userSpaceOnUse"
       r="1"
       cy="0"
       cx="0"
       fy="0"
       fx="0"><stop
         id="stop154"
         offset="0"
         style="stop-opacity:1;stop-color:#f2edbc" /><stop
         id="stop156"
         offset="0.0175881"
         style="stop-opacity:1;stop-color:#f2edbc" /><stop
         id="stop158"
         offset="0.969325"
         style="stop-opacity:1;stop-color:#a89b11" /><stop
         id="stop160"
         offset="1"
         style="stop-opacity:1;stop-color:#a89b11" /></radialGradient><radialGradient
       id="radialGradient174"
       spreadMethod="pad"
       gradientTransform="matrix(8.001e-4,0,0,-7.734e-4,658.418,1352.71)"
       gradientUnits="userSpaceOnUse"
       r="1"
       cy="0"
       cx="0"
       fy="0"
       fx="0"><stop
         id="stop166"
         offset="0"
         style="stop-opacity:1;stop-color:#f2edbc" /><stop
         id="stop168"
         offset="0.0175881"
         style="stop-opacity:1;stop-color:#f2edbc" /><stop
         id="stop170"
         offset="0.969325"
         style="stop-opacity:1;stop-color:#a89b11" /><stop
         id="stop172"
         offset="1"
         style="stop-opacity:1;stop-color:#a89b11" /></radialGradient><radialGradient
       id="radialGradient186"
       spreadMethod="pad"
       gradientTransform="matrix(8.001e-4,0,0,-7.734e-4,643.357,1390.32)"
       gradientUnits="userSpaceOnUse"
       r="1"
       cy="0"
       cx="0"
       fy="0"
       fx="0"><stop
         id="stop178"
         offset="0"
         style="stop-opacity:1;stop-color:#f2edbc" /><stop
         id="stop180"
         offset="0.0175881"
         style="stop-opacity:1;stop-color:#f2edbc" /><stop
         id="stop182"
         offset="0.969325"
         style="stop-opacity:1;stop-color:#a89b11" /><stop
         id="stop184"
         offset="1"
         style="stop-opacity:1;stop-color:#a89b11" /></radialGradient><radialGradient
       id="radialGradient198"
       spreadMethod="pad"
       gradientTransform="matrix(8.001e-4,0,0,-7.734e-4,654.202,1353.08)"
       gradientUnits="userSpaceOnUse"
       r="1"
       cy="0"
       cx="0"
       fy="0"
       fx="0"><stop
         id="stop190"
         offset="0"
         style="stop-opacity:1;stop-color:#f2edbc" /><stop
         id="stop192"
         offset="0.0175881"
         style="stop-opacity:1;stop-color:#f2edbc" /><stop
         id="stop194"
         offset="0.969325"
         style="stop-opacity:1;stop-color:#a89b11" /><stop
         id="stop196"
         offset="1"
         style="stop-opacity:1;stop-color:#a89b11" /></radialGradient></defs><g
     transform="matrix(1.3333333,0,0,-1.3333333,0,255.12)"
     id="g10"><g
       transform="scale(0.1)"
       id="g12"><path
         id="path14"
         style="fill:#231f20;fill-opacity:1;fill-rule:nonzero;stroke:none"
         d="m 456.488,243.48 c -3.183,1.981 -6.718,3.68 -10.508,5.09 -3.289,1.211 -6.492,2.641 -9.531,4.282 -2.734,1.488 -5.019,3.32 -6.785,5.41 -1.574,1.867 -2.363,4.558 -2.363,8.019 0,2 0.34,3.891 1.023,5.578 0.684,1.7 1.602,3.09 2.832,4.282 1.242,1.199 2.668,2.109 4.375,2.781 3.176,1.277 7.824,1.316 10.539,0.039 1.395,-0.691 2.657,-1.57 3.711,-2.602 1.016,-1.007 1.824,-2.121 2.43,-3.289 0.664,-1.359 1.211,-2.609 1.613,-3.769 l 0.742,-2.121 h 6.407 l 0.507,2.531 c 0.497,2.508 1.016,4.57 1.512,6.211 0.461,1.527 1.047,2.969 1.758,4.348 l 1.164,2.261 -1.965,1.617 c -2.91,2.391 -6.121,4.204 -9.558,5.364 -6.926,2.34 -17.383,2.359 -24.864,-0.364 -3.867,-1.386 -7.246,-3.367 -10.05,-5.898 -2.832,-2.539 -5.028,-5.629 -6.532,-9.18 -1.465,-3.492 -2.218,-7.379 -2.218,-11.59 0,-5.941 1.211,-10.8 3.605,-14.46 2.285,-3.5 5.176,-6.442 8.602,-8.711 3.261,-2.137 6.808,-3.957 10.558,-5.387 3.418,-1.313 6.649,-2.762 9.59,-4.313 2.742,-1.449 4.961,-3.199 6.777,-5.339 1.551,-1.848 2.352,-4.489 2.352,-7.86 0,-2.301 -0.379,-4.519 -1.133,-6.582 -0.723,-1.976 -1.777,-3.719 -3.113,-5.18 -1.32,-1.429 -2.961,-2.589 -4.883,-3.437 -3.828,-1.711 -9.172,-1.672 -13.098,-0.199 -1.953,0.726 -3.66,1.679 -5.125,2.84 -1.457,1.148 -2.714,2.457 -3.73,3.878 -1.066,1.5 -1.906,2.961 -2.5,4.36 l -0.82,1.922 h -6.536 l -0.281,-2.852 c -0.246,-2.531 -0.519,-4.582 -0.801,-6.16 -0.285,-1.512 -0.781,-3.211 -1.503,-5.09 l -0.793,-2.101 1.73,-1.45 c 2.508,-2.078 5.527,-3.89 9.238,-5.539 3.817,-1.679 8.563,-2.488 14.5,-2.488 5.442,0 10.403,0.809 14.739,2.418 4.414,1.66 8.203,4.051 11.257,7.09 3.059,3.051 5.43,6.672 7.032,10.789 1.582,4.062 2.394,8.402 2.394,12.93 0,5.613 -1.23,10.23 -3.664,13.711 -2.273,3.308 -5.183,6.07 -8.633,8.21" /><path
         id="path16"
         style="fill:#231f20;fill-opacity:1;fill-rule:nonzero;stroke:none"
         d="m 605.328,289.422 -2.48,0.519 -1.047,-2.32 c -1.746,-3.851 -3.613,-7.82 -5.613,-11.891 -2.012,-4.082 -4.094,-8.128 -6.27,-12.16 -2.188,-4.05 -4.375,-8.011 -6.543,-11.879 -1.172,-2.07 -2.336,-4.062 -3.457,-5.961 -3.594,6.508 -7.043,12.829 -10.324,18.918 -4.071,7.563 -8.067,15.274 -12,23.09 l -1.028,2.032 -5.75,-0.782 c -2.148,-0.238 -4.472,-0.226 -6.515,-0.008 l -10.184,1.418 3.477,-5.707 c 0.867,-1.453 2.136,-3.562 3.797,-6.382 L 565.68,236.43 c 1.453,-2.489 2.597,-4.481 3.445,-5.961 0,-7 -0.039,-13.699 -0.125,-20.117 -0.078,-6.543 -0.391,-12.18 -0.898,-16.774 l -0.43,-3.84 3.855,0.352 c 3.84,0.351 8.457,0.351 12.325,0 l 3.769,-0.352 -0.34,3.774 c -0.168,1.859 -0.312,4.328 -0.449,7.379 -0.137,3.097 -0.234,6.461 -0.324,10.109 -0.098,3.648 -0.156,7.352 -0.203,11.129 -0.039,3.5 -0.059,6.812 -0.059,9.93 1.309,2.589 2.852,5.472 4.598,8.632 1.926,3.45 4.152,7.329 6.691,11.649 2.528,4.332 5.449,9.121 8.77,14.422 3.328,5.328 7.09,11.269 11.308,17.859 l 4.051,6.34 -7.351,-1.539 c -4.797,-1.012 -4.172,-1.031 -8.985,0" /><path
         id="path18"
         style="fill:#231f20;fill-opacity:1;fill-rule:nonzero;stroke:none"
         d="m 759.332,220.832 c -2.219,-5.184 -5.078,-9.281 -8.508,-12.184 -3.406,-2.918 -7.324,-4.929 -11.66,-5.968 -7.812,-1.918 -15.84,-1.879 -23.25,-1.348 -1.797,0.129 -3.379,0.297 -4.719,0.496 -0.429,8.453 -0.652,17.223 -0.652,26.094 v 23.308 c 0,4.848 0.066,9.622 0.195,14.329 0.106,3.761 0.254,7.402 0.438,10.91 1.992,0.222 4.152,0.429 6.476,0.621 7.813,0.609 17.586,0.629 25.059,-1.211 4.102,-1.02 7.519,-2.777 10.437,-5.379 2.883,-2.59 5.215,-6.199 6.926,-10.75 1.739,-4.691 2.625,-10.84 2.625,-18.27 0,-8.46 -1.133,-15.402 -3.367,-20.648 z m 11.621,55.629 -0.012,0.008 c -3.816,4.179 -8.769,7.441 -14.707,9.703 -8.269,3.117 -19.734,3.687 -31.101,2.969 -6.445,-0.461 -13.067,-0.391 -19.504,-0.141 -3.301,0.141 -6.602,0.301 -9.922,0.48 l -3.465,0.18 0.879,-21 c 0.203,-5.691 0.313,-11.512 0.313,-17.43 v -23.308 c 0,-5.922 -0.11,-11.75 -0.313,-17.481 -0.226,-5.793 -0.48,-11.461 -0.734,-17.062 l -0.164,-3.52 3.515,0.223 c 2.91,0.18 5.789,0.277 8.621,0.277 h 8.829 c 2.949,0 5.851,-0.05 8.722,-0.129 8.203,-0.25 16.817,-0.242 26.035,2.34 6.024,1.692 11.629,4.59 16.668,8.649 5.032,4.07 9.219,9.461 12.434,16.031 3.23,6.59 4.871,14.738 4.871,24.23 0,7.219 -0.867,13.829 -2.566,19.649 -1.75,5.992 -4.582,11.152 -8.399,15.332" /><path
         id="path20"
         style="fill:#231f20;fill-opacity:1;fill-rule:nonzero;stroke:none"
         d="m 938.355,288.801 c -0.996,0 -2.238,0.199 -3.691,0.578 l -4.191,1.09 0.246,-4.321 c 0.437,-7.918 0.722,-16.339 0.847,-25.289 0.137,-8.961 0.196,-18.179 0.196,-27.66 v -10.551 c -2.657,2.832 -5.547,5.954 -8.66,9.364 l -17.11,18.82 c -6.015,6.637 -12.062,13.379 -18.164,20.188 l -18.117,20.218 h -6.856 l 0.188,-3.328 c 0.164,-3.031 0.281,-7.629 0.32,-13.801 0.051,-6.238 0.071,-13.679 0.071,-22.339 0,-2.95 -0.051,-6.329 -0.129,-10.079 l -0.332,-11.632 c -0.125,-3.95 -0.313,-7.899 -0.528,-11.848 l -0.586,-11.051 c -0.175,-3.351 -0.371,-6.219 -0.593,-8.629 -0.196,-2.293 -0.383,-3.859 -0.547,-4.711 l -0.801,-4.261 4.297,0.543 c 2.656,0.339 6.035,0.359 8.672,0 l 4.09,-0.543 -0.547,4.089 c -0.086,0.692 -0.157,1.973 -0.242,3.852 l -0.52,15.871 c -0.086,3.168 -0.145,6.27 -0.203,9.32 l -0.129,8.809 c -0.047,2.77 -0.066,5.109 -0.066,7 0,7.281 0.046,13.039 0.136,17.27 l 0.047,2.351 c 9.649,-10.57 19.309,-21.18 28.957,-31.84 11.328,-12.511 22.156,-24.91 32.176,-36.832 l 0.949,-1.117 h 6.473 v 7.609 c 0,2.18 -0.028,4.758 -0.067,7.707 l -0.253,19.582 c -0.059,3.321 -0.071,6.52 -0.071,9.579 v 8.132 c 0,2.579 0.09,6.028 0.254,10.289 0.176,4.329 0.371,8.739 0.586,13.258 0.227,4.512 0.441,8.742 0.664,12.723 0.207,3.937 0.41,6.879 0.586,8.84 l 0.383,4.461 -4.328,-1.133 c -1.903,-0.5 -2.957,-0.578 -3.407,-0.578" /><path
         id="path22"
         style="fill:#231f20;fill-opacity:1;fill-rule:nonzero;stroke:none"
         d="m 1082.82,200.141 1.35,4.988 -5.06,-1.078 c -1.99,-0.422 -4.33,-0.75 -7.03,-0.961 -2.81,-0.219 -5.81,-0.391 -8.97,-0.531 -3.16,-0.137 -6.38,-0.207 -9.67,-0.207 h -6.18 c -0.04,1.289 -0.07,2.769 -0.09,4.476 -0.04,3.32 -0.06,7.563 -0.06,12.692 v 13.421 c 0,1.2 0.01,2.207 0.04,3.047 0.98,-0.008 2.06,-0.027 3.27,-0.027 l 8.57,-0.141 c 2.97,-0.05 5.97,-0.172 8.93,-0.351 2.95,-0.168 5.56,-0.387 7.79,-0.649 l 4.27,-0.519 -0.8,4.238 c -0.22,1.152 -0.34,2.32 -0.34,3.473 0,1.25 0.12,2.457 0.34,3.617 l 0.78,4.109 -4.16,-0.379 c -1.9,-0.179 -3.91,-0.339 -6.04,-0.468 l -7,-0.411 c -2.53,-0.121 -5.31,-0.242 -8.36,-0.339 -2.19,-0.063 -4.58,-0.102 -7.18,-0.121 -0.01,1.281 -0.03,2.769 -0.05,4.468 -0.04,3.332 -0.06,6.75 -0.06,10.25 0,3.282 0.06,6.223 0.19,8.782 0.09,1.71 0.17,3.46 0.23,5.269 2.96,-0.019 5.59,-0.09 7.88,-0.199 3.04,-0.121 5.84,-0.281 8.41,-0.461 l 7.34,-0.527 c 2.34,-0.192 4.92,-0.383 7.76,-0.563 l 4.08,-0.258 -0.79,4.028 c -0.22,1.152 -0.33,2.3 -0.33,3.453 0,1.16 0.11,2.289 0.33,3.449 l 0.78,3.937 -15.7,-0.648 c -7.65,-0.262 -15.57,-0.262 -23.28,0 -3.9,0.141 -7.82,0.301 -11.77,0.48 l -3.45,0.149 0.16,-3.438 c 0.26,-5.793 0.51,-11.55 0.73,-17.332 0.21,-5.738 0.32,-11.57 0.32,-17.5 v -23.3 c 0,-5.918 -0.11,-11.739 -0.32,-17.418 -0.22,-5.731 -0.47,-11.481 -0.73,-17.27 l -0.16,-3.449 3.46,0.16 c 4,0.18 7.93,0.277 11.84,0.277 h 23.89 c 3.86,0 7.75,-0.097 11.64,-0.277 l 4.39,-0.211 -1.2,4.219 c -0.13,0.441 -0.28,1.262 -0.28,2.672 l 0.06,1.918 0.23,1.461" /><path
         id="path24"
         style="fill:#231f20;fill-opacity:1;fill-rule:nonzero;stroke:none"
         d="m 1228.85,289.422 c -4.79,-1.012 -4.17,-1.031 -8.99,0 l -2.47,0.519 -1.05,-2.32 c -1.75,-3.851 -3.62,-7.82 -5.61,-11.891 -2.01,-4.082 -4.09,-8.128 -6.27,-12.16 -2.19,-4.05 -4.38,-8.011 -6.55,-11.879 -1.18,-2.07 -2.33,-4.062 -3.45,-5.953 -3.6,6.5 -7.04,12.821 -10.32,18.91 -4.08,7.563 -8.07,15.274 -12.01,23.09 l -1.02,2.032 -5.75,-0.782 c -2.15,-0.238 -4.48,-0.226 -6.52,-0.008 l -10.18,1.418 3.46,-5.707 c 0.88,-1.441 2.15,-3.562 3.8,-6.39 l 24.3,-41.871 c 1.45,-2.489 2.6,-4.481 3.45,-5.969 0,-6.992 -0.05,-13.691 -0.14,-20.109 -0.08,-6.493 -0.38,-12.133 -0.9,-16.774 l -0.42,-3.84 3.85,0.352 c 3.86,0.359 8.48,0.359 12.32,0 l 3.77,-0.352 -0.34,3.774 c -0.16,1.859 -0.3,4.34 -0.45,7.367 -0.12,3.109 -0.23,6.473 -0.32,10.109 -0.09,3.66 -0.16,7.364 -0.2,11.153 -0.04,3.5 -0.06,6.8 -0.06,9.918 1.31,2.589 2.86,5.472 4.61,8.632 1.91,3.45 4.14,7.329 6.69,11.649 2.51,4.332 5.43,9.121 8.76,14.422 3.33,5.328 7.09,11.269 11.31,17.859 l 4.06,6.34 -7.36,-1.539" /><path
         id="path26"
         style="fill:#ffffff;fill-opacity:1;fill-rule:nonzero;stroke:none"
         d="m 528.93,1132.17 v 592.47 h 586.23 v -593.25 c 0,-24.91 -14.66,-47.65 -37.79,-58.62 L 822.047,951.668 566.578,1073.62 c -23.058,11.01 -37.648,33.7 -37.648,58.55" /><g
         id="g28"><g
           clip-path="url(#clipPath34)"
           id="g30"><path
             id="path36"
             style="fill:#db3921;fill-opacity:1;fill-rule:nonzero;stroke:none"
             d="M 713.785,1562.35 V 1378.02 H 528.93 V 1187.93 H 713.785 V 951.668 h 108.262 108.262 v 236.262 h 184.851 v 190.09 H 930.309 v 184.33 H 713.785" /></g></g><path
         id="path38"
         style="fill:#e6f7fd;fill-opacity:1;fill-rule:nonzero;stroke:none"
         d="M 1014.7,1016.27 822.047,924.891 629.398,1016.27 c -18.828,8.93 -40.878,8.9 -59.687,-0.08 L 531.02,997.723 c -1.278,-0.61 -2.09,-1.871 -2.09,-3.25 V 887.488 c 0,-10.758 11.691,-17.777 21.66,-13.008 l 19.121,9.122 c 18.809,8.976 40.859,9.007 59.687,0.078 l 176.114,-83.539 c 10.429,-4.942 22.636,-4.942 33.066,0 L 1014.7,883.68 c 18.83,8.929 40.88,8.898 59.68,-0.078 l 19.12,-9.122 c 9.98,-4.769 21.66,2.25 21.66,13.008 v 106.985 c 0,1.379 -0.81,2.64 -2.09,3.25 l -38.69,18.467 c -18.8,8.98 -40.85,9.01 -59.68,0.08" /><path
         id="path40"
         style="fill:#231f20;fill-opacity:1;fill-rule:nonzero;stroke:none"
         d="m 1044.46,1022.95 c -10.19,0 -20.37,-2.23 -29.76,-6.68 L 822.047,924.891 629.398,1016.27 c -9.382,4.45 -19.578,6.68 -29.765,6.68 -10.242,0 -20.488,-2.25 -29.922,-6.76 L 531.02,997.723 c -1.278,-0.61 -2.09,-1.871 -2.09,-3.25 V 887.488 c 0,-8.41 7.14,-14.527 15.019,-14.527 2.207,0 4.465,0.48 6.641,1.519 l 19.121,9.122 c 9.434,4.5 19.68,6.75 29.922,6.75 10.187,0 20.383,-2.223 29.765,-6.672 l 176.114,-83.539 c 5.215,-2.469 10.879,-3.7 16.535,-3.7 5.664,0 11.316,1.231 16.531,3.7 L 1014.7,883.68 c 9.39,4.449 19.57,6.672 29.76,6.672 10.25,0 20.5,-2.25 29.92,-6.75 l 19.12,-9.122 c 2.18,-1.039 4.44,-1.519 6.64,-1.519 7.89,0 15.02,6.117 15.02,14.527 v 106.985 c 0,1.379 -0.81,2.64 -2.09,3.25 l -38.69,18.467 c -9.42,4.5 -19.68,6.76 -29.92,6.76 z m 0,-5.41 c 9.47,0 18.95,-2.15 27.44,-6.19 l 37.68,-17.987 V 887.488 c 0,-5.636 -4.9,-9.129 -9.44,-9.129 -1.42,0 -2.83,0.332 -4.16,0.961 l -19.12,9.129 c -10.02,4.781 -21.22,7.313 -32.4,7.313 -11.11,0 -22.25,-2.5 -32.23,-7.231 L 836.117,805 c -4.355,-2.07 -9.219,-3.16 -14.07,-3.16 -4.844,0 -9.719,1.09 -14.074,3.16 l -176.114,83.531 c -9.968,4.731 -21.113,7.231 -32.226,7.231 -11.172,0 -22.371,-2.532 -32.391,-7.313 l -19.121,-9.129 c -1.34,-0.629 -2.734,-0.961 -4.172,-0.961 -4.531,0 -9.422,3.493 -9.422,9.129 v 105.875 l 37.664,17.987 c 8.489,4.04 17.981,6.19 27.442,6.19 9.414,0 18.847,-2.12 27.297,-6.13 l 192.656,-91.375 2.461,-1.168 2.469,1.168 192.644,91.375 c 8.45,4.01 17.89,6.13 27.3,6.13" /><path
         id="path42"
         style="fill:#231f20;fill-opacity:1;fill-rule:nonzero;stroke:none"
         d="m 1044.47,1008.43 c -7.99,0 -15.99,-1.79 -23.16,-5.19 l -199.263,-94.51 -199.27,94.51 c -7.156,3.4 -15.164,5.19 -23.144,5.19 -8.028,0 -16.074,-1.81 -23.27,-5.25 L 543.949,987.707 V 887.488 l 19.121,9.133 c 11.309,5.391 23.946,8.25 36.563,8.25 12.539,0 25.117,-2.832 36.379,-8.172 l 176.113,-83.527 c 3.074,-1.453 6.504,-2.223 9.922,-2.223 3.418,0 6.855,0.77 9.922,2.223 l 176.111,83.527 c 11.26,5.34 23.84,8.172 36.39,8.172 12.61,0 25.25,-2.859 36.56,-8.262 l 19.12,-9.121 v 100.219 l -32.42,15.473 c -7.2,3.44 -15.24,5.25 -23.26,5.25 z m 0,-2.56 c 7.61,0 15.25,-1.72 22.09,-4.99 l 30.94,-14.763 v -94.508 l -15.3,7.301 c -11.67,5.57 -24.72,8.52 -37.73,8.52 -12.95,0 -25.93,-2.918 -37.55,-8.43 L 830.805,815.469 c -2.715,-1.289 -5.742,-1.957 -8.758,-1.957 -3.02,0 -6.047,0.668 -8.75,1.957 L 637.184,899 c -11.621,5.512 -24.61,8.43 -37.551,8.43 -13.016,0 -26.063,-2.95 -37.742,-8.52 l -15.293,-7.301 v 94.508 l 30.937,14.773 c 6.836,3.26 14.481,4.98 22.098,4.98 7.578,0 15.176,-1.71 21.984,-4.93 l 199.266,-94.51 1.164,-0.559 1.172,0.559 199.261,94.51 c 6.8,3.22 14.4,4.93 21.99,4.93" /><path
         id="path44"
         style="fill:#231f20;fill-opacity:1;fill-rule:nonzero;stroke:none"
         d="M 1115.16,1562.35 H 528.93 v 162.29 h 586.23 v -162.29" /><path
         id="path56"
         style="fill:url(#radialGradient54);fill-opacity:1;fill-rule:evenodd;stroke:none"
         d="m 652.074,1378.27 h -0.008 0.008" /><path
         id="path68"
         style="fill:url(#radialGradient66);fill-opacity:1;fill-rule:evenodd;stroke:none"
         d="m 652.211,1378.55 v 0" /><path
         id="path80"
         style="fill:url(#radialGradient78);fill-opacity:1;fill-rule:evenodd;stroke:none"
         d="m 913.383,1365.72 v 0" /><path
         id="path92"
         style="fill:url(#radialGradient90);fill-opacity:1;fill-rule:evenodd;stroke:none"
         d="m 651.234,1377.3 v 0" /><path
         id="path104"
         style="fill:url(#radialGradient102);fill-opacity:1;fill-rule:evenodd;stroke:none"
         d="m 824.352,1346.12 0.117,0.73 4.219,4.14 1.453,-3.07 c 3.808,-8.07 11.543,-12.17 22.968,-12.17 3.293,0 6.868,0.34 10.598,1.04 11.004,1.54 23.809,5 36.18,8.36 16.679,4.5 33.937,9.16 46.847,9.16 8.829,0 28.184,-4.38 28.184,-17.39 0,-8.24 -3.02,-12.6 -8.605,-17.78 l -0.333,-0.25 c -10.078,-6.55 -35.82,-6.63 -36.074,-6.63 -6.074,0 -22.215,0 -29.238,5.61 -3.594,2.88 -4.512,3.38 -4.695,3.47 -3.547,1.42 -6.797,2 -11.192,2 -9.101,0 -19.004,-2.62 -28.586,-5.14 -9.179,-2.43 -17.84,-4.73 -25.566,-4.73 -0.516,0 -1.524,0.16 -2.383,1.14 -3.242,3.67 -5.066,24.55 -3.894,31.51 z m 21.875,26.67 c 4.121,4.65 10.203,7.64 15.515,7.64 2.219,0 4.27,-0.49 6.086,-1.47 3.817,-2.48 6.922,-5.64 9.922,-8.69 3.602,-3.68 7.352,-7.48 12.109,-10.02 l 1.231,-0.66 v -1.36 c 0,-1.42 0,-2.87 -12.356,-6.54 -2.675,-0.8 -11.836,-3.4 -17.273,-3.4 -12.766,0 -18.996,4.79 -19.074,14.63 -0.418,3.1 0.937,6.59 3.84,9.87 z m -164.758,-197.89 0.285,0.2 0.75,0.63 0.293,0.29 0.644,0.66 1.457,1.88 0.86,1.4 2.215,-0.92 -2.02,1.29 0.574,1.1 2.297,-0.72 -2.121,1.13 0.481,1.12 2.363,-0.51 -2.246,0.81 1.308,4.83 0.176,1.47 c 0.078,0.88 0.84,3.24 1.707,4.2 l 1.067,1.18 1.367,1.32 0.32,0.28 1.301,0.92 h -0.012 l 0.664,0.36 0.227,0.11 0.312,0.12 0.399,0.14 0.383,0.1 0.261,0.05 0.578,0.08 c 2.293,0.45 4.52,-0.49 6.981,-1.65 2.844,-1.32 6.387,-2.97 11.965,-2.97 2.754,0 5.8,0.42 9.07,1.23 -0.742,1.48 -1.465,3.66 0.508,5.28 l 0.351,0.29 2.539,0.82 c 2.93,0.94 5.969,1.9 8.86,2.96 2.351,1.94 5.203,2.64 7.754,3.27 0.965,0.22 1.883,0.44 2.742,0.72 -0.742,0.71 -1.238,1.59 -1.238,2.65 v 0.97 l 0.722,0.68 c 0.957,0.92 2.481,1.25 4.383,1.65 l 0.684,0.15 -0.828,1.79 c -0.079,2.22 2.097,3.51 9.675,7.62 2.227,1.21 5.547,3.01 7.481,4.28 -2.156,2.04 -4.121,5.14 -4.512,6.86 -0.516,2.28 0.645,3.7 1.926,4.27 l 1.113,0.36 c 3.348,1.04 7.508,2.35 9.551,5.11 l 0.469,0.61 0.73,0.24 c 0.969,0.31 3.379,1.04 6.594,2.02 9.59,2.89 25.625,7.74 33.301,10.44 l 3.222,1.13 0.02,-4.73 -1.758,-0.32 0.027,-0.1 1.731,0.02 0.164,-3.4 0.078,-0.82 0.137,-1.19 0.156,-0.89 0.039,-0.22 c 0.461,-2.42 1.223,-4.1 2.453,-5.43 l 1.114,-1.08 c 2.156,-1.78 4.824,-2.95 9.421,-4.05 1.153,-0.16 2.629,-0.27 4.27,-0.27 2.117,0 4.266,0.16 6.543,0.33 4.344,0.33 9.18,0.55 13.32,0.02 4.11,-0.09 7.215,-2.75 7.774,-6.66 0.632,-4.42 -2.102,-9.83 -8.547,-11.58 -5.508,-1.47 -10.957,-1.47 -16.231,-1.47 l -0.242,0.01 c -9.238,0.95 -11.777,3.56 -15.168,7.72 l -0.781,0.9 c -0.809,0.79 -0.926,0.9 -3.223,2.1 -1.375,0.72 -2.636,1.14 -3.965,1.58 -1.836,0.61 -3.73,1.25 -5.789,2.65 l -1.797,1.62 -1.445,1.84 -0.324,0.45 c -1.621,2.26 -2.695,3.65 -4.539,3.65 -1.973,0 -3.516,-0.58 -4.738,-1.75 l -1.356,-1.32 -1.621,0.99 c -3.652,2.25 -9.816,0.48 -13.352,-3.53 -0.976,-1.11 -1.668,-2.26 -2.07,-3.44 l 0.781,0.14 1.094,0.09 h 0.344 l 0.789,-0.03 1.172,-0.17 1.015,-0.24 0.079,-0.03 1.007,-0.37 0.196,-0.08 0.879,-0.45 0.898,-0.6 0.332,-0.26 0.809,-0.7 0.097,-0.12 0.703,-0.77 0.606,-0.57 v -0.22 l 0.168,-0.26 0.156,-0.24 0.613,-1.1 0.137,-0.26 c 0.344,-0.75 0.645,-1.73 0.274,-3.38 -0.313,-1.39 -1.571,-4.06 -4.063,-4.06 l -1.836,0.58 c -1.348,0.7 -2.695,1.06 -4.004,1.06 -4.219,0 -7.715,-3.67 -9.168,-7.09 l -0.656,-2.18 c 4.648,2.03 9.648,1.51 13.906,-1.54 3.645,-1.89 3.645,-5.54 3.645,-8.2 v -1.7 l -1.66,-0.51 c -6.379,-2.01 -9.551,-3.85 -11.809,-12.49 6.027,3.31 12.063,3.31 17.5,3.31 h 0.988 l 0.703,-0.66 c 3.172,-3.06 7.176,-4.01 9.852,-2.18 2.629,1.86 5.363,4.9 7.551,7.35 2.664,2.98 4.129,4.56 5.683,5.18 l 0.262,0.11 c 0.539,0.24 1.262,0.55 2.168,0.55 0.781,0 2.246,-0.25 3.293,-1.97 1.231,-2.06 0.547,-5.09 0.313,-5.97 -0.774,-2.7 -2.774,-4.59 -4.961,-6.17 0.652,-0.22 1.523,-0.38 2.636,-0.38 3.524,0 5.711,0.14 7.86,0.99 l 0.949,0.4 1.512,0.85 2.355,0.75 0.781,-0.1 1.688,-1.16 c 0.519,-0.8 0.605,-1.79 0.265,-2.96 l -0.917,-2.45 c 4.57,-0.35 7.468,0.97 9.148,4.14 l 1.555,2.94 2.324,-2.41 c 0.926,-0.94 1.668,-1.97 2.383,-2.94 l 1.648,-2.12 c 0.637,3.03 2.188,6.83 5.859,9.09 l 3.692,2.27 v -4.23 c 0,-1.17 1.269,-4.68 2.441,-6.71 0.578,1.52 1.367,3.24 2.141,4.38 0.008,0.04 1.726,2.5 3.555,2.56 2.058,0 2.957,-1.67 4.207,-3.98 0.402,-0.76 1.203,-2.22 1.894,-3.16 1.758,3.62 4.602,8.41 6.028,9.76 l 0.945,0.89 1.289,-0.28 c 0.91,-0.21 1.894,-0.46 2.93,-0.72 3.203,-0.8 6.796,-1.68 9.972,-1.92 -3.183,4.3 -4.199,7.3 -4.199,12.86 l 0.105,1.26 0.266,1.05 c 0.996,2.91 3.426,4.55 5.586,6 l 0.742,0.51 c 1.199,0.8 2.403,1.63 3.153,2.55 2.511,3.11 3.027,4.24 3.058,7.03 -0.773,2.48 -3.515,4.39 -6.426,6.43 -1.523,1.07 -3.117,2.19 -4.484,3.44 -6.465,6.5 -1.484,16.33 -1.434,16.44 l 1.571,2.09 1.515,1.2 1.512,-1.18 c 5.996,-4.67 11.172,-8.48 16.75,-12.38 4.199,-3.28 9.922,-5.04 16.238,-5.04 1.758,0 3.528,0.13 5.274,0.4 2.004,0.28 4.269,0.42 6.562,0.42 11.25,0 23.274,-3.34 23.274,-12.75 0,-5.71 -6.504,-13.69 -12.891,-13.69 l -1.73,0.2 -0.43,0.09 -0.359,0.24 c -2.286,1.5 -3.469,4.03 -4.524,6.25 -1.238,2.66 -2.109,4.29 -3.672,4.66 l -0.429,0.15 c -1.153,0.53 -3.848,-0.84 -6.473,-3.21 l -1.152,-1.04 -1.426,0.58 c -8.664,3.52 -15.305,1.34 -20.266,-6.81 l 0.176,0.02 c 1.484,0.31 2.941,0.46 4.434,0.46 5.226,0 10,-1.82 13.136,-4.98 l 0.664,-0.68 v -0.92 c 0,-1.64 -1.047,-2.38 -1.554,-2.74 -0.547,-0.38 -1.668,-1.16 -3.809,-4.68 l -0.547,-0.9 -1.055,-0.2 c -4.414,-0.83 -9.902,-7.99 -10.808,-15.49 5.273,2.74 11.601,5.18 19.297,5.18 h 0.996 l 0.691,-0.67 c 1.965,-1.89 1.965,-5.11 1.965,-6.65 v -1.46 l -1.348,-0.63 c -4.589,-2.16 -8.898,-3.45 -13.105,-3.89 3.418,-2.46 8.242,-3.89 13.34,-3.89 4.324,0 8.144,1.1 9.961,2.85 l 0.82,0.8 1.172,-0.14 c 4.852,-0.57 8.562,0.81 10.391,3.71 1.425,2.25 1.445,5.17 0.039,7.8 -0.606,1.14 -0.578,2.47 0.058,3.65 0.625,1.16 1.785,1.98 3.016,2.14 l 1.633,0.16 c 2.351,0 4.441,-1 6.054,-2.89 2.235,-2.62 3.418,-6.98 3.164,-11.21 2,0.3 4.305,2.01 6.258,4.69 l 0.168,0.19 1.211,1.95 c 0.82,1.56 1.317,2.89 1.504,3.95 l 0.32,1.95 h 2.043 c 6.153,0 10.418,0.85 16.585,5.32 -1.19,0.5 -2.22,1.12 -3.04,1.86 l -0.412,0.35 c -0.73,0.63 -2.664,2.3 -1.258,4.72 l 0.157,0.23 c 0.925,1.21 2.903,2.3 6.013,3.95 1.09,0.57 2.27,1.2 3.2,1.77 -0.84,0.79 -1.76,1.78 -1.76,3.23 v 0.54 l 0.24,0.48 c 0.81,1.58 2.53,2.61 4.2,3.6 l 1.46,0.91 c -1.72,0.42 -3.25,1.3 -3.25,3.14 v 0.88 l 0.61,0.66 c 0.44,0.48 1.16,1.07 2.64,2.26 1.84,1.48 4.68,3.77 6.97,6.06 h -0.01 c -3.17,0 -5.46,0.79 -7.02,2.4 l -1.15,1.17 0.75,1.45 c 1.29,2.48 2.95,3.74 4.29,4.51 -0.91,0.31 -1.83,0.74 -2.6,1.49 l -0.28,0.26 -0.17,0.34 c -1.06,2.05 -0.05,4.23 1,6.54 0.74,1.62 1.57,3.41 1.63,5.07 l -0.09,-0.05 -0.9,-0.3 c -1.78,-0.53 -3.08,-0.06 -3.76,1.07 -0.93,1.52 -0.09,2.99 1.06,5.02 0.38,0.67 1.2,2.1 1.6,3.19 -2.01,-0.74 -3.92,-1.66 -5.92,-2.6 -4.7,-2.21 -9.546,-4.5 -15.687,-4.5 -0.938,0 -1.895,0.05 -2.863,0.17 l -0.946,0.11 -0.851,1.01 -0.86,1.53 c -1.113,2.25 -2.8,5.65 -8.582,6.12 l -1.445,-0.52 c -4.855,-3.32 -12.023,-6.85 -17.59,-6.85 -1.601,0 -3.047,0.29 -4.285,0.85 l -0.676,0.34 -0.711,0.47 -0.734,0.56 c -3.516,3.09 -5.176,8.49 -6.348,13.38 -0.144,0.56 -0.332,1.4 -0.535,2.35 -0.508,2.33 -1.73,7.76 -2.336,8.78 -1.668,2.67 -4.929,4.87 -8.379,7.21 -5.273,3.58 -11.25,7.64 -14.246,14.84 l -0.109,0.27 -0.371,0.98 -1.367,3.88 20.558,-2.88 3.426,-0.07 14.258,1.2 8.957,2.46 7.937,4.08 4.719,3.98 4.188,5.63 0.293,0.56 0.324,0.6 0.242,0.51 0.332,0.71 1.027,2.59 0.215,0.68 0.223,0.7 0.383,1.43 0.175,0.75 0.918,6.51 0.098,3.6 -0.012,0.6 c -0.058,1.45 0.45,2.5 1.641,3.34 v 0.04 l 1.75,0.99 2.187,1.27 1.602,1.04 1.387,1.02 0.683,0.55 0.868,0.79 0.578,0.55 0.761,0.82 0.164,0.19 0.422,0.53 2.097,-1.13 -1.94,1.35 0.371,0.53 2.209,-0.96 -2.026,1.24 0.371,0.58 2.225,-0.89 -2.1,1.12 0.83,1.75 0.04,0.16 0.28,0.77 0.08,0.28 0.15,0.62 0.09,0.43 0.15,0.91 0.12,1.34 v 0.25 0.91 l -0.04,0.41 -0.08,0.89 -0.02,0.27 -0.19,1.16 -0.1,0.63 c -0.13,0.53 -0.45,2.18 -0.39,3.46 v 0.08 l 0.02,0.96 0.02,0.31 0.05,0.92 0.12,1.18 0.03,0.18 0.18,1.13 0.05,0.24 0.29,1.17 0.09,0.3 -0.68,-0.6 c -2.699,-2.4 -5.746,-5.14 -9.25,-5.14 -4.707,0 -8.058,4.43 -10.754,14.29 -1.308,-2.17 -3.359,-3.99 -5.625,-3.99 l -0.437,0.04 -0.567,0.09 -0.332,0.1 c -3.711,1.4 -6.632,5.56 -9.472,9.57 -0.852,1.21 -1.985,2.84 -3.078,4.14 l 0.304,-2.13 0.028,-0.51 0.019,-0.43 -0.019,-0.96 -0.059,-0.45 -0.078,-0.49 -0.098,-0.39 -0.176,-0.53 -0.175,-0.42 -0.274,-0.45 -0.254,-0.36 -0.476,-0.5 -0.391,-0.33 -0.539,-0.3 -0.457,-0.22 -0.566,-0.17 -0.489,-0.11 -0.519,-0.05 -1.395,0.14 -0.625,0.17 -0.5,0.17 -4.754,2.5 -0.644,0.43 1.055,2.12 -1.387,-1.89 -3.625,2.42 0.879,2.19 -1.172,-2.02 -0.242,0.13 c 0.195,-1.54 0.312,-3.7 -1.758,-5.7 l -0.559,-0.54 -0.769,-0.12 c -1.446,-0.22 -2.871,-0.33 -4.258,-0.33 -4.992,0 -8.672,1.39 -11.926,2.62 l 0.07,-0.65 c 0.028,-1.12 -0.402,-2.13 -1.093,-2.75 l -0.227,-0.18 c -1.172,-0.86 -2.656,-1.26 -4.238,-1.2 1.211,-1.89 2.18,-4.51 1.015,-8.06 l -0.117,-0.36 -0.683,-1.57 -0.203,-0.44 -0.286,-0.47 -0.312,-0.46 -0.32,-0.38 -0.188,-0.2 -0.234,-0.24 -1.739,1.61 1.516,-1.8 -0.617,-0.51 -3.055,-1.66 -1.699,-0.56 -0.461,-0.13 -0.301,-0.06 -0.597,-0.14 -0.125,-0.01 -0.645,-0.11 -0.754,-0.07 -1.308,-0.06 -2.872,0.31 -0.613,0.16 -0.918,0.3 -0.969,0.43 -0.546,0.3 -0.254,0.15 -0.469,0.31 -0.281,0.22 -0.403,0.32 -0.847,0.83 -0.383,0.43 -0.203,0.26 -0.274,0.4 -0.293,0.44 -0.402,0.72 c -0.496,0.9 -0.527,1.96 -0.066,2.89 1.015,2.05 3.925,2.59 7.011,3.16 l 0.184,0.03 c -1.434,1.83 -2.813,4.67 -0.809,9.51 0.86,3.29 5.106,5.56 10.43,8.41 6.648,3.57 14.082,7.56 15.184,13.39 -1.141,-0.24 -2.539,-0.66 -3.914,-1.05 -2.852,-0.84 -6.075,-1.8 -8.918,-1.8 -2.481,0 -4.434,0.73 -5.809,2.17 -1.035,1.09 -1.691,2.52 -1.953,4.32 -8.477,-5.81 -16.535,-8.29 -23.828,-7.34 l -0.43,0.09 c -3.633,1.15 -6.641,4.1 -10.168,7.52 -4.121,4 -8.719,8.49 -14.988,10.44 V 1412 h -2.403 c -4.347,0 -8.554,0 -11.543,-0.58 4.961,-0.55 9.032,-2.41 11.336,-8.79 1.993,-6.13 -4.246,-9.77 -11.464,-13.99 -4.989,-2.91 -10.653,-6.22 -14.844,-10.82 l -1.446,-1.59 -1.757,1.24 c -1.825,1.29 -3.836,3.48 -5.614,5.42 -0.898,0.98 -2.062,2.27 -2.675,2.79 h -4.719 l 3.476,3.84 c 2.707,3 4.2,6 4.297,8.69 0.137,3.33 -1.289,6.29 -1.902,7.41 l -1.191,2.01 c -2.395,-0.98 -5.372,-1.54 -8.313,-1.54 -4.668,0 -7.918,1.37 -8.945,3.77 -0.293,0.68 -0.477,1.59 -0.203,2.66 l -1.789,-0.4 -0.75,-0.12 c -7.493,0 -15.989,0 -21.77,-4.48 l -1.895,-1.49 -1.492,1.87 c -4.785,5.96 -12.297,10.51 -19.121,11.61 l -0.754,0.12 -0.535,0.51 -0.683,0.65 c -1.817,-4.03 -5.071,-5.83 -10.168,-5.53 l 0.226,-0.78 c 0.301,-1.02 0.555,-1.91 0.555,-2.73 v -3.46 l -3.301,1.32 c -0.019,0 -2.559,0.97 -6.172,0.97 -2.168,0 -4.297,-0.35 -6.316,-1.02 l -0.383,-0.12 h -0.398 c -1.094,0 -2.18,0.08 -3.184,0.2 l 0.41,-1.53 -0.031,-0.45 c -1.102,-5.44 -5.867,-7.82 -9.356,-9.57 l -0.554,-0.28 c 1.14,-0.83 2.215,-1.73 3.191,-3.68 1.281,-2.17 -0.672,-4.73 -6.687,-10.18 l 0.164,-0.06 c 1.047,-0.34 2.043,-0.68 2.832,-1.02 3.429,-1.57 2.804,-3.77 2.539,-4.4 -1.192,-2.27 -2.793,-4.05 -4.344,-5.78 -1.602,-1.79 -3.145,-3.5 -3.977,-5.38 1.036,0.02 2.141,-0.24 3.243,-0.77 l 2.558,-1.22 -1.679,-2.22 -0.801,-1.13 c -2.703,-3.88 -4.942,-8.61 -7.274,-15.31 l 1.973,-0.26 0.086,-2.03 c 0,-4.03 -1.297,-6.89 -2.742,-9.7 l -0.196,-0.38 -0.324,-0.29 -2.226,-0.84 c -3.77,0 -7.637,6.74 -9.59,10.75 -1.543,3.16 -5.125,11.35 -5.125,19.18 0,19.1 2.754,22.52 4.57,24.77 l 0.652,1.53 c 0,2.14 -0.808,2.58 -3.378,3.65 -1.739,0.73 -3.907,1.64 -5.36,3.69 -2.726,4.53 -8.39,7.47 -14.199,7.47 -1.406,0 -2.727,-0.18 -3.918,-0.53 1.945,-0.92 3.809,-2.46 5.566,-5.77 1.379,-2.89 -0.058,-4.56 -0.75,-5.36 l -0.422,-0.72 v -2.32 h -2.402 l -1.836,-0.26 c -1.531,-0.36 -3.418,-0.36 -4.726,0.81 -2.899,2.09 -7.578,4.29 -12.176,4.29 -2.285,0 -4.348,-0.55 -6.152,-1.65 l -0.508,-2.05 0.886,2.16 1.797,-0.78 0.567,-0.29 0.656,-0.35 0.437,-0.26 0.715,-0.44 1.621,-1.21 0.567,-0.48 0.457,-0.43 0.547,-0.56 0.429,-0.47 0.481,-0.58 0.39,-0.52 0.45,-0.64 0.359,-0.58 0.383,-0.69 0.301,-0.61 0.265,-0.57 0.301,-0.75 0.266,-0.82 0.34,-1.35 -0.137,-2.29 -0.117,-0.3 -0.176,-0.36 -0.254,-0.47 -0.293,-0.4 -0.254,-0.35 -0.254,-0.26 -0.351,-0.34 -0.723,-0.51 -0.352,-0.18 -0.476,-0.19 -0.363,-0.11 -0.438,-0.1 -0.812,-0.07 -1.153,0.1 -0.41,0.08 -0.312,0.09 -0.75,0.26 -0.286,0.12 -1.863,1.02 1.16,2.05 -1.355,-1.91 -0.586,0.41 -0.324,0.25 -0.965,0.79 1.367,1.92 -1.633,-1.7 -0.254,0.24 1.457,1.86 -1.66,-1.69 -0.285,0.26 1.523,1.82 -1.757,-1.59 -0.164,0.17 -0.43,-2.03 -0.098,-0.89 c -0.304,-4.02 0.84,-8.76 4.871,-10.48 l 0.723,-0.04 0.664,0.04 c 2.922,0 3.555,-2.53 3.828,-3.62 l 0.578,-1.41 0.391,-0.18 0.41,-0.18 0.535,-0.2 0.469,-0.08 1.23,-0.02 0.664,0.05 3.321,0.44 0.812,0.05 c 1.239,0 2.352,-0.38 3.348,-1.11 l 0.207,-0.17 h 0.02 l 0.058,-0.07 0.477,-0.46 0.527,-0.7 0.156,-0.27 0.227,-0.58 0.117,-0.44 0.027,-0.73 -0.027,-0.32 -0.117,-0.6 -0.09,-0.25 -0.215,-0.52 -0.156,-0.29 -0.391,-0.59 -0.176,-0.22 -0.359,-0.42 -1.242,-1.23 -0.594,-0.39 -1.172,-0.45 -1.008,-0.22 -0.339,-0.05 -0.93,-0.05 h -0.547 l -0.586,0.04 -0.84,0.09 0.274,2.3 -0.535,-2.27 0.007,2.35 -0.351,-2.29 -0.313,0.05 c 0.129,-1.11 0.442,-2.33 1.125,-3.07 1.805,-1.95 4.219,-3.05 7.149,-3.25 l 0.984,-0.05 c 1.817,0 3.332,-1 4.043,-2.67 0.891,-2.09 0.41,-4.87 -1.094,-6.31 l -0.351,-0.28 c -2.098,-1.36 -4.051,-2.43 -5.938,-3.45 -3.633,-2 -6.543,-3.58 -8.836,-6.42 4.012,-0.05 5.438,-2.34 5.438,-4.32 0,-3.16 -1.375,-5.07 -2.93,-6.6 1.738,-0.08 3.039,-0.77 3.899,-2.03 2.421,-2.68 -0.704,-5.86 -3.215,-8.42 -1.035,-1.05 -2.364,-2.4 -3.27,-3.63 1.055,0.16 2.117,0.26 3.133,0.26 4.785,0 7.91,-2.37 8.789,-6.66 l 0.051,-0.46 c 0,-2.28 -0.774,-4.59 -2.168,-6.7 l 2.527,0.23 c 2.571,0 3.828,-1.09 4.446,-2.11 1.628,-2.14 -0.664,-4.31 -2.696,-6.22 -0.781,-0.74 -1.75,-1.64 -2.578,-2.58 2.078,0.43 4.324,0.4 6.68,-0.31 l 0.984,-0.31 0.442,-0.89 c 0.898,-1.8 0.769,-3.75 -0.371,-5.5 -1.438,-2.23 -4.465,-3.96 -7.18,-5.07 1.965,-0.77 4.668,-1.18 7.871,-1.18 5.148,0 10.801,1.09 14.387,2.78 l 2.703,1.27 0.683,-2.83 c 1.633,-6.77 8.489,-8.61 12.578,-9.71 2.227,-0.6 4.329,-1.16 4.329,-3.3 v -0.99 l -0.754,-0.68 c -3.543,-3.26 -6.66,-9.92 -5.821,-12.51 l 0.09,-0.43 c 0.77,-6.8 -1.105,-13.2 -5.136,-17.55 -3.743,-4.04 -9.043,-6.18 -15.333,-6.18 -7.765,0 -17.082,1.17 -20.351,10.24 -1.77,5.27 -4.875,5.74 -9.231,2.68 l -1.16,-0.81 -1.289,0.61 c -1.183,0.55 -2.472,0.83 -3.859,0.83 -4.277,0 -9.031,-2.74 -11.746,-6.44 4.539,-0.57 10.469,-2.86 12.285,-7.11 0.906,-2.11 1.121,-5.44 -2.922,-9.35 l -0.691,-0.68 h -1.008 c -5.684,0 -9.551,-3.34 -11.141,-9.49 3.309,0.7 6.278,1.06 8.836,1.06 9.141,0 10.723,-4.44 10.988,-6.33 0.684,-5.06 -4.589,-10.56 -12.707,-13.73 3.137,-2.18 5.852,-3.18 8.508,-3.18 2.938,0 5.938,1.16 9.727,2.61 0.945,0.37 1.914,0.73 2.937,1.13 2.024,0.95 3.86,0.62 5,0.23 l 0.696,-0.23 c 2.812,-1.18 3.738,-0.27 5.437,3.95 0.695,1.76 1.309,3.27 2.531,4.19 0.743,0.68 1.875,1.09 3.114,1.09 1.152,0 2.168,-0.36 2.804,-0.66 1.121,-0.51 1.895,-1.7 2.098,-2.31 l 0.09,-0.27 0.234,-1 0.145,-1.2 0.011,-1.1 -0.109,-1.04 -0.027,-0.16 -0.157,-0.74 -0.234,-0.81 -0.09,-0.26 -0.097,-0.27 -0.059,-0.34 -0.156,-0.22 -0.067,-0.12 0.594,-2.09 -0.262,2.32 0.274,0.04 0.75,-2.21 -0.43,2.3 0.871,-2.18 -0.605,2.26 0.984,0.38 1.348,-1.93 -1.102,2.06 1.102,0.68" /><path
         id="path116"
         style="fill:url(#radialGradient114);fill-opacity:1;fill-rule:evenodd;stroke:none"
         d="m 914.605,1366.2 v 0" /><path
         id="path128"
         style="fill:url(#radialGradient126);fill-opacity:1;fill-rule:evenodd;stroke:none"
         d="m 902.125,1368.4 v 0" /><path
         id="path140"
         style="fill:url(#radialGradient138);fill-opacity:1;fill-rule:evenodd;stroke:none"
         d="m 929.613,1299.47 v 0" /><path
         id="path152"
         style="fill:url(#radialGradient150);fill-opacity:1;fill-rule:evenodd;stroke:none"
         d="m 956.441,1383.31 v 0" /><path
         id="path164"
         style="fill:url(#radialGradient162);fill-opacity:1;fill-rule:evenodd;stroke:none"
         d="m 835.023,1184.39 v -0.27 h 0.032 l 0.379,0.22 -0.411,0.05" /><path
         id="path176"
         style="fill:url(#radialGradient174);fill-opacity:1;fill-rule:evenodd;stroke:none"
         d="m 658.422,1352.71 v 0" /><path
         id="path188"
         style="fill:url(#radialGradient186);fill-opacity:1;fill-rule:evenodd;stroke:none"
         d="m 643.355,1390.32 v 0" /><path
         id="path200"
         style="fill:url(#radialGradient198);fill-opacity:1;fill-rule:evenodd;stroke:none"
         d="m 654.203,1353.09 v 0" /><path
         id="path202"
         style="fill:#231f20;fill-opacity:1;fill-rule:evenodd;stroke:none"
         d="m 1007.06,1215.45 c -2.16,-1.17 -4.78,-2.15 -8.638,-2.3 -4.629,-0.2 -9.598,1.47 -11.727,0.31 1.258,-4.87 14.155,-3.65 21.885,-3.65 -6.48,-6.22 -14.17,-6.22 -23.135,-5.02 0,0 0.184,-1.28 2.442,-2.29 4.871,-1.89 11.23,-2.92 15.493,-3.94 -3.775,-1.2 -7.72,-3.82 -20.622,-1.2 1.262,-3.82 11.652,-7.48 16.847,-8.85 -3.945,-2.43 -8.554,-3.64 -11.652,-3.64 -6.277,0 -24.832,8.23 -30.586,-4.02 -0.488,-1.04 -0.371,-1.81 -0.144,-2.37 l 1.113,-2.24 c 0.644,-1.3 -0.324,-3.42 -0.488,-3.78 -1.914,-4.17 -8.75,-3.85 -12.305,-1.48 -0.625,0.42 -1.457,1.05 -2.199,2.76 -0.789,1.81 -1.211,3.76 0.168,5.52 l 1.992,0.31 c 8.516,-1.06 4.637,8.82 -2.688,6.51 -2.214,-1.06 -3.601,-3.21 -6.472,-3.71 -0.391,-0.07 -1.496,-0.07 -2.285,0.86 -2.532,3.29 -2.442,10.82 0.906,11.57 1.055,0.17 1.672,-0.54 1.828,-0.75 2.762,-3.38 9.812,0.3 7.91,4.63 l -1.34,2.2 c -2.215,2.22 -7.988,0.83 -5.761,6.34 1.261,2.59 3.957,7.61 7.707,7.61 3.242,0 3.652,-3.72 5.222,-6.24 0.774,-1.21 3.887,-6.24 7.688,-6.24 10.379,0 18.074,14.91 14.304,24.95 -5.164,13.68 -21.992,8.68 -34.921,11.06 -33.086,4.98 -42.227,24.46 -62.43,48.96 l -1.887,1.5 c -1.875,0.8 -3.125,0.61 -5.398,-0.55 -15.371,-7.45 -27.024,-13.69 -43.692,-21.14 -2.695,-1.2 -5.187,-2.42 -9.152,-3.81 2.695,3.81 7.687,10.22 10.402,13.85 -10.402,-4.85 -18.086,-12.46 -32.257,-18.72 -1.231,0 -2.684,0 -2.684,1.25 1.453,3.62 3.945,5.01 6.465,12.47 -1.262,1.19 -1.887,-0.03 -3.781,-1.22 -14.141,-10.07 -22.012,-18.71 -34.922,-16.3 0,-2.41 5.195,-7.43 12.91,-10.04 -3.758,-3.63 -16.688,-2.41 -23.113,1.39 -1.262,-6.24 10.203,-10.02 12.91,-11.27 -6.485,-5.01 -19.368,0 -25.821,2.45 -1.261,0 0,-1.2 0,-1.2 3.75,-7.49 19.336,-8.68 25.821,-8.68 -10.391,-5.02 -20.625,-7.62 -32.285,-1.37 -2.696,-3.65 10.214,-11.1 12.917,-12.47 0,-2.44 -14.167,-1.21 -23.3,6.22 -1.258,-3.63 10.383,-11.09 11.652,-12.46 -5.078,-4.92 -15.762,-0.47 -19.414,1.03 -0.988,0.41 -1.68,0.8 -2.051,0.87 l -0.422,-0.53 c 1.282,-5 7.715,-7.6 12.942,-10.03 -10.422,-5.02 -18.106,1.22 -22.051,5.03 -2.492,0 -11.652,-8.85 -11.652,-10.05 -1.25,-2.43 0,-5.03 -1.25,-8.67 -1.075,-2.24 -3.094,-7.22 -4.559,-7.61 l -1.367,0.49 c -1.242,1.43 0.418,7.28 -1.789,8.33 -11.621,5.03 -10.391,-6.25 -15.41,-10.05 -5.184,-2.4 -12.899,6.23 -12.899,8.84 0,1.05 0.957,4.09 3.719,2.3 l 1.445,-0.96 1.535,0.04 c 2.274,0.6 2.274,2.48 2.274,3.63 0,3.66 -1.258,6.23 -6.453,4.86 -1.114,-0.52 -1.211,-2.31 -3.235,-2.63 l -1.941,0.19 c -3.77,3.81 -3.77,12.49 -1.262,13.7 3.918,1.22 5.176,-3.65 8.957,-2.41 2.676,1.2 2.676,8.66 0,9.87 -2.336,1.27 -5.89,-2.94 -8.371,-0.68 l -0.242,1.86 c 1.512,4.75 5.027,10.06 7.352,10.06 3.398,0 3.859,-6.47 8.097,-9.9 0.664,-0.53 4.551,-2.77 5.731,-3.32 8.332,-3.91 17.98,-2.58 23.613,-0.46 23.312,10.05 12.91,26.16 20.625,29.96 16.809,7.44 9.133,14.91 15.559,18.72 1.25,-1.25 1.25,-7.46 5.058,-8.86 1.395,7.61 2.656,12.48 10.359,10.04 2.5,-3.8 5.208,-7.42 8.958,-10.04 1.433,0 1.433,8.86 1.433,12.48 6.438,-4.87 16.672,-4.87 15.41,-2.44 -1.238,1.23 -6.453,7.46 -6.453,10.07 6.453,-3.82 16.844,-1.39 15.43,1.22 -1.289,1.19 -2.52,2.41 -2.52,3.63 1.231,2.58 6.453,2.58 8.946,2.58 0,5.03 -5.012,11.26 0,17.51 3.953,-2.62 5.222,-5.03 10.39,-5.03 0,3.65 -1.261,8.65 1.258,12.45 11.652,0 20.617,0 28.488,1.25 16.668,3.8 29.571,10.01 47.657,13.67 5.203,1.19 8.953,2.58 14.14,3.81 7.149,0 14.949,-6.14 18.621,-11.79 1.028,-1.59 4.25,-7.65 5.469,-9.2 4.512,-5.78 9.805,-11.25 15.879,-15.21 5.207,-3.8 10.383,-8.67 12.902,-14.89 2.617,-4.13 3.504,-9.38 5.664,-14.28 1.102,-2.51 3.817,-6.71 6.895,-8.32 13.281,-6.74 25.215,9.79 31.336,3.89 l 1.027,-1.56 0.899,-1.54 c 1.132,-0.72 2.011,-0.72 2.011,-0.72 8.965,0 15.405,1.23 23.115,5.04 1.43,0 -10.205,-13.7 -23.115,-15.1 2.52,-2.38 20.625,1.4 24.545,3.84 -2.66,-7.47 -12.865,-12.48 -23.287,-11.26 l -0.762,0.14 c 0,0 0.254,-0.98 2.559,-1.81 4.895,-1.06 14.12,-1.97 17.57,-1.97 0,-2.6 -19.367,-2.6 -19.367,-6.23 15.427,2.44 16.847,-2.61 23.287,0 1.49,-1.55 -1.04,-3.94 -4.18,-5.62 z m -26.744,-33.85 c 0.157,-1.85 0.481,-5.89 -4.023,-7.97 0,6.2 0,7.42 -5.195,11.24 -1.114,1.1 5.156,0.2 8.332,-1.94 z m -51.668,-14.22 c 3.778,0 7.696,0 10.215,2.41 1.434,-1.2 2.696,-2.41 3.953,-3.63 -2.519,-2.58 -12.91,-2.58 -14.168,1.22 z m -9.132,39.84 c 1.425,2.59 10.39,8.83 15.558,5.03 -1.23,-1.23 -2.648,-6.25 -2.648,-6.25 -5.039,2.59 -7.703,2.59 -12.91,1.22 z m -20.614,17.48 c 2.676,-1.19 5.809,-5.13 6.453,-6.24 0.899,-1.56 1.192,-4.72 -1.257,-6.21 -5.196,-2.44 -15.41,-12.47 -5.196,-23.74 -14.121,2.6 -10.214,12.48 -6.437,21.3 0.637,1.46 -0.418,1.88 -1.277,1.21 -8.918,-8.67 -6.407,-17.48 -10.383,-24.94 -5,6.22 -2.528,16.27 1.465,21.14 0,0 -0.379,0.61 -1.465,0 -6.414,-3.63 -10.223,-14.92 -12.918,-21.14 -4.61,4.65 -0.703,16.66 -0.09,17.51 0,0 0.098,0.79 -1.141,0 -6.457,-5.03 -8.957,-12.48 -11.633,-19.93 -5.046,3.65 -3.769,9.88 -3.769,14.9 -3.816,-2.37 -0.234,-14.17 -9.5,-17.26 l -1.535,0.13 c -1.551,1.11 -0.215,2.27 0.644,3.44 2.032,2.75 2.532,5.59 0.95,7.87 l -3.586,3.24 c -4.735,4 -9.454,5.01 -14.032,5.01 -4.933,-0.67 -11.672,-4.88 -15.558,-11.11 -1.133,-1.55 -3.739,-2.21 -6.504,-1.37 -5.164,1.37 -10.176,10.05 -5.164,13.84 2.695,1.24 3.926,-2.57 7.871,-1.36 2.195,1.19 2.48,7.97 -1.797,8.85 -1.262,0.25 -2.324,0.2 -3.73,-0.32 -2.375,-0.87 -3.625,-3.34 -5.286,-1.91 l -1.023,1.68 c -0.82,3.77 0.351,11.62 5.359,11.88 1.133,0.01 1.731,-0.97 1.953,-1.34 1.028,-1.75 2.043,-2.57 3.106,-2.57 5.5,0 5.41,3.68 4.465,7.03 -0.168,0.56 -0.617,2 -1.926,2.03 -2.676,0.28 -6.492,-1.21 -7.559,0.98 -2.695,3.64 2.493,9.88 6.438,9.88 5.019,0 3.797,-6.24 8.973,-7.46 2.511,-1.23 7.05,-1.52 10.382,-3.79 1.211,-0.8 2.078,-1.17 2.52,-2.42 2.508,-11.26 19.336,-10.05 28.308,-8.68 18.086,2.43 28.477,14.89 15.559,23.53 -7.676,5.05 -19.328,1.4 -28.469,2.62 -14.16,2.43 -16.668,8.67 -12.89,18.72 1.132,2.6 7.48,4.1 9.14,5.01 1.672,0.92 8.946,6.24 8.946,3.63 -2.293,-3.31 -3.524,-8.81 -5.77,-13.55 l -0.48,-1.95 c 0.636,-0.99 1.632,-1.18 2.5,-0.6 7.695,7.46 7.695,9.87 17.902,16.1 3.945,-8.64 14.344,-8.64 16.816,0 6.504,-6.23 14.746,-14.46 14.188,-16.1 -1.277,-5.02 -3.777,-12.48 -3.777,-18.71 0.632,-4.81 6.406,-6.9 10.214,-8.83 z m -74.707,-39.83 c 3.758,3.64 5.028,6.24 6.434,9.87 0.988,1.63 3.469,-0.26 5.039,-1.2 3.937,-2.43 -7.715,-9.88 -11.473,-8.67 z m -40.136,47.28 c 2.695,3.83 9.129,6.21 11.648,2.58 -0.82,-1.25 -1.199,-3.44 -2.254,-4.73 l -1.496,-0.28 c -2.676,1.22 -5.203,2.43 -7.898,2.43 z m -136.223,-51.16 c 1.934,-0.5 3.672,-3.95 3.789,-5.47 l -0.652,-1.11 c -2.051,-2.01 -10.227,-1.94 -12.559,-0.78 3.602,1.16 6.211,3.59 8.672,7 z m -4.93,38.36 c -1.347,0.17 -4.551,1.37 -8.457,0.33 2.606,4.84 7.371,5 11.258,5.02 l 0.391,-0.31 c -0.176,-0.96 -1.075,-2.01 -2.039,-3.81 z m 48.543,49.01 -0.594,1.61 c -0.519,0.48 -0.968,0.51 -2.121,-0.41 -11.621,-7.45 -19.343,-4.85 -20.781,-4.85 12.91,7.46 10.391,8.65 16.867,18.7 -2.511,3.63 -10.382,-5.03 -15.429,-3.8 2.304,1.1 3.535,3.36 5.8,7.45 l 1.309,2.92 c 2.645,6.09 7.039,7.1 7.039,7.1 -2.676,2.43 -16.816,-7.44 -16.816,-7.44 3.84,12.25 10.148,14.81 11.543,20.79 l 0.05,1.11 -0.273,0.38 -1.504,-0.55 c -8.859,-9.31 -15.148,-10.64 -21.465,-10.64 1.414,6.11 21.395,9.91 23.192,20.77 l -0.293,0.71 c -1.375,0.13 -4.004,-4.1 -8.582,-5.22 -3.938,-1.2 -9.153,-1.2 -10.383,-1.2 5.195,6.25 7.715,7.44 12.902,12.48 -5.187,0 -11.672,-2.61 -16.836,-2.61 l -0.332,0.93 0.848,0.84 c 7.734,5.81 16.32,4.63 16.32,12.08 0,2.13 -0.976,4.26 -3.019,5.67 l -2.02,0.57 c -4.16,0.04 -11.672,0.42 -10.363,4.86 7.695,-2.43 14.121,1.37 11.445,8.82 -2.246,4.53 -6.687,3.86 -11.328,2.79 -1.551,-0.49 -2.187,0 -2.449,0.21 -3.254,2.67 -0.84,8.14 1.512,9.26 l 1.73,0.64 c 3.055,0.97 5.398,-3.2 7.578,0 l 0.567,1.9 c 0.371,7.24 -7.813,4.06 -7.813,7.55 1.258,5.03 7.703,7.61 11.641,7.61 3.515,0 -1.856,-6.62 4.832,-7.51 1.086,-0.15 2.871,0.67 4.121,1.93 4.465,4.52 -2.52,5.46 -2.489,6.8 0.086,4.58 9.551,3.82 12.293,1.82 1.399,-0.76 3.059,-3.3 1.172,-5.04 -2.117,-1.96 -4.05,-4.05 -5.293,-7.63 -0.8,-2.14 -3.984,-29.88 0.286,-41.59 0.632,-1.61 1.082,-1.99 1.386,-2.29 2.481,-2.36 5.84,-1.66 8.067,-3.98 3.914,-3.63 14.304,-21.13 12.89,-22.35 -2.492,-3.8 -6.445,-6.24 -8.976,-8.82 0,-2.41 3.984,-2.41 6.484,-3.65 1.231,0 -7.695,-8.81 -12.91,-11.24 0,0 0,0 0,-1.22 3.965,-3.8 8.957,-1.21 12.91,-3.8 -2.5,-6.24 -3.953,-6.24 -7.695,-12.48 1.211,-2.41 14.121,1.22 16.66,0 1.398,-9.55 -19.18,-11.16 -21.68,0.02 z m -44.07,124.68 c 3.914,1.2 10.371,-1.22 11.629,-2.43 0.207,-0.08 -0.692,-1.04 -1.453,-2.2 -1.067,-1.63 -2.18,-3.51 -2.481,-2.85 -3.781,7.48 -10.234,6.26 -7.695,7.48 z m 25.254,5.96 c -1.106,1.86 -2.375,3.04 -4.68,4.09 5.195,1.19 10.391,0 12.91,-5.05 -1.98,0 -3.953,-1.5 -6.015,-0.95 -1.114,0.29 -1.766,1.14 -2.215,1.91 z m 63.75,-48.39 c 3.965,-2.43 5.222,-6.24 6.472,-8.68 v -5.01 c 0,-1.22 -2.507,-1.22 -3.953,-1.22 -15.382,-6.24 -10.214,-22.5 -29.55,-32.39 h -1.282 c 12.942,11.26 11.496,34.83 28.313,47.3 z m -1.231,2.61 c -11.632,-7.48 -11.632,-18.71 -24.562,-16.3 l -0.235,0.83 c 14.356,11.98 13.36,19.18 22.141,22.91 0,-2.43 1.395,-5.05 2.656,-7.44 z m 0,21.11 c -1.261,-3.63 -1.261,-5.03 -3.937,-9.87 -10.203,-2.61 -7.695,-13.85 -20.625,-16.28 -1.356,-0.22 -2.117,-0.09 -2.52,0 2.52,14.91 16.692,23.71 27.082,26.15 z m -19.375,-0.8 c 4.004,4.6 12.032,7.56 15.516,9.08 l 1.828,0.53 c 2.039,-0.2 2.129,-1.46 3.262,-2.58 l 0.351,-2.24 c -0.293,-1.38 -0.82,-1.68 -1.074,-1.82 -3.957,-2.04 -10.195,-1.12 -18.613,-3.37 -1.242,-0.46 -1.731,-0.12 -1.27,0.4 z m 2.528,13.28 c 3.965,2.58 7.687,3.8 12.91,5.01 v -5.01 c -3.777,0 -8.945,-1.25 -14.168,-2.44 -1.758,-0.37 0.098,1.84 1.258,2.44 z m 16.847,13.67 c -1.261,-1.22 -2.656,-3.64 -3.937,-4.85 -3.777,0 -7.695,1.21 -11.649,3.63 10.391,7.45 16.817,2.6 15.586,1.22 z m 12.911,1.38 c -1.262,-1.38 -2.708,2.42 -9.161,0 -1.23,0 -2.519,0 -5.011,2.42 -2.059,2.21 -2.676,1.24 -5.203,5.04 7.695,0 14.167,0 19.375,-7.46 z m 12.91,-3.82 h -7.727 c -2.664,5.05 -6.445,10.07 -7.891,16.28 10.391,-2.57 15.618,-11.23 15.618,-16.28 z m 12.859,6.24 c -1.219,-3.8 -2.656,-6.24 -3.914,-10.04 -0.117,-0.93 -1.262,1.39 -5.195,2.6 -3.75,7.44 -5.039,12.48 -6.457,21.13 7.882,-5.01 11.652,-8.65 15.566,-13.69 z m 18.125,7.47 3.137,0.21 3.308,-0.21 c 0,-1.23 -0.632,-1.71 -1.433,-2.43 -6.465,-5.04 -12.91,-11.28 -16.672,-17.5 h -6.465 c 1.281,7.44 5.215,18.7 18.125,19.93 z m 4.473,-9.37 c 1.953,0.68 9.66,2.74 11.074,2.76 4.25,0.06 8.84,-1.76 12.746,-0.86 1.121,0.29 1.25,0 1.25,0 -2.492,-3.8 -6.457,-2.42 -12.863,-3.8 -10.235,-1.22 -12.93,-3.64 -19.356,-11.09 -2.527,0 -2.527,1.22 -3.789,1.22 2.774,7.22 5.606,9.9 10.938,11.77 z m 26.328,-3.12 c -1.18,-3.4 -3.438,-8.01 -6.973,-8.6 l -2.09,-0.28 c -5.808,-0.84 -10.73,-0.14 -16.726,-4.82 -1.262,0 -1.262,1.25 -2.52,0 -1.261,-1.19 -4.562,1.88 -3.945,2.44 12.918,12.48 19.355,10.04 30.996,12.48 0,0 0,-1.22 1.258,-1.22 z m 0,-16.09 -1.258,-1.39 c -5.176,-2.43 -8.977,1.39 -14.141,-1.22 -1.347,-0.95 -1.261,1.22 -2.519,2.61 -1.418,0 -4.336,1.2 -3.945,1.2 7.742,3.63 14.148,5.02 21.863,-1.2 z m -14.121,-33.78 c -2.539,6.22 -6.504,11.27 -11.668,15.07 7.871,1.2 7.871,2.43 7.871,2.43 3.797,0 8.973,-2.43 11.484,-7.46 3.926,-13.69 1.414,-21.29 6.434,-41.2 -7.715,1.19 -10.235,22.52 -14.121,31.16 z m -15.449,7.46 c -1.231,0 1.261,5 1.261,5 1.258,1.24 2.52,0 3.953,-1.19 12.891,-11.27 6.438,-32.39 19.336,-43.67 1.27,-2.42 -7.879,0 -10.379,3.82 -7.695,11.09 -3.937,19.94 -14.171,36.04 z m -7.696,-9.89 c 1.262,0 1.262,0 2.52,1.22 1.269,1.21 2.492,5.04 2.492,3.8 5.203,-5.02 9.16,-15.06 9.16,-24.94 2.469,-11.25 7.695,-15.05 6.434,-15.05 -3.965,1.21 -7.696,3.8 -10.391,6.24 -2.519,5 -2.519,13.67 -10.215,28.73 z m -9.148,-6.21 c -1.231,0 5.222,2.43 6.465,3.62 3.945,-6.23 6.472,-14.91 6.472,-22.33 2.676,-7.47 0,-16.29 -1.269,-22.53 -8.965,7.43 -5.203,19.91 -7.715,29.95 -1.25,3.83 -2.664,7.46 -3.953,11.29 z m -33.489,36.19 c 0,1.2 -1.25,4.84 2.5,6.23 1.446,0 2.708,1.2 3.938,2.39 1.289,0 2.52,-2.39 3.953,-3.78 -1.433,-3.64 -5.183,-6.26 -3.953,-9.89 0,0 1.289,-1.19 2.52,-1.19 2.675,1.19 5.195,2.43 6.453,6.24 h 1.418 c 0,0 1.289,0 1.289,-1.42 0,-1.19 -1.289,-3.63 -1.289,-4.82 -1.418,-2.61 -5.196,-3.81 -6.438,-5.04 -1.433,-1.2 -3.953,-1.2 -3.953,-2.57 1.289,-2.43 2.52,-3.66 3.953,-4.86 1.242,-1.38 2.5,0 3.762,0 0,-1.38 -1.262,-2.62 -1.262,-5.01 -1.258,0 -3.933,1.2 -5.164,1.2 -1.289,1.19 -2.519,2.43 -2.519,3.81 0,1.2 0,3.62 -1.262,4.86 h -3.946 c -1.25,-1.24 -1.25,-1.24 -1.25,-2.43 0,-1.23 0,-2.43 1.25,-2.43 2.5,0 2.5,-2.62 3.946,-3.81 1.262,-2.44 5.012,-2.44 2.492,-5.03 -1.23,0 -1.23,-1.21 -2.492,-2.43 -1.446,0 -1.446,1.22 -1.446,2.43 -2.5,3.83 -5.007,7.46 -7.683,12.46 1.23,5.04 3.933,10.04 5.183,15.09 z m 23.293,1.2 c -3.945,1.21 -15.566,12.47 -16.855,12.47 0,0 -1.016,-4.15 -6.016,-4.93 -0.507,-0.07 -1.836,-0.36 -2.832,0.47 -2.851,2.09 -3.574,7.9 -0.566,11.39 0.469,0.69 2.949,1.19 4.031,1.16 2.043,-0.05 3.75,-1.18 5.383,-4.46 5.195,0 11.68,-1.2 15.43,-3.63 2.695,0 3.933,-2.61 3.933,-5.05 -1.238,-2.39 -1.238,-6.21 -2.508,-7.42 z m 23.133,-1.2 c -3.789,1.2 -15.449,-3.81 -20.625,0 1.262,3.62 5.176,9.87 10.391,9.87 3.762,1.19 10.234,-3.64 11.457,-7.46 0,0 1.453,0 2.684,1.21 2.519,0 5.214,0 7.707,-2.42 1.238,-1.2 1.238,-2.62 0,-5.01 -1.231,-1.24 -6.446,-6.24 -8.938,-1.24 -1.453,1.24 0,3.63 -2.676,5.05 z m -23.133,-15.09 c 1.27,-2.42 2.508,-3.62 0,-5 0,0 -1.425,-1.24 -1.425,0 l -3.75,3.81 c -2.707,2.43 -5.227,0 -7.727,0 0,1.19 0,1.19 0,2.43 6.438,1.37 8.957,6.21 11.477,11.24 h 1.425 c 1.27,-1.2 -3.945,-7.44 0,-12.48 z m -12.902,-27.34 c 2.5,3.63 5.02,16.1 6.438,13.67 5.039,-10.04 -6.438,-22.52 -9.102,-21.14 -2.519,0 -5.227,14.89 2.664,22.35 0,1.22 1.242,0 1.242,0 -1.242,-5.02 -2.675,-9.88 -2.675,-14.88 z m 20.586,19.91 c -1.219,0 -1.219,0 -2.656,-1.2 0,-3.83 -10.203,-1.24 -11.492,0 v 5.01 c 1.289,1.2 2.519,-3.81 5.039,-3.81 2.695,-1.2 2.695,0 5.195,2.43 1.258,0 0,1.38 0,1.38 -2.5,3.62 -3.77,9.86 -1.262,14.9 1.262,0 2.52,0 2.52,0 2.656,-2.43 0,-7.47 2.656,-8.67 1.281,-1.37 2.512,-2.61 3.801,-2.61 3.933,1.24 1.414,5.04 2.664,8.85 1.269,1.19 3.762,3.63 7.715,3.63 0,-1.2 0,-2.44 1.269,-3.63 0,-1.4 3.907,-2.61 1.223,-3.81 -2.492,-3.8 -3.75,-8.66 -5.012,-13.67 -2.683,-3.83 -12.879,-7.48 -20.769,-12.47 -1.262,1.18 0,3.62 -1.262,7.43 2.687,0 5.195,0 7.715,1.21 1.437,0 5.168,-1.21 6.457,1.22 0,2.61 -1.289,5 -3.801,3.81 z m -73.621,-68.58 c 14.355,10.05 18.094,19.91 28.477,31.15 0,-5 0,-13.68 -5.168,-21.1 -5.215,-7.62 -18.125,-8.85 -23.309,-10.05 z m 37.461,-14.89 c -2.52,-2.61 -3.781,-2.61 -6.457,-7.63 0,0 -3.777,10.04 -1.258,15.06 1.258,1.23 3.934,3.66 5.195,6.24 1.231,-3.8 1.231,-10.04 2.52,-13.67 z m -2.52,19.91 c -1.261,-6.24 -15.586,-21.3 -30.988,-18.69 37.441,22.34 21.828,41.03 30.988,54.87 2.52,1.23 3.75,4.86 7.703,4.86 0,-4.86 3.946,-7.43 2.5,-9.86 -3.75,-7.47 -8.972,-22.53 -10.203,-31.18 z m 12.911,-31.16 c -7.715,7.43 -9.161,24.92 -9.161,34.81 1.446,6.22 3.953,20.06 7.899,26.3 0,0 0,-1.39 1.262,-1.39 3.75,0 3.75,1.39 7.683,3.81 0,-23.72 -14.141,-19.92 -7.683,-63.53 z m 12.91,5.01 c -9.16,1.22 -11.68,13.67 -9.16,28.56 1.433,11.29 7.871,18.72 6.453,32.39 1.418,0 3.937,3.8 3.937,6.24 8.973,-18.7 -8.957,-42.26 6.453,-57.32 -8.972,-2.41 -11.648,8.83 -11.648,6.24 -1.262,-5.02 1.258,-11.26 3.965,-16.11 z m 16.66,19.91 c -6.457,5.02 -7.715,7.46 -10.215,13.7 -1.27,11.23 3.758,22.49 -1.27,33.58 0,1.39 -2.687,3.8 0,3.8 2.508,1.22 5.028,2.44 6.465,3.81 5.02,-5 5.02,-21.28 5.02,-26.31 -1.289,-11.07 -3.801,-16.12 0,-28.58 z m 47.812,70.99 c 0,-1.19 0,-1.19 -1.25,-1.19 -1.437,0 -3.945,1.19 -5.187,6.24 -1.27,5 -6.485,8.64 -11.649,10.04 1.278,2.43 0,4.82 0,7.44 3.934,1.21 7.684,1.21 10.379,-1.2 3.762,-2.61 1.27,-8.85 6.457,-18.71 0,-1.38 1.25,-1.38 1.25,-2.62 z m 1.27,-9.87 1.238,1.22 c 6.457,-13.67 22.024,-15.06 36.203,-12.45 25.801,3.63 60.567,17.47 82.578,17.47 7.684,0 25.789,-3.8 25.789,-15.06 0,-7.46 -2.644,-11.26 -7.859,-16.11 -7.734,-5.02 -27.062,-6.24 -34.758,-6.24 -5.672,0 -21.336,0 -27.703,5.08 -0.879,0.7 -4.238,3.41 -5.293,3.83 -3.664,1.46 -7.16,2.18 -12.129,2.18 -18.125,0 -38.73,-9.87 -54.152,-9.87 -2.676,0 -5.184,22.35 -3.914,29.95 z m 61.973,12.49 c 0,-1.38 -19.356,-7.62 -27.227,-7.62 -14.152,0 -16.672,6.24 -16.672,12.48 -1.23,7.61 12.91,18.69 21.867,13.85 7.735,-5.05 12.899,-13.85 22.032,-18.71 z m -50.325,22.33 c 7.688,7.44 21.836,11.26 21.836,18.7 1.192,9.52 -9.129,10.77 -10.222,11.26 3.789,2.44 12.929,-1.2 15.429,-6.24 1.25,-1.19 1.25,8.68 -1.25,13.69 0,0 1.004,0.03 2.715,-0.99 10.164,-7.34 9.988,-16.83 6.238,-23.94 -0.379,-0.97 1.641,-2.68 2.696,-1.22 4.855,9.77 17.238,8.73 26.308,12.16 l 1.145,0.24 0.84,-1.13 c -2.325,-1.13 -3.711,-3.43 -4.903,-4.74 l -0.187,-0.83 c 0.344,-0.68 1.398,-0.68 2.57,-0.68 16.688,0 25.809,7.44 27.07,6.25 0,-1.23 -2.687,-7.46 -27.07,-13.7 -5.195,-7.61 3.777,-13.87 2.52,-15.06 -6.457,-1.2 -10.371,2.61 -10.371,8.84 0,1.06 0,1.18 -0.852,1.2 l -0.977,-0.71 c -6.433,-8.79 5.989,-20.63 14.719,-23 0,0 0,0 0,-1.23 0,0 -2.031,-0.36 -3.762,0 -26.21,4.87 -20.964,24.83 -42.937,23.89 -0.625,-0.02 -2.363,-0.07 -3.547,-0.5 -6.465,-2.03 -15.683,-9.07 -18.008,-17.16 -1.258,-7.43 3.75,-16.27 10.188,-18.7 18.105,-5.03 32.254,3.65 47.832,9.89 7.715,-2.43 15.418,-1.24 19.363,2.58 0,0 -5.203,1.23 -6.426,3.66 l 2.129,0.14 c 8.34,1.4 11.965,4 10.742,13.71 6.457,0 12.883,-7.64 14.153,-10.05 3.953,0 -2.5,11.25 -3.918,13.67 7.871,-2.42 14.308,-3.62 18.105,-12.47 3.887,0 -2.508,16.28 -1.289,15.08 12.891,-6.23 11.68,-17.51 12.891,-16.28 3.957,5 1.262,10.05 2.531,13.67 7.676,-3.54 14.031,-8.43 10.664,-15.58 l -0.117,-1.22 1.082,-0.67 c 2.707,0 6.465,7.61 6.465,8.8 3.937,-5 6.457,-11.23 3.937,-16.28 -0.5,-0.92 -1.015,-1.14 -1.183,-1.84 l 0.293,-0.84 c 1.152,-0.8 2.422,-0.11 3.41,0.29 6.445,3.63 5.195,11.24 9.16,13.67 3.565,-13.09 1.426,-20.5 -11.184,-24.44 -2.265,-0.69 -3.171,-1.7 -3.171,-1.7 1.425,-6.24 0,-12.48 -2.52,-17.52 -3.937,-10.03 -11.621,-13.68 -20.578,-17.48 -12.899,-5.02 -38.731,-3.62 -49.121,3.8 -1.785,1.41 -2.481,2.44 -3.77,3.65 16.692,-4.84 60.567,-7.45 68.262,16.26 6.465,16.28 -8.934,27.39 -21.875,28.77 -27.031,2.43 -50.32,-8.84 -82.566,-18.72 -15.383,-3.81 -42.629,-2.59 -42.629,18.72 -1.27,8.66 1.406,16.1 9.14,22.33 z m 81.153,-200.73 c 0,2.43 3.945,10.05 7.871,10.05 0,-2.57 1.261,-5.01 2.519,-7.62 1.262,-1.21 -7.715,-1.21 -10.39,-2.43 z m -129.012,10.05 c -6.445,0 -7.695,-1.37 -11.457,-2.57 0,2.43 6.933,8.16 10.851,7.59 l 0.606,-0.67 c 0.008,-1.93 0.117,-2.1 1.453,-4.35 z m -2.492,21.14 c 0.097,-1.11 -0.633,-0.92 -1.621,-0.45 l -1.864,0.74 c -3.39,0.92 -5.714,0.83 -8.183,-0.29 1.289,3.81 7.715,6.24 11.668,5.03 1.281,-0.24 -1.258,0 0,-5.03 z m -147.11,-14.32 -0.976,-0.27 c -3.067,0.9 -4.649,0.68 -9.227,-1.69 1.231,5.04 8.934,7.61 10.203,6.25 z m 7.805,170.82 -0.5,-0.72 c -3.652,-0.44 -7.254,8.77 -6.043,10.14 1.445,0 1.445,-3.81 7.871,-5.05 0,-1.01 -1.027,-3.05 -1.328,-4.37 z m 375.453,-141.59 c -2.7,0 -7.88,-1.23 -10.39,1.37 2.51,4.85 6.4,3.64 6.4,6.23 -1.21,1.2 -3.89,1.2 -5.17,2.45 -1.23,2.38 3.96,7.43 2.7,12.44 -1.42,1.23 -2.49,0.44 -3.93,0 -3.96,-1.2 5.19,7.47 1.23,10.03 -8.94,-2.56 -15.395,-8.8 -25.785,-7.61 -1.192,1.33 -2.395,8.07 -11.328,8.79 -0.508,0.04 -1.563,0.06 -3.028,-0.94 -5.605,-3.82 -15.664,-8.73 -20.441,-5.23 -3.359,2.35 -5.059,7.94 -6.18,12.62 -0.605,2.51 -2.121,10.16 -3.144,11.8 -4.785,7.61 -18.625,10.61 -22.903,22.85 23.02,-4.83 67.832,-4.84 67.032,36.82 l 0.851,1.53 c 3.641,2.24 16.796,7.87 13.666,22.53 -0.1,0.48 -0.4,2.01 -0.36,3.04 0.04,3.01 0.32,6.02 2.14,8.9 0.78,1.11 1.8,1.97 1.8,1.97 -6.39,4.99 -16.64,-24.23 -24.308,6.58 -0.086,0.73 -1.348,2.73 -2.754,2.27 0,-2.59 -3.028,-6.9 -5.184,-6.23 -6.476,2.42 -11.679,17.49 -16.855,16.1 1.347,-5.92 2.566,-10.56 -0.703,-11.03 l -1.125,0.11 c -4.911,1.41 -8.555,6.12 -13.575,7.29 -1.257,-2.61 1.223,-5.05 -1.257,-7.44 -9.133,-1.39 -14.172,2.39 -19.368,3.64 0,-1.13 1.036,-2.21 1.243,-4.32 l -0.352,-1.03 c -2.316,-1.72 -5.547,-0.02 -6.992,0.27 l -0.481,-0.43 c -0.125,-2.09 5.274,-4.43 3.379,-10.27 -0.527,-1.69 -1.101,-2.49 -1.433,-2.85 -2.883,-3.2 -12.598,-5.55 -15.977,1.12 -1.418,2.59 7.742,2.59 8.965,3.83 -1.223,2.39 -5.188,3.81 -2.512,10.04 1.289,6.22 27.043,11.07 25.813,24.94 -5.196,1.21 -22.043,-10.07 -20.774,4.85 -1.269,0 -1.718,-0.35 -1.941,-0.51 -6.387,-4.68 -15.059,-9.32 -23.887,-8.17 -7.687,2.43 -14.133,16.28 -28.301,18.71 v -8.67 c -8.964,0 -16.828,0 -18.078,-5 7.688,0 12.903,0 15.606,-7.46 2.472,-7.62 -15.606,-11.25 -25.84,-22.51 -3.27,2.31 -7.871,8.65 -9.129,8.65 2.969,3.28 4.754,6.8 4.891,10.12 0.129,3.26 -0.985,6.42 -2.196,8.59 -0.91,1.67 -1.437,2.61 -2.695,3.81 -6.457,-3.81 -20.605,-2.41 -14.141,3.8 -1.261,0 -2.519,1.24 -6.464,0 -7.707,0 -16.836,0 -23.262,-5 -5.02,6.24 -12.91,11.24 -20.625,12.48 -1.262,1.19 -2.52,2.38 -3.762,2.38 -1.433,-6.21 -5.183,-7.43 -11.641,-6.21 0,-2.41 1.25,-5.01 1.25,-6.22 0,0 -6.472,2.57 -14.167,0 -3.926,0 -7.676,1.21 -9.122,1.21 0,-1.21 3.954,-3.64 3.954,-4.85 -1.25,-6.25 -8.954,-7.63 -11.641,-10.07 2.687,-2.41 3.906,-2.41 5.168,-5 0.945,-1.4 -7.695,-8.67 -8.977,-9.87 2.52,-1.39 8.352,-2.32 7.715,-3.82 -2.656,-5.02 -9.129,-8.65 -9.129,-14.89 1.414,0 2.696,1.2 5.223,0 -3.555,-4.7 -6.121,-10.43 -8.477,-17.26 -0.554,-1.29 0.235,-2.19 0.84,-2.49 l 1.153,-0.34 c 0,-3.62 -1.231,-6.23 -2.489,-8.67 -2.695,-2.41 -12.922,14.91 -12.922,27.39 0,26.3 5.235,21.28 5.235,26.3 0,6.24 -6.485,4.85 -9.16,8.65 -5.196,8.67 -19.336,11.28 -25.821,5.05 3.965,-1.23 6.485,-1.23 9.153,-6.25 1.238,-2.6 -1.438,-2.6 -1.438,-5.02 -2.5,0 -3.75,-1.21 -5.019,0 -5.184,3.81 -16.817,8.66 -24.52,0 6.121,-1.16 12.274,-4.67 13.934,-11.45 l -0.02,-1.6 c -2.801,-6.25 -11.426,4.4 -11.426,4.4 -3.574,-4.8 -3.738,-16.34 3.985,-19.64 l 1.914,-0.25 c 2.519,0.47 1.308,-2.79 3.281,-4.42 l 2.383,-1.07 c 2.043,-0.47 4.59,0.14 6.621,0.36 0.988,0.1 1.73,-0.17 2.363,-0.68 1.153,-0.92 1.086,-1.87 -0.183,-3.26 l -1.711,-1.26 c -2.293,-0.75 -4.715,0.27 -7,0.27 0,0 -0.598,-4.69 1.726,-7.2 2.403,-2.59 5.793,-4.09 9.922,-4.09 2.52,0 2.52,-3.79 1.25,-5.01 -7.703,-5.02 -14.16,-6.24 -18.074,-14.88 3.914,1.19 7.695,1.19 7.695,-1.23 0,-3.82 -2.519,-5.02 -5.039,-7.61 0,0 -1.418,0 -1.418,-1.21 2.676,-1.22 6.457,1.21 7.891,-1.22 2.5,-2.41 -9.129,-8.64 -7.891,-13.69 5.196,1.24 11.621,2.43 12.91,-3.81 0,-3.63 -2.519,-7.43 -6.453,-9.86 5.164,0 10.379,2.43 11.649,0 1.23,-1.37 -7.715,-6.24 -7.715,-11.24 3.926,1.19 6.445,2.41 10.383,1.19 2.519,-5.02 -9.153,-8.65 -10.383,-8.65 3.926,-6.26 20.597,-5.01 28.301,-1.39 2.675,-11.08 16.855,-11.08 16.855,-12.48 -3.953,-3.62 -7.695,-11.08 -6.484,-14.86 1.281,-11.28 -5.164,-21.15 -18.075,-21.15 -7.695,0 -15.402,1.22 -18.078,8.68 -2.519,7.43 -7.714,7.43 -12.91,3.79 -7.715,3.64 -17.918,-2.6 -20.605,-10.04 5.195,1.2 20.605,-3.8 11.621,-12.47 -6.426,0 -12.879,-3.8 -14.129,-14.91 28.309,7.48 24.531,-10.05 5.195,-15.05 11.465,-9.87 16.68,-6.24 27.051,-2.43 1.816,0.89 2.527,0.38 3.777,0 7.942,-3.31 8.02,6.66 10.391,8.45 1.094,0.97 2.551,0.58 3.398,0.17 l 0.879,-0.98 c 1.594,-5.47 -2.898,-7.7 -0.34,-8.86 8.387,-1.3 14.559,9.53 15.313,18.18 l 1.133,2.89 c 1.426,1.58 3.476,3.86 5.379,3.86 5.226,1.25 10.39,-8.8 31.008,-2.57 0,1.2 -2.696,3.82 -1.25,5.02 3.777,1.22 7.714,2.43 11.464,3.79 3.953,3.65 10.391,2.44 14.344,6.24 -1.433,0 -3.953,1.22 -3.953,2.43 1.289,1.23 8.973,1.23 7.715,3.81 0,0 -1.262,0 -2.52,1.22 -2.675,1.21 18.125,9.88 18.125,12.44 -1.437,0 -7.89,7.49 -5.195,8.69 3.758,1.18 8.926,2.58 11.629,6.23 3.762,1.2 29.59,8.83 39.961,12.48 0,-8.67 1.008,-13.12 4.601,-16.27 2.637,-2.29 5.614,-3.64 10.801,-4.89 7.703,-1.2 15.567,1.25 24.531,0 7.715,0 7.715,-11.22 -1.242,-13.66 -5.183,-1.39 -10.39,-1.39 -15.586,-1.39 -9.304,0.96 -10.859,3.61 -14.16,7.62 -1.238,1.19 -1.23,1.32 -4.121,2.83 -3.555,1.84 -6.348,1.93 -9.512,4.08 -3.152,2.15 -4.461,7.99 -9.48,7.99 -3.184,0 -5.176,-1.22 -6.438,-2.44 -7.898,4.85 -20.769,-3.78 -19.355,-12.46 3.488,2.24 9.328,2.41 12.285,-3.55 0.215,-0.46 0.43,-0.93 0.176,-2.05 -0.254,-1.12 -1.297,-2.83 -2.227,-2.02 -11.648,6.25 -20.625,-9.87 -16.668,-13.68 3.731,2.59 8.953,3.81 14.141,0 2.527,-1.21 2.527,-3.65 2.527,-6.22 -7.715,-2.42 -11.648,-5.04 -14.168,-17.52 -0.187,-2.1 1.231,-1.21 1.231,-1.21 6.465,5.03 12.937,5.03 19.363,5.03 3.957,-3.82 9.133,-5.03 12.93,-2.42 5.39,3.8 10.422,11.35 12.754,12.28 0.937,0.37 1.906,1.02 2.746,-0.35 0.828,-1.37 0.058,-4.2 0.058,-4.2 -0.8,-2.83 -3.672,-4.71 -6.457,-6.52 0,-1.21 2.5,-2.94 6.457,-2.94 5.008,0 7.95,0.3 11.629,2.63 l 1.281,0.31 c 0,0 0.536,-0.07 0.204,-1.21 -0.399,-1.93 -2.637,-5.02 -1.641,-5.02 6.445,-1.22 11.641,0 14.309,5.02 2.539,-2.61 3.789,-6.24 7.722,-7.63 0,3.8 1.242,8.84 5.207,11.28 0,-2.44 3.75,-12.48 6.426,-9.89 0,0.88 1.356,4.47 2.566,6.33 l 1.602,1.47 c 1.398,0.09 3.898,-9.06 7.305,-7.8 1.465,3.63 5.187,9.89 6.437,11.09 5.223,-1.2 12.918,-3.64 18.113,-2.43 -5.195,6.22 -6.453,8.66 -6.453,14.91 0,5.01 6.493,6.42 9.336,9.94 2.84,3.53 3.563,5.12 3.563,8.75 -1.258,5.02 -7.703,7.62 -11.641,11.26 -5.008,5.04 -1.308,13.02 -0.957,13.7 l 0.957,1.36 c 6.457,-5.02 11.641,-8.82 16.856,-12.47 6.445,-5.04 15.41,-6.23 23.281,-5.04 8.945,1.23 27.062,0 27.062,-10.03 0,-5 -6.437,-12.46 -11.66,-11.24 -3.957,2.59 -3.957,10.04 -8.965,11.24 -2.695,1.22 -6.437,-1.2 -9.132,-3.63 -8.954,3.63 -18.086,2.43 -24.532,-10.04 0,-2.44 2.676,-1.2 3.946,-1.2 5.175,1.2 11.632,0 15.41,-3.81 0,-1.22 -1.258,0 -5.039,-6.24 -6.446,-1.24 -12.879,-11.28 -12.879,-19.91 0.176,-1.2 0,-1.23 1.238,-1.23 6.445,3.63 12.902,6.24 20.598,6.24 1.258,-1.22 1.258,-3.81 1.258,-5.01 -5.176,-2.45 -10.215,-3.84 -15.411,-3.84 -1.238,-0.15 -1.023,-1.6 0,-2.41 7.715,-7.45 23.118,-7.45 28.34,-2.42 11.602,-1.38 16.828,7.44 12.864,14.87 -0.559,1.07 0.339,2.32 1.269,2.43 6.434,1.4 9.121,-7.43 7.859,-13.67 6.75,-2.23 13.313,7.3 14.172,12.46 7.715,0 12.91,1.21 21.885,8.83 -2.03,0 -4.97,0.79 -6.7,2.35 -1.02,0.92 -1.77,1.31 -1.22,2.23 1.28,1.67 8.42,4.54 10.58,6.53 0,1.36 -2.66,2.6 -2.66,3.8 1.23,2.43 7.7,3.8 7.7,7.46 0,0 -5.04,0 -5.04,1.21 1.25,1.37 10.22,7.61 12.92,12.47" /><path
         id="path204"
         style="fill:#00adef;fill-opacity:1;fill-rule:nonzero;stroke:none"
         d="m 835.668,1193.54 c -1.57,0.94 -4.051,2.83 -5.039,1.2 -1.406,-3.63 -2.676,-6.23 -6.434,-9.87 3.758,-1.21 15.41,6.24 11.473,8.67" /><path
         id="path206"
         style="fill:#00adef;fill-opacity:1;fill-rule:nonzero;stroke:none"
         d="m 672.633,1399 c 0.449,-0.77 1.101,-1.62 2.215,-1.91 2.062,-0.55 4.035,0.95 6.015,0.95 -2.519,5.05 -7.715,6.24 -12.91,5.05 2.305,-1.05 3.574,-2.23 4.68,-4.09" /><path
         id="path208"
         style="fill:#00adef;fill-opacity:1;fill-rule:nonzero;stroke:none"
         d="m 935.074,1212.25 c -5.168,3.8 -14.133,-2.44 -15.558,-5.03 5.207,1.37 7.871,1.37 12.91,-1.22 0,0 1.418,5.02 2.648,6.25" /><path
         id="path210"
         style="fill:#00adef;fill-opacity:1;fill-rule:nonzero;stroke:none"
         d="m 655.074,1385.56 c 0.301,-0.66 1.414,1.22 2.481,2.85 0.761,1.16 1.66,2.12 1.453,2.2 -1.258,1.21 -7.715,3.63 -11.629,2.43 -2.539,-1.22 3.914,0 7.695,-7.48" /><path
         id="path212"
         style="fill:#00adef;fill-opacity:1;fill-rule:nonzero;stroke:none"
         d="m 753.246,1349.39 c -7.891,-7.46 -5.183,-22.35 -2.664,-22.35 2.664,-1.38 14.141,11.1 9.102,21.14 -1.418,2.43 -3.938,-10.04 -6.438,-13.67 h -1.433 c 0,5 1.433,9.86 2.675,14.88 0,0 -1.242,1.22 -1.242,0" /><path
         id="path214"
         style="fill:#00adef;fill-opacity:1;fill-rule:nonzero;stroke:none"
         d="m 789.898,1194.9 c -3.918,0.57 -10.851,-5.16 -10.851,-7.59 3.762,1.2 5.012,2.57 11.457,2.57 h 1.453 c -1.336,2.25 -1.445,2.42 -1.453,4.35 l -0.606,0.67" /><path
         id="path216"
         style="fill:#00adef;fill-opacity:1;fill-rule:nonzero;stroke:none"
         d="m 645.707,1224.7 c -3.887,-0.02 -8.652,-0.18 -11.258,-5.02 3.906,1.04 7.11,-0.16 8.457,-0.33 l 1.153,1.23 c 0.964,1.8 1.863,2.85 2.039,3.81 l -0.391,0.31" /><path
         id="path218"
         style="fill:#00adef;fill-opacity:1;fill-rule:nonzero;stroke:none"
         d="m 647.836,1180.99 -0.75,-0.36 c -2.461,-3.41 -5.07,-5.84 -8.672,-7 2.332,-1.16 10.508,-1.23 12.559,0.78 l 0.652,1.11 c -0.117,1.52 -1.855,4.97 -3.789,5.47" /><path
         id="path220"
         style="fill:#00adef;fill-opacity:1;fill-rule:nonzero;stroke:none"
         d="m 793.453,1230 c 1.055,1.29 1.434,3.48 2.254,4.73 -2.519,3.63 -8.953,1.25 -11.648,-2.58 2.695,0 5.222,-1.21 7.898,-2.43 l 1.496,0.28" /><path
         id="path222"
         style="fill:#00adef;fill-opacity:1;fill-rule:nonzero;stroke:none"
         d="m 630.699,1194.74 c 4.578,2.37 6.16,2.59 9.227,1.69 l 0.976,0.27 v 4.29 c -1.269,1.36 -8.972,-1.21 -10.203,-6.25" /><path
         id="path224"
         style="fill:#00adef;fill-opacity:1;fill-rule:nonzero;stroke:none"
         d="m 788.012,1216.05 c -3.953,1.21 -10.379,-1.22 -11.668,-5.03 2.469,1.12 4.793,1.21 8.183,0.29 l 1.864,-0.74 c 0.988,-0.47 1.718,-0.66 1.621,0.45 -1.258,5.03 1.281,4.79 0,5.03" /><path
         id="path226"
         style="fill:#00adef;fill-opacity:1;fill-rule:nonzero;stroke:none"
         d="m 642.164,1376.94 c -1.211,-1.37 2.391,-10.58 6.043,-10.14 l 0.5,0.72 c 0.301,1.32 1.328,3.36 1.328,4.37 -6.426,1.24 -6.426,5.05 -7.871,5.05" /><path
         id="path228"
         style="fill:#00adef;fill-opacity:1;fill-rule:nonzero;stroke:none"
         d="m 928.648,1167.38 c 1.258,-3.8 11.649,-3.8 14.168,-1.22 -1.257,1.22 -2.519,2.43 -3.953,3.63 -2.519,-2.41 -6.437,-2.41 -10.215,-2.41" /><path
         id="path230"
         style="fill:#00adef;fill-opacity:1;fill-rule:nonzero;stroke:none"
         d="m 927.387,1189.88 c -3.926,0 -7.871,-7.62 -7.871,-10.05 2.675,1.22 11.652,1.22 10.39,2.43 -1.258,2.61 -2.519,5.05 -2.519,7.62" /><path
         id="path232"
         style="fill:#00adef;fill-opacity:1;fill-rule:nonzero;stroke:none"
         d="m 979.43,1182.93 c -3.176,2.14 -9.446,3.04 -8.332,1.94 5.195,-3.82 5.195,-5.04 5.195,-11.24 4.504,2.08 4.18,6.12 4.023,7.97 l -0.886,1.33" /><path
         id="path234"
         style="fill:#e6f7fd;fill-opacity:1;fill-rule:nonzero;stroke:none"
         d="m 910.914,1683.34 c -23.078,-1.32 -33.957,13.69 -53.996,14.06 -8.191,0.15 -20.105,-2.11 -34.871,-13.91 -14.766,11.8 -26.672,14.06 -34.863,13.91 -20.039,-0.37 -30.93,-15.38 -53.996,-14.06 -3.165,0.18 -6.075,0.64 -8.672,1.24 v -78.32 c 2.597,-0.59 5.507,-1.05 8.672,-1.24 23.066,-1.31 33.957,13.69 53.996,14.07 8.152,0.14 19.988,-2.1 34.668,-13.75 v -0.32 l 0.195,0.16 0.203,-0.16 v 0.32 c 14.668,11.65 26.516,13.89 34.668,13.75 20.039,-0.38 30.918,-15.38 53.996,-14.07 3.164,0.19 6.063,0.65 8.672,1.24 v 78.32 c -2.609,-0.6 -5.508,-1.06 -8.672,-1.24" /><path
         id="path236"
         style="fill:#a89f19;fill-opacity:1;fill-rule:nonzero;stroke:none"
         d="m 707.914,1598.63 h 122.91 v -8.82 h -122.91 v 8.82" /><path
         id="path238"
         style="fill:#a89f19;fill-opacity:1;fill-rule:nonzero;stroke:none"
         d="m 717.047,1685.34 v -95.53 h -9.133 v 95.53 h 9.133" /><path
         id="path240"
         style="fill:#a89f19;fill-opacity:1;fill-rule:nonzero;stroke:none"
         d="M 936.188,1598.63 H 813.277 v -8.82 h 122.911 v 8.82" /><path
         id="path242"
         style="fill:#a89f19;fill-opacity:1;fill-rule:nonzero;stroke:none"
         d="m 927.055,1685.34 v -95.53 h 9.133 v 95.53 h -9.133" /><path
         id="path244"
         style="fill:#a89f19;fill-opacity:1;fill-rule:nonzero;stroke:none"
         d="m 692.652,1619.97 15.75,8.8 v -17.59 z" /><path
         id="path246"
         style="fill:#a89f19;fill-opacity:1;fill-rule:nonzero;stroke:none"
         d="m 692.652,1655.18 15.75,8.78 v -17.58 z" /><path
         id="path248"
         style="fill:#a89f19;fill-opacity:1;fill-rule:nonzero;stroke:none"
         d="m 951.449,1619.97 -15.761,8.8 v -17.59 z" /><path
         id="path250"
         style="fill:#a89f19;fill-opacity:1;fill-rule:nonzero;stroke:none"
         d="m 951.449,1655.18 -15.761,8.78 v -17.58 z" /><path
         id="path252"
         style="fill:#db3921;fill-opacity:1;fill-rule:nonzero;stroke:none"
         d="m 919.586,1692.89 -1.926,-0.44 c -2.41,-0.55 -4.844,-0.9 -7.246,-1.04 -10.293,-0.57 -17.84,2.83 -25.926,6.48 -8.047,3.64 -16.367,7.4 -27.414,7.6 l -0.898,0.01 c -11.297,0 -22.774,-3.97 -34.129,-11.8 -11.359,7.83 -22.832,11.8 -34.121,11.8 l -0.91,-0.01 c -11.036,-0.2 -19.364,-3.96 -27.411,-7.6 -8.078,-3.65 -15.664,-7.05 -25.929,-6.48 -2.403,0.14 -4.832,0.49 -7.235,1.04 l -1.925,0.44 v -3.95 l 1.007,-0.23 c 2.625,-0.6 5.293,-0.98 7.918,-1.13 11.27,-0.65 19.317,2.98 27.844,6.83 7.676,3.47 15.613,7.05 25.809,7.24 l 0.832,0.01 c 10.82,0 21.902,-4 32.937,-11.88 l 1.184,-0.84 1.18,0.84 c 11.046,7.88 22.128,11.88 32.949,11.88 l 0.832,-0.01 c 10.195,-0.19 18.125,-3.77 25.801,-7.24 7.859,-3.55 15.293,-6.91 25.261,-6.91 l 2.578,0.08 c 2.629,0.15 5.293,0.53 7.922,1.13 l 1.016,0.23 v 3.95" /><path
         id="path254"
         style="fill:#231f20;fill-opacity:1;fill-rule:nonzero;stroke:none"
         d="M 1115.16,1724.64 H 528.93 v -592.47 c 0,-24.85 14.59,-47.54 37.648,-58.55 L 822.047,951.668 1077.37,1072.77 c 23.13,10.97 37.79,33.71 37.79,58.62 z m -13.05,-12.61 v -580.64 c 0,-19.94 -11.97,-38.51 -30.49,-47.3 L 822.066,965.73 572.359,1084.93 c -18.742,8.95 -30.371,27.05 -30.371,47.24 v 579.86 h 560.122" /><path
         id="path256"
         style="fill:#231f20;fill-opacity:1;fill-rule:evenodd;stroke:none"
         d="m 813.188,851.141 c -4.793,0.129 -12.696,0.738 -17.762,0.187 l -1.223,1.211 c 1.633,1.813 3.145,3.652 3.235,5.922 -0.274,5.648 0.242,10.918 -0.051,16.48 -0.145,1.688 -2.032,3.161 -3.594,5.25 l 0.988,0.508 c 5.731,0.18 12.703,-0.738 17.742,-0.308 1.731,0.129 3.411,0.398 4.493,-0.871 -0.008,-2.29 1.496,-4.481 0.714,-6.481 -2.628,-0.68 -2.589,1.711 -3.71,2.883 -3.282,1.976 -7.364,1.949 -10.754,1.648 -0.692,0.27 -0.996,-0.5 -0.555,-1.429 -0.109,-2.243 -0.137,-4.629 -0.266,-6.993 3.145,-0.277 6.973,-0.91 8.731,1.614 0.969,0.386 0.969,0.386 1.66,0.129 0.918,-1.961 -0.125,-2.332 0.383,-3.301 0.195,-1.578 0.301,-3.281 -0.91,-4.352 -1.473,0.543 -1.786,3.832 -4.512,3.192 -1.641,-0.16 -3.035,0.351 -5.027,-0.45 -0.391,-3.019 -0.969,-6.73 0.039,-10.269 2.324,-2.371 8.828,-2.473 11.562,0.449 1.258,1.168 1.621,4.078 3.289,4.36 l 0.918,-1.989 c -1.094,-2.761 -2,-7.109 -5.39,-7.39" /><path
         id="path258"
         style="fill:#231f20;fill-opacity:1;fill-rule:evenodd;stroke:none"
         d="m 833.941,851.34 c -1.738,-0.129 -4.113,-0.031 -5.625,0.531 -0.429,0.93 0.536,1.348 1.602,1.738 2.645,4.672 1.336,16.211 1.289,24.192 -1.516,0.551 -5.215,-0.403 -6.477,-1.61 -1.218,-1.101 -1.062,-2.711 -3.035,-3.64 -2.207,0.808 -0.422,3.359 -0.832,4.281 0.567,1.469 0.117,2.398 0.391,3.078 0.527,1.352 18.293,0.469 24.883,0.371 2.5,-0.031 1.398,-2.84 1.828,-3.761 0.137,-1.719 1.004,-3.579 -0.957,-4.532 -2.207,0.813 -1.641,2.274 -2.774,3.461 -0.859,1.871 -4.015,2.25 -5.8,2.121 -1.399,0.52 -1.231,-1.07 -1.231,-1.07 -0.715,-6.18 -0.898,-14.859 0.059,-20.84 0.164,-1.601 2.363,-2.398 2.539,-4.012 -1.27,-1.207 -3.477,-0.398 -5.86,-0.308" /><path
         id="path260"
         style="fill:#231f20;fill-opacity:1;fill-rule:evenodd;stroke:none"
         d="m 777.516,897.219 c -2.258,0.261 -4.707,-2.559 -4.961,-4.719 -2.598,-3.98 -4.16,-6.879 -6.778,-10.859 -2.707,-4.993 -4.601,-11.102 -10.312,-12.661 -3.242,-0.691 -4.414,-1.57 -6.555,-0.32 -7.488,0.82 -18.719,7.352 -19.187,13.731 -0.442,5.328 3.496,10.187 6.199,15.168 2.883,4.972 7.676,9.73 6.348,16.347 -0.938,1.117 -1.973,1.235 -0.821,2.149 0.117,1.019 2.219,0.793 3.145,-0.348 2.14,-1.277 6.386,-2.766 8.32,-4.148 0.938,-1.129 4.25,-1.5 2.949,-3.418 -2.371,-0.77 -5.633,-1.582 -7.078,-3.481 -5.097,-6.781 -8.203,-13.922 -11.164,-20.949 -1.406,-3.07 1.359,-6.461 3.34,-8.891 2.004,-1.242 6.211,-2.738 9.387,-3.09 7.754,0.18 12.558,13.461 15.507,19.45 1.395,2.922 2.969,7.011 1.348,11.441 -0.93,1.129 0.125,1.02 0.125,1.02 4.238,-1.5 7.266,-2.852 11.485,-4.352 -0.137,-1.168 -0.254,-2.18 -1.297,-2.07" /><path
         id="path262"
         style="fill:#231f20;fill-opacity:1;fill-rule:evenodd;stroke:none"
         d="m 735.133,917.789 c -5.918,-3.617 -10.051,-10.508 -12.903,-16.519 -2.761,-3.95 -5.468,-8.93 -7.011,-13.008 -1.309,-0.891 -1.434,-1.91 -2.625,-2.813 -1.028,0.121 -3.145,0.352 -4.219,1.5 0,0 -0.918,1.133 -0.793,2.153 -0.809,2.289 -0.879,10.668 -1.062,18.179 -0.704,4.188 -1.165,9.528 -1.575,14.86 -0.925,1.277 -0.566,4.308 -1.718,3.422 -3.926,-4.848 -5.36,-7.926 -8.348,-13.922 -1.524,-4.09 -4.27,-9.071 -3.555,-12.219 0.938,-1.133 1.824,-2.422 0.684,-3.313 -1.184,-0.91 -3.164,0.352 -4.258,1.493 -1.965,1.398 -5.117,2.777 -7.227,3.007 0.235,2.032 1.27,1.922 2.469,2.801 4.465,0.68 6.367,7.809 8.996,10.758 2.86,5.992 4.129,7.93 6.992,12.879 1.18,0.914 2.489,2.969 1.551,4.09 -3.183,1.394 -5.508,-0.41 -7.734,-1.199 -1.211,0.136 -2.254,0.25 -1.082,1.156 0.117,1 1.445,1.898 3.672,2.679 2.226,0.926 5.761,2.579 8.953,1.2 3.008,-1.348 6.191,-2.875 5.949,-4.914 3.348,-8.879 3.289,-18.278 3.25,-27.829 0.762,-2.281 -0.371,-3.171 0.41,-5.308 3.926,4.84 5.586,9.957 8.313,14.93 0.496,4.211 3.359,9.175 0.418,12.578 0.117,1.031 1.183,0.914 1.183,0.914 5.282,-1.629 9.383,-4.121 13.465,-6.785 -0.117,-1 -1.14,-0.887 -2.195,-0.77" /><path
         id="path264"
         style="fill:#231f20;fill-opacity:1;fill-rule:evenodd;stroke:none"
         d="m 668.305,927.359 c -2.078,0.231 -7.344,1.848 -9.364,4.11 2.762,3.957 7.469,6.679 11.075,10.39 0.964,-1.132 -1.594,-13.476 -1.711,-14.5 z m 7.05,-24.121 c -3.171,1.364 -8.32,4.133 -12.402,5.633 -1.219,0.129 -2.117,1.25 -0.976,2.149 1.347,1.031 2.257,-0.25 2.257,-0.25 4.727,2.71 4.032,7.043 4.532,11.257 -3.965,2.496 -9.121,5.118 -12.278,6.641 -3.816,-3.848 -6.531,-8.832 -5.965,-13.152 -1.308,-1.907 -3.156,0.347 -4.335,0.476 -1.993,1.246 -3.977,2.5 -6.094,3.91 -1.055,0.118 -2.09,0.231 -3.039,1.36 1.308,1.926 3.156,-0.348 5.656,1.445 9.551,7.461 16.961,15.012 24.559,22.688 1.164,0.898 -3.184,1.378 -5.274,1.609 -2.266,0.25 -3.535,-1.66 -4.473,-0.531 l 0.118,1.011 c 4.726,2.711 10.488,5.153 15.636,2.52 5.164,-2.609 5.469,-9.109 4.852,-14.324 -0.359,-3.043 -2.332,-19.723 -2.949,-24.942 -0.254,-2.179 0.547,-4.328 1.347,-6.617 0,0 -0.117,-1 -1.172,-0.883" /><path
         id="path266"
         style="fill:#231f20;fill-opacity:1;fill-rule:evenodd;stroke:none"
         d="m 651.93,954.426 c -2.11,1.426 -3.039,2.551 -5.266,1.773 -2.508,-1.929 -5.332,-7.937 -6.777,-11.011 -2.977,-5.981 -5.828,-11.985 -8.66,-16.954 -0.129,-1.031 1.836,-3.437 0.566,-5.367 -1.191,0.133 -2.238,0.25 -2.238,0.25 -2.95,2.391 -6.082,3.914 -9.278,5.281 -0.918,1.145 -1.992,1.266 -0.789,2.165 2.352,0.757 6.817,2.476 8.496,6.539 2.723,4.992 6.778,10.859 9.598,16.847 -1.055,0.117 -1.055,0.117 -1.055,0.117 -9.316,-4.246 -17.664,-10.664 -26.199,-17.226 -1.172,-0.887 -2.07,0.23 -2.07,0.23 -0.449,5.356 -0.078,8.528 1.035,17.965 -0.91,1.125 0.32,11.567 -0.781,12.731 -3.625,-3.875 -6.602,-9.875 -8.301,-14.961 -2.473,-2.961 -5.344,-7.93 -2.52,-12.36 0,0 -0.136,-1.148 -1.191,-1.031 -4.074,2.649 -8.332,4.137 -12.414,6.652 0.137,1.164 0,0 0.137,1.164 5.5,0.407 9.679,7.297 13.449,11.129 2.734,5 6.66,9.868 9.48,15.86 0.129,1.008 -3.007,2.531 -4.089,2.648 -1.985,1.242 -4.485,-0.679 -6.7,-1.461 -0.929,1.129 -0.781,2.289 0.262,2.172 2.441,2.805 7.051,4.516 11.27,2.875 4.23,-1.512 8.222,-5.027 8.898,-8.324 0.059,-8.535 -0.918,-16.797 -0.859,-25.32 l -0.118,-1.032 c 9.539,6.289 18.055,13.883 26.063,16.235 5.527,0.414 7.512,-0.828 8.418,-2.114 2.129,-1.261 3.058,-2.386 2.941,-3.398 -0.117,-1.016 -1.172,-0.898 -1.308,-2.074" /><path
         id="path268"
         style="fill:#231f20;fill-opacity:1;fill-rule:evenodd;stroke:none"
         d="m 1056.5,946.512 c -5.87,-2.864 -15.77,-7.09 -21.5,-10.914 -1.01,-0.129 -2.3,0.675 -2.3,0.675 0.74,3.2 1.34,6.364 -0.08,9.145 -4.12,6.633 -7.07,13.301 -11.16,19.82 -1.29,1.934 -4.58,2.52 -7.85,4.055 -0.15,1.105 0.85,1.234 0.85,1.234 6.77,3.825 15.77,7.098 21.55,10.786 1.99,1.257 3.84,2.613 6,1.773 1.53,-2.781 4.83,-4.453 5.23,-7.367 -2.73,-2.457 -4.28,0.441 -6.41,1.148 -5.3,0.313 -10.18,-2.285 -14.05,-4.758 -1.02,-0.132 -0.87,-1.238 0.29,-2.074 1.37,-2.773 2.95,-5.672 4.38,-8.597 3.97,1.656 9,3.285 9.43,7.421 0.89,1.086 0.89,1.086 1.89,1.215 2.42,-1.789 1.42,-2.902 2.69,-3.726 1.29,-1.797 2.56,-3.754 1.84,-5.821 -2.16,-0.273 -4.72,3.489 -7.57,1 -1.87,-1.23 -3.9,-1.488 -5.76,-3.691 1.55,-3.883 3.37,-8.723 6.96,-12.344 4.4,-1.406 12.3,2.571 13.62,7.805 0.72,2.191 -0.81,5.93 1.02,7.312 1.15,0.149 2.43,-1.808 2.43,-1.808 0.55,-4.008 2.39,-9.821 -1.5,-12.289" /><path
         id="path270"
         style="fill:#231f20;fill-opacity:1;fill-rule:evenodd;stroke:none"
         d="m 1014.84,926.758 c -1.97,-1.238 -4.85,-2.598 -7.02,-2.875 -1.14,0.844 -0.27,1.937 0.74,3.058 0.06,7.188 -9.15,20.079 -14.513,29.504 -2.156,-0.273 -5.926,-3.707 -6.629,-5.914 -0.723,-2.047 0.535,-3.867 -1.191,-6.195 -3.145,-0.406 -2.707,3.742 -3.829,4.57 -0.285,2.082 -1.437,2.914 -1.574,3.879 -0.261,1.93 21.386,11.891 29.286,15.879 2.99,1.512 3.55,-2.519 4.68,-3.336 1.3,-1.949 3.55,-3.637 1.86,-5.98 -3.16,-0.407 -3.44,1.683 -5.59,2.394 -2.26,1.68 -6.27,0.184 -8.3,-1.066 -1.98,-0.254 -0.73,-2.059 -0.73,-2.059 3.25,-7.746 8.79,-18.152 13.87,-24.687 1.28,-1.793 4.43,-1.387 5.7,-3.2 -0.73,-2.207 -3.87,-2.613 -6.76,-3.972" /><path
         id="path272"
         style="fill:#231f20;fill-opacity:1;fill-rule:evenodd;stroke:none"
         d="m 988.063,914.875 c -11.262,5.727 -21.641,12.422 -32.93,18.145 4.383,-8.582 6.629,-17.438 14.89,-23.418 0.286,-2.071 3.137,-0.723 2.403,-2.793 -0.867,-1.09 -4.004,-1.489 -4.883,-2.59 -3.164,-0.399 -4.734,-3.707 -6.16,-0.789 1.914,8.269 -4.336,15.629 -7.422,23.25 -1.398,2.925 -2.824,5.824 -4.238,7.609 -4.024,-0.519 -5.461,-5.75 -6.047,-8.934 -0.879,-1.093 -3.321,0.704 -4.324,0.575 -1.262,1.82 -3.528,3.492 -6.536,2.105 -3.027,-1.351 -5.878,-2.699 -8.925,-4.094 1.574,-3.878 3.261,-7.742 5.82,-11.492 0.137,-0.969 1.027,0.129 1.027,0.129 4.004,1.496 6.992,3.008 7.617,6.055 l 0.965,0.121 c 2.266,-1.68 3.711,-3.613 5.118,-6.383 -2.168,-0.269 -3.301,0.559 -4.297,0.438 -2.996,-1.368 -6.036,-1.758 -8.856,-4.239 1.512,-3.75 4.324,-8.449 6.883,-12.191 1.309,-1.969 4.297,-0.449 7.453,-0.039 5.879,2.719 8.074,9.058 7.254,15 1.152,0.148 2.004,1.39 2.16,0.281 2.383,-2.66 2.801,-5.691 4.199,-8.461 0.282,-2.09 1.582,-2.91 -0.578,-3.191 -7.754,-4.09 -13.777,-6.821 -21.523,-10.918 -2.129,-0.281 -2.977,-1.371 -4.852,-2.582 -1.164,0.832 -1.027,-0.129 -1.164,0.832 -1.133,-0.153 -0.125,0.961 -0.281,2.07 1.062,7.168 -2.766,11.738 -7.129,21.32 -1.269,1.809 -5.676,10.395 -8.801,9.993 -0.996,-0.129 -0.867,-1.086 -0.73,-2.067 l 0.281,-2.074 c -1.172,0.984 -3.164,0.727 -5.156,-0.66 0.137,-0.965 0.137,-0.965 0.137,-0.965 0.558,-4.02 2.062,-7.77 4.785,-11.508 3.82,-5.539 6.066,-13.41 12.902,-17.601 1.141,-0.848 0.137,-0.981 -0.742,-2.079 -3.008,-1.511 -7.129,-2.039 -9.883,-4.371 -2.402,1.672 -0.547,4.012 -0.82,5.95 -0.547,4.023 -2.121,6.91 -4.649,10.523 -1.691,4.859 -3.105,7.77 -5.949,12.469 -0.723,-2.063 -1.445,-4.262 -1.043,-7.172 -0.031,-7.188 -0.215,-14.238 0.887,-22.27 0,0 -1.004,-0.129 -0.879,-1.097 -1.004,-0.133 -2.117,0.707 -2.254,1.687 -6.867,4.18 -16.691,14.192 -24.492,18.25 0,0 0.418,-3.051 1.406,-2.929 4.102,-7.629 6.199,-14.379 11.172,-20.79 1.406,-1.941 3.535,-2.652 5.684,-3.351 -0.997,-0.129 0.136,-0.969 -0.872,-1.098 -1.855,-1.371 -2.851,-1.492 -4.851,-2.73 -2.012,-0.262 -4.766,-3.563 -6.008,-1.762 2.441,5.371 -1.641,11.891 -3.211,15.77 -2.969,5.671 -5.664,10.39 -8.476,16.23 l -1.133,-0.148 c -1.875,-1.36 -1.477,-4.27 -2.063,-7.45 -0.879,-1.101 -0.879,-1.101 -2.031,-1.242 -0.273,1.93 -0.684,4.973 0.207,7.071 -0.422,3.039 1.18,6.339 4.199,7.718 2.86,1.352 7.871,2.973 10.43,0.352 6.98,-5.301 11.941,-10.719 18.809,-14.899 l 0.847,1.079 c -0.976,7.07 -0.918,14.109 -0.722,20.179 -0.418,3.051 0.304,6.25 4.054,8.703 0.996,1.102 4.012,1.493 6.278,0.809 0.878,1.086 2.597,3.414 3.605,3.543 7.898,3.961 14.617,7.93 22.645,10.934 l 0.996,0.128 c 1.269,-1.808 1.554,-3.882 3.711,-3.601 0.722,2.199 0.461,4.137 2.179,6.465 2.754,3.308 8.758,5.07 13.309,2.691 7.578,-2.113 21.652,-12.418 27.109,-13.824 -2.988,5.805 -5.672,10.523 -8.386,15.246 -2.395,1.66 -4.954,5.41 -8.235,5.98 -0.996,-0.128 -1.133,0.836 -1.133,0.836 4.016,1.496 7.864,4.118 11.77,5.59 2.273,-0.679 -0.598,-3.172 -0.324,-5.101 2.101,-7.883 6.172,-14.399 9.132,-21.055 2.579,-2.777 4.161,-6.652 5.536,-9.434 1.132,-0.98 -3.75,-3.57 -4.871,-2.734" /><path
         id="path274"
         style="fill:#231f20;fill-opacity:1;fill-rule:nonzero;stroke:none"
         d="m 757.145,1648.17 c 0,-4.24 -4.024,-6.65 -8.079,-6.65 -3.398,0 -6.328,1.73 -7.851,3.5 l 0.031,0.68 1.992,2.09 0.731,0.03 c 1.601,-1.35 3.164,-2.19 5.195,-2.19 1.965,0 3.527,1.03 3.527,2.64 0,3.99 -11.046,2.77 -11.046,10.13 0,3.92 3.429,6.3 7.257,6.3 2.891,0 5.254,-1.18 7.118,-2.99 v -0.67 l -1.836,-2.16 -0.692,-0.09 c -1.633,1.22 -2.793,1.8 -4.465,1.8 -1.863,0 -2.957,-0.97 -2.957,-2.29 0,-3.95 11.075,-2.31 11.075,-10.13" /><path
         id="path276"
         style="fill:#231f20;fill-opacity:1;fill-rule:nonzero;stroke:none"
         d="m 783.102,1645.44 v -0.67 c -2.063,-2 -4.895,-3.25 -8.118,-3.25 -6.66,0 -11.98,5.11 -11.98,11.57 0,6.5 5.32,11.61 11.98,11.61 3.223,0 6.055,-1.25 8.118,-3.24 v -0.68 l -2.2,-2.28 -0.691,-0.04 c -1.406,1.19 -3.137,1.93 -5.266,1.93 -4.05,0 -7.254,-3.12 -7.254,-7.3 0,-4.14 3.204,-7.27 7.254,-7.27 2.129,0 3.86,0.75 5.266,1.93 l 0.691,-0.03 2.2,-2.28" /><path
         id="path278"
         style="fill:#231f20;fill-opacity:1;fill-rule:nonzero;stroke:none"
         d="m 790.609,1664.45 h 3.555 l 0.5,-0.49 v -21.55 l -0.5,-0.48 h -3.555 l -0.496,0.48 v 21.55 l 0.496,0.49" /><path
         id="path280"
         style="fill:#231f20;fill-opacity:1;fill-rule:nonzero;stroke:none"
         d="m 816.234,1645.34 v -2.93 l -0.496,-0.48 h -12.277 l -0.508,0.48 v 21.55 l 0.508,0.49 h 12.238 l 0.508,-0.49 v -2.92 l -0.508,-0.49 h -8.183 v -5.08 h 7.683 l 0.5,-0.48 v -2.92 l -0.5,-0.49 h -7.683 v -5.76 h 8.222 l 0.496,-0.48" /><path
         id="path282"
         style="fill:#231f20;fill-opacity:1;fill-rule:nonzero;stroke:none"
         d="m 842.848,1663.96 v -21.55 l -0.5,-0.48 h -4.09 l -0.606,0.33 -8.945,15.27 v -15.12 l -0.5,-0.48 h -3.562 l -0.5,0.48 v 21.55 l 0.5,0.49 h 4.089 l 0.606,-0.32 8.945,-15.28 v 15.11 l 0.5,0.49 h 3.563 l 0.5,-0.49" /><path
         id="path284"
         style="fill:#231f20;fill-opacity:1;fill-rule:nonzero;stroke:none"
         d="m 864.977,1663.96 v -2.92 l -0.5,-0.49 h -5.028 v -18.14 l -0.5,-0.48 h -3.554 l -0.497,0.48 v 18.14 h -5.058 l -0.5,0.49 v 2.92 l 0.5,0.49 h 14.637 l 0.5,-0.49" /><path
         id="path286"
         style="fill:#231f20;fill-opacity:1;fill-rule:nonzero;stroke:none"
         d="m 871.949,1664.45 h 3.555 l 0.508,-0.49 v -21.55 l -0.508,-0.48 h -3.555 l -0.5,0.48 v 21.55 l 0.5,0.49" /><path
         id="path288"
         style="fill:#231f20;fill-opacity:1;fill-rule:nonzero;stroke:none"
         d="m 895.68,1649.94 -3.067,8.78 -3.058,-8.78 z m 6.883,-8.01 h -3.692 l -0.566,0.39 -1.367,3.89 h -8.653 l -1.355,-3.89 -0.567,-0.39 h -3.703 l -0.398,0.55 8.086,21.58 0.566,0.39 h 3.328 l 0.637,-0.39 8.086,-21.58 -0.402,-0.55" /><path
         id="path290"
         style="fill:#ffffff;fill-opacity:1;fill-rule:nonzero;stroke:none"
         d="m 822.027,1454.52 -7.011,17.29 -17.598,-7.44 7.684,17.01 -17.879,6.78 17.879,6.77 -7.684,17.01 17.598,-7.42 7.011,17.28 7,-17.28 17.598,7.42 -7.676,-17.01 17.871,-6.77 -17.871,-6.78 7.676,-17.01 -17.598,7.44 -7,-17.29" /><path
         id="path292"
         style="fill:#ffffff;fill-opacity:1;fill-rule:nonzero;stroke:none"
         d="m 821.547,1057.23 -7.012,17.29 -17.597,-7.44 7.687,17.01 -17.883,6.78 17.883,6.77 -7.687,17.01 17.597,-7.42 7.012,17.28 7.012,-17.28 17.589,7.42 -7.675,-17.01 17.879,-6.77 -17.879,-6.78 7.675,-17.01 -17.589,7.44 -7.012,-17.29" /><path
         id="path294"
         style="fill:#ffffff;fill-opacity:1;fill-rule:nonzero;stroke:none"
         d="m 1042.64,1249.5 -7.01,17.29 -17.59,-7.44 7.68,17.01 -17.88,6.78 17.88,6.77 -7.68,17.01 17.59,-7.42 7.01,17.28 7.01,-17.28 17.6,7.42 -7.67,-17.01 17.87,-6.77 -17.87,-6.78 7.67,-17.01 -17.6,7.44 -7.01,-17.29" /><path
         id="path296"
         style="fill:#ffffff;fill-opacity:1;fill-rule:nonzero;stroke:none"
         d="m 602.699,1249.5 -7.011,17.29 -17.598,-7.44 7.687,17.01 -17.882,6.78 17.882,6.77 -7.687,17.01 17.598,-7.42 7.011,17.28 7.012,-17.28 17.598,7.42 -7.684,-17.01 17.879,-6.77 -17.879,-6.78 7.684,-17.01 -17.598,7.44 -7.012,-17.29" /><path
         id="path298"
         style="fill:#231f20;fill-opacity:1;fill-rule:nonzero;stroke:none"
         d="M 408.902,512.98 C 408.375,402.789 353.52,347.371 252.926,347.371 c -99.531,0 -157.6096,44.688 -157.6096,147.328 0,45.692 0,71.449 0,104.242 0,58.039 -6.4453,105.36 -8.5742,130.059 11.7969,-1.621 31.1838,-2.68 42.4608,-2.68 11.32,0 23.137,1.059 33.906,2.68 -5.371,-51.09 -6.972,-119.309 -6.972,-190.238 0,-102.114 18.781,-160.153 113.437,-160.153 102.258,0 104.914,101.563 104.914,185.403 0,75.797 -0.566,129.519 -3.781,164.988 8.066,-1.621 16.691,-2.68 24.766,-2.68 7.5,0 14.484,1.059 21.496,2.68 -3.781,-40.809 -7.52,-130.59 -8.067,-216.02" /><path
         id="path300"
         style="fill:#231f20;fill-opacity:1;fill-rule:nonzero;stroke:none"
         d="m 759.34,546.59 c -1.102,-57.41 -0.555,-144.899 0,-196.149 -3.75,1.098 -9.102,1.641 -12.852,1.641 -3.73,0 -9.082,-0.543 -12.273,-1.641 -78.027,92.047 -166.309,187.008 -253.508,279.329 -1.094,-30.071 -1.621,-68.668 -1.621,-116.989 0,-66.051 2.129,-137.972 4.309,-158.5 -7.52,1.66 -15.02,2.758 -21.946,2.758 -7.48,0 -14.961,-1.098 -22.519,-2.758 3.769,20.528 11.3,158.5 11.3,248.649 0,58.011 -1.093,100.371 -2.14,125.05 3.703,-0.519 10.137,-1.05 13.906,-1.05 4.231,0 10.137,0.531 14.387,1.05 82.371,-90.16 180.332,-196.968 253.027,-272.652 0,90.692 0,215.774 -4.297,269.422 6.973,-1.602 14.442,-2.66 21.375,-2.66 6.973,0 13.36,1.058 20.383,2.66 -3.223,-52.051 -7.023,-132 -7.531,-178.16" /><path
         id="path302"
         style="fill:#231f20;fill-opacity:1;fill-rule:nonzero;stroke:none"
         d="m 895.309,345.371 c -46.829,0 -95.196,22.59 -118.321,39.328 9.11,7.461 12.891,9.653 23.125,23.141 7.52,10.23 12.371,26.91 12.371,26.91 9.649,-28.5 38.704,-56.531 90.911,-56.531 52.175,0 88.777,39.312 88.777,75.91 0,90.48 -197.996,49.043 -197.996,173.43 0,67.339 59.14,104.5 137.722,104.5 41.985,0 76.992,-13.239 101.742,-29.598 -11.34,-9.18 -12.94,-9.711 -19.96,-19.973 -5.35,-8.066 -11.81,-25.328 -11.81,-25.328 -10.265,25.328 -32.323,48.512 -74.257,48.512 -42.5,0 -72.668,-26.391 -72.668,-59.242 0,-89.95 205.585,-53.871 205.045,-170.758 -0.53,-92.094 -66.244,-130.301 -164.681,-130.301" /><path
         id="path304"
         style="fill:#231f20;fill-opacity:1;fill-rule:nonzero;stroke:none"
         d="m 1436.89,353.789 c -7.52,1.02 -15.06,2.68 -22.08,2.68 -7.48,0 -15.04,-1.66 -22.56,-2.68 -25.82,94.039 -55.4,188.633 -88.19,285.91 h -1.1 c -19.91,-61.32 -67.73,-197.801 -94.1,-285.91 -7.54,1.02 -14.54,2.68 -22.59,2.68 -7.01,0 -15.06,-1.66 -22.06,-2.68 -15.07,57.981 -37.12,142.902 -65.11,234.301 -8.59,29.012 -40.29,116.601 -48.92,136.492 11.85,-1.613 29.58,-2.672 40.89,-2.672 11.29,0 22.58,1.059 33.86,2.672 23.7,-100.473 47.86,-189.184 78.55,-295.07 h 1.06 c 24.23,74.738 80.16,242.41 93.57,295.07 7.01,-1.613 13.99,-2.672 21.49,-2.672 7.02,0 14.02,1.059 21.03,2.672 12.35,-53.191 72.09,-231.652 90.32,-295.07 h 1.09 c 20.97,69.359 74.77,250.468 84.42,295.07 6.5,-1.613 13.5,-2.672 19.92,-2.672 6.98,0 13.46,1.059 20.98,2.672 -17.21,-46.203 -95.2,-283.191 -120.47,-370.793" /></g></g></svg>